<svg width="1440" height="1080" viewBox="0 0 1440 1080" fill="none" xmlns="http://www.w3.org/2000/svg">
<circle cx="1123.53" cy="500.526" r="204.626" transform="rotate(-91.1028 1123.53 500.526)" fill="#F5E7D6"/>
<path d="M1297 -140.5L1328.84 78.8835C1328.84 78.8835 1338.96 178.535 1339 190.666C1339.3 284.978 1199.25 411.981 1199.25 411.981" stroke="#54504D" stroke-width="20" stroke-linecap="round"/>
<path d="M1225.47 356.149C1229.27 352.15 1235.6 351.997 1239.6 355.806L1254.08 369.6C1258.08 373.409 1258.24 379.739 1254.43 383.738L1233.44 405.775L1204.47 378.186L1225.47 356.149Z" fill="#15352D"/>
<path d="M1169.77 372.156C1177.39 364.158 1190.05 363.85 1198.05 371.468L1239.32 410.782C1247.32 418.401 1247.63 431.06 1240.01 439.058L1186.9 494.812L1116.66 427.91L1169.77 372.156Z" fill="#54504D"/>
<path d="M1114.04 416.144C1117.85 412.145 1124.18 411.991 1128.18 415.8L1198.12 482.424C1202.12 486.233 1202.27 492.563 1198.46 496.562L1193.84 501.418L1109.41 421L1114.04 416.144Z" fill="#15352D"/>
<path d="M1136.61 446.913L1112.22 472.52C1110.67 474.142 1108.11 474.204 1106.49 472.659C1104.86 471.115 1104.8 468.548 1106.35 466.927L1130.74 441.32L1136.61 446.913Z" fill="url(#paint0_linear_2108_284)"/>
<path d="M1168.28 477.078L1143.89 502.686C1142.35 504.307 1139.78 504.369 1138.16 502.825C1136.54 501.28 1136.47 498.714 1138.02 497.092L1162.41 471.485L1168.28 477.078Z" fill="url(#paint1_linear_2108_284)"/>
<g opacity="0.8">
<path d="M198.363 1134.61C198.363 544.541 653.306 953.694 997.5 609.5" stroke="#54504D" stroke-width="20" stroke-linecap="round"/>
<path d="M1009.38 624.969C1005.47 628.875 999.143 628.875 995.238 624.969L981.096 610.827C977.19 606.922 977.19 600.59 981.096 596.685L1002.62 575.165L1030.9 603.449L1009.38 624.969Z" fill="#15352D"/>
<path d="M1065.45 610.321C1057.64 618.131 1044.97 618.131 1037.16 610.321L996.856 570.016C989.046 562.205 989.046 549.542 996.856 541.731L1051.3 487.284L1119.89 555.874L1065.45 610.321Z" fill="#54504D"/>
<path d="M1122.23 567.7C1118.33 571.605 1111.99 571.605 1108.09 567.7L1039.79 499.396C1035.88 495.491 1035.88 489.159 1039.79 485.254L1044.53 480.511L1126.97 562.957L1122.23 567.7Z" fill="#15352D"/>
</g>
<defs>
<linearGradient id="paint0_linear_2108_284" x1="1196.89" y1="344.087" x2="1157.22" y2="507.998" gradientUnits="userSpaceOnUse">
<stop stop-color="#EDCFCF"/>
<stop offset="1" stop-color="#979797"/>
</linearGradient>
<linearGradient id="paint1_linear_2108_284" x1="1196.89" y1="344.087" x2="1157.22" y2="507.998" gradientUnits="userSpaceOnUse">
<stop stop-color="#EDCFCF"/>
<stop offset="1" stop-color="#979797"/>
</linearGradient>
</defs>
</svg>
