<svg width="649" height="441" viewBox="0 0 649 441" fill="none" xmlns="http://www.w3.org/2000/svg">
<path opacity="0.5" d="M41.1969 122.988C161.729 -40.996 494.271 -40.996 614.803 122.988C691.746 227.669 614.803 441 614.803 441H41.1969C41.1969 441 -35.7461 227.669 41.1969 122.988Z" fill="url(#paint0_linear_2070_2164)"/>
<path d="M184.195 241.938L185.695 242.438L186.695 241.938" stroke="#235347"/>
<path d="M184.195 241.438H186.695" stroke="#235347"/>
<path d="M107.695 344.277C96.7512 342.637 84.4808 342.758 80.6946 348.437C80.4201 348.849 80.1781 349.351 79.9666 349.937C75.8647 361.299 83.2568 404.016 87.6946 424.937M148.695 439.437C145.528 423.437 138.395 387.537 135.195 371.937C131.195 352.437 129.695 353.437 126.695 349.937C125.317 348.33 116.984 345.669 107.695 344.277M79.9666 349.937C89.376 348.437 110.895 347.337 121.695 354.937C132.495 362.537 137.695 413.938 139.695 438.438M107.695 344.277L109.695 322.937M109.695 322.937C105.695 320.937 98.8948 313.637 103.695 300.437C106.195 296.937 115.095 288.837 114.695 276.437C114.195 273.104 115.195 264.737 123.195 257.937C131.195 251.137 130.695 238.937 130.695 233.437C130.361 227.937 133.995 214.937 151.195 206.937C156.695 205.437 170.295 204.637 180.695 213.437C184.861 213.771 192.495 216.538 189.695 224.938L188.445 225.938M109.695 322.937C110.03 323.081 110.364 323.198 110.695 323.29C115.164 324.536 119.179 321.279 121.311 318.648C121.871 317.957 122.783 317.643 123.672 317.68C127.23 317.827 132.5 315.096 133.195 302.938C133.995 288.938 148.195 284.104 155.195 283.438M155.195 283.438C156.28 282.714 157.81 281.506 159.397 279.938M223.118 365.934L198.195 364.938C196.195 365.438 190.995 359.038 186.195 329.438C181.395 299.837 171.195 290.104 166.695 288.938C160.295 284.537 156.361 283.438 155.195 283.438M188.445 225.938L187.195 226.938C186.195 229.438 182.695 234.737 176.695 235.938L171.195 242.438C169.028 239.938 164.195 236.037 162.195 240.438C160.195 244.838 163.361 251.604 165.195 254.438C166.195 256.438 167.795 262.137 166.195 268.938C165.174 273.278 162.197 277.17 159.397 279.938M188.445 225.938C188.861 230.604 189.595 240.638 189.195 243.438C188.795 246.237 191.695 249.938 193.195 251.438C193.861 252.104 194.595 253.737 192.195 254.938C189.795 256.138 189.695 255.438 188.695 255.438C189.028 257.438 189.295 261.438 187.695 261.438M187.695 261.438C186.095 261.438 184.695 261.938 184.195 261.438M166.695 288.938C165.947 288.283 165.001 286.885 164.807 284.938C164.655 283.411 164.965 281.546 166.195 279.438C168.995 274.637 171.028 273.104 171.695 272.938C172.695 272.771 175.895 272.737 180.695 273.938C185.495 275.138 186.361 269.438 186.195 266.438C187.795 266.438 187.861 263.104 187.695 261.438M227.695 380.938C233.695 380.438 235.195 378.938 240.695 376.938C245.095 375.337 247.195 377.271 247.695 378.438C248.028 378.771 248.895 378.938 249.695 376.938C250.495 374.938 247.695 373.438 246.195 372.938C246.528 372.271 246.595 370.138 244.195 366.938C241.795 363.737 239.195 362.604 238.195 362.438C237.695 362.271 235.695 361.938 231.695 361.938C227.695 361.938 224.361 364.604 223.195 365.938L223.118 365.934M153.195 333.938C156.391 344.398 162.425 361.31 169.195 374.505C174.074 384.015 179.336 391.595 184.195 393.438C195.795 397.838 218.028 386.938 227.695 380.938M227.695 380.938C228.495 370.137 224.977 366.435 223.118 365.934M169.195 374.505C168.568 379.973 167.527 391.735 168.073 397.438M238.195 440.938V429.938C238.195 411.938 202.195 405.771 184.195 404.938C180.591 404.938 174.285 404.262 170.745 401.938M170.745 401.938C169.374 401.037 168.418 399.889 168.195 398.438C168.148 398.13 168.107 397.796 168.073 397.438M170.745 401.938C171.562 402.604 173.295 404.537 173.695 406.938M141.695 402.438C147.613 402.771 161.175 402.238 168.073 397.438M159.397 279.938C160.238 281.104 162.496 283.737 164.807 284.938" stroke="#235347"/>
<path d="M189.195 236.938C189.195 236.604 189.195 236.271 189.195 235.938C189.096 235.946 188.993 235.955 188.891 235.964C187.07 236.149 185.235 236.289 183.472 236.811C183.375 236.847 183.281 236.886 183.195 236.938C183.288 236.901 183.386 236.879 183.485 236.86C185.277 236.638 187.1 236.799 188.897 236.913C188.997 236.921 189.099 236.929 189.195 236.938Z" fill="#235347"/>
<path d="M110.201 323.02C110.53 322.965 110.859 322.91 111.188 322.855C111.069 322.19 110.968 321.514 110.881 320.841C110.31 314.873 109.587 307.962 113.371 303.114C117.598 298.66 122.253 294.406 125.176 288.922C125.454 288.301 125.698 287.621 125.695 286.938C125.681 287.62 125.422 288.289 125.131 288.901C122.092 294.285 117.35 298.415 113.019 302.761C108.844 307.911 109.531 314.844 109.937 320.951C110.009 321.639 110.095 322.332 110.201 323.02Z" fill="#235347"/>
<path d="M186.748 226.714C187.046 226.863 187.344 227.012 187.643 227.161C187.7 227.027 187.746 226.898 187.787 226.768C188.223 225.317 188.254 223.808 187.883 222.4C187.636 221.613 187.555 220.755 187.049 220.054C186.954 219.961 186.818 219.926 186.695 219.938C186.82 219.943 186.939 219.994 187.013 220.088C187.391 220.79 187.372 221.666 187.508 222.475C187.68 223.834 187.443 225.236 186.901 226.426C186.852 226.528 186.8 226.628 186.748 226.714Z" fill="#235347"/>
<path d="M175.752 236.205C176.048 236.36 176.343 236.515 176.638 236.67C176.752 236.434 176.867 236.192 176.981 235.945C178.876 231.582 180.897 227.046 180.826 222.22C180.801 221.954 180.76 221.689 180.695 221.438C180.744 221.693 180.768 221.959 180.776 222.223C180.547 226.987 178.264 231.35 176.132 235.519C176.005 235.754 175.878 235.983 175.752 236.205Z" fill="#235347"/>
<path d="M172.695 219.438C172.628 219.707 172.558 219.984 172.486 220.261C171.836 222.724 171.143 225.146 170.368 227.528C169.565 229.893 168.776 232.292 167.256 234.306C167.082 234.528 166.895 234.74 166.695 234.938C166.936 234.793 167.169 234.624 167.392 234.439C169.375 232.729 170.503 230.258 171.318 227.84C172.115 225.391 172.556 222.847 172.674 220.289C172.686 220.002 172.694 219.715 172.695 219.438Z" fill="#235347"/>
<path d="M261.334 220.081C261.624 219.916 261.913 219.75 262.203 219.585C262.138 219.488 262.068 219.389 261.999 219.297C260.744 217.674 259.09 216.246 257.097 215.875C256.988 215.857 256.878 215.843 256.769 215.833C256.876 215.859 256.981 215.89 257.085 215.924C258.961 216.578 260.289 218.175 261.198 219.807C261.246 219.898 261.293 219.992 261.334 220.081Z" fill="#235347"/>
<path d="M288.211 223.343C288.445 223.58 288.68 223.816 288.915 224.053C289.051 223.904 289.144 223.763 289.233 223.621C290.536 221.114 291.294 218.491 291.313 215.778C291.305 215.628 291.291 215.477 291.269 215.333C291.274 215.478 291.272 215.629 291.263 215.778C290.963 218.41 289.854 220.994 288.45 223.082C288.369 223.186 288.281 223.285 288.211 223.343Z" fill="#235347"/>
<path opacity="0.8" d="M268.769 238.833V240.833M269.769 237.833V241.833M270.769 238.833V240.833M284.769 238.833V241.833M285.769 238.833V241.833" stroke="#235347"/>
<path d="M197.769 364.5C197.935 353.667 198.969 325.733 201.769 305.333C205.269 279.833 237.769 277.333 246.269 274.833C253.069 272.833 253.435 257.999 252.769 250.833L250.269 249.833C247.602 247.499 243.069 241.533 246.269 236.333C246.435 236.063 246.601 235.822 246.769 235.607C249.823 231.684 253.004 236.673 254.269 239.833M246.269 274.833C247.435 279.833 252.669 289.833 264.269 289.833C278.769 289.833 276.269 281.333 276.769 279.333M242.769 365.333L256.269 356.833C256.769 356.333 257.669 355.133 257.269 354.333M257.269 354.333C256.769 353.333 261.769 350.833 269.269 350.333C275.269 349.933 283.769 340.166 287.269 335.333C287.435 334.666 287.369 333.533 285.769 334.333M257.269 354.333C252.469 351.533 251.269 344.499 251.269 341.333M285.769 334.333C284.169 335.133 280.102 338.999 278.269 340.833M285.769 334.333C288.435 332.166 292.769 326.833 287.269 329.333M276.269 332.333C279.755 329.651 286.242 325.069 289.269 324.215C290.003 324.008 290.534 324.02 290.769 324.333C291.969 325.933 288.935 328.333 287.269 329.333L278.269 335.333M289.269 324.215C290.102 322.421 290.769 319.233 286.769 320.833C282.769 322.433 274.769 326.833 271.269 328.833C269.602 329.333 266.169 330.133 265.769 329.333C265.369 328.533 268.269 324.666 269.769 322.833C270.602 320.999 271.069 317.933 266.269 320.333C261.469 322.733 258.269 331.999 257.269 336.333C256.769 337.833 254.869 340.933 251.269 341.333M251.269 341.333C246.769 341.833 226.269 352.333 226.269 343.333C226.269 336.133 226.269 324.333 226.269 319.333M276.769 279.333C277.169 277.733 295.269 288.999 304.269 294.833C306.269 295.833 310.969 303.733 313.769 327.333L317.769 352M276.769 279.333C276.102 279.333 274.769 279.133 274.769 278.333C274.769 277.533 274.769 273.666 274.769 271.833M274.769 271.833C270.435 271.166 260.969 268.333 257.769 262.333M274.769 271.833C276.602 271.999 281.069 271.133 284.269 266.333C287.469 261.533 288.602 253.333 288.769 249.833L289.269 234.833M289.269 234.833C289.935 234.499 291.269 233.433 291.269 231.833C291.269 229.833 292.769 231.833 292.269 228.333C291.869 225.533 292.102 224.166 292.269 223.833C292.769 223.833 293.669 222.933 293.269 219.333C292.769 214.833 290.769 208.833 286.769 208.333C282.769 207.833 282.769 208.833 279.769 207.833C276.769 206.833 276.269 202.833 261.769 204.333C250.169 205.533 249.269 210.833 250.269 213.333C248.269 214.166 244.369 217.433 244.769 223.833C245.169 230.233 246.269 234.349 246.769 235.607M289.269 234.833C289.102 233.499 288.769 229.533 288.769 224.333C288.769 217.833 286.683 218.333 285.269 218.333C283.269 218.333 282.769 219.833 279.769 221.333C277.369 222.533 272.769 220.499 270.769 219.333C268.435 218.833 263.669 218.033 263.269 218.833C262.869 219.633 261.769 219.833 261.269 219.833C258.769 220.833 260.269 225.833 260.269 228.333C260.269 230.333 257.602 232.833 256.269 233.833M297.269 323.333C294.935 333.666 290.969 355.433 293.769 359.833C296.569 364.233 299.935 373 301.269 376.833M279.769 239.333C281.102 243.333 283.369 251.633 281.769 252.833C280.169 254.033 277.769 253.333 276.769 252.833" stroke="#235347"/>
<path d="M280.416 259.311C280.318 258.992 280.22 258.674 280.122 258.355C279.97 258.41 279.809 258.464 279.649 258.514C276.778 259.339 273.42 259.748 270.695 258.132C270.548 258.039 270.406 257.94 270.269 257.833C270.395 257.953 270.528 258.066 270.666 258.173C273.267 260.076 276.777 260.017 279.887 259.434C280.063 259.397 280.243 259.355 280.416 259.311Z" fill="#235347"/>
<path d="M210.769 292.333C211.264 292.323 211.759 292.368 212.249 292.457C221.455 294.876 224.091 305.504 225.122 313.908C225.176 314.39 225.226 314.883 225.271 315.386C225.603 315.351 225.934 315.315 226.266 315.28C226.203 314.771 226.136 314.273 226.064 313.785C224.746 305.301 221.643 294.525 212.257 292.408C211.762 292.335 211.264 292.306 210.769 292.333Z" fill="#235347"/>
<path d="M297.277 319.744C297.605 319.803 297.933 319.863 298.26 319.922C298.322 319.536 298.374 319.141 298.419 318.746C299.163 311.797 298.711 304.527 302.12 298.299C302.32 297.967 302.537 297.642 302.769 297.333C302.524 297.631 302.292 297.947 302.078 298.272C298.379 304.375 298.505 311.822 297.478 318.619C297.417 319.001 297.351 319.38 297.277 319.744Z" fill="#235347"/>
<path d="M272.186 234.826C272.241 234.497 272.296 234.168 272.351 233.839C272.222 233.826 272.09 233.815 271.959 233.805C269.71 233.743 266.959 233.579 265.426 235.484C265.361 235.595 265.308 235.711 265.269 235.833C265.324 235.717 265.39 235.611 265.467 235.512C267.136 233.907 269.727 234.409 271.83 234.747C271.951 234.772 272.071 234.798 272.186 234.826Z" fill="#235347"/>
<path d="M287.769 235.833C287.731 235.74 287.681 235.652 287.624 235.569C286.439 234.098 284.34 233.834 282.524 233.83C282.422 233.831 282.319 233.833 282.213 233.836C282.25 234.167 282.287 234.499 282.324 234.83C282.42 234.811 282.515 234.793 282.608 234.776C284.28 234.504 286.22 234.399 287.585 235.601C287.653 235.671 287.716 235.748 287.769 235.833Z" fill="#235347"/>
<path d="M229.316 347.331C229.284 346.999 229.253 346.667 229.221 346.335C228.922 346.372 228.597 346.413 228.296 346.455C222.785 347.284 217.015 348.348 212.469 351.721C212.227 351.914 211.99 352.12 211.769 352.333C212.001 352.133 212.248 351.94 212.499 351.761C217.186 348.661 222.921 347.926 228.398 347.399C228.697 347.375 229.019 347.351 229.316 347.331Z" fill="#235347"/>
<path d="M358.955 332C356.824 338.868 354.63 345.025 352.4 350.5M352.4 350.5C340.503 379.701 327.561 389.474 317.455 384C303.455 372 312.289 357.333 318.455 351.5C322.289 342.333 331.556 319.6 337.956 302C344.356 284.4 361.622 280.333 369.456 280.5V271C369.122 270.333 367.756 269 364.956 269C361.456 269 358.456 270 357.456 268.5C356.456 267 356.956 260 356.456 259C355.956 258 356.456 251 354.456 250.5C352.856 250.1 351.456 250 350.956 250C350.122 249.667 349.156 248.1 351.956 244.5C354.756 240.9 355.456 239 355.456 238.5C355.402 237.426 355.341 235.986 355.297 234.5C355.204 231.373 355.184 228.042 355.456 227.5M352.4 350.5C353.252 358.167 355.755 375.9 358.955 385.5C359.455 389.667 360.055 398.7 358.455 401.5C356.855 404.3 356.455 409 356.455 411M356.455 411C356.289 412.5 352.855 415.7 340.455 416.5C324.955 417.5 320.083 419.225 312.955 427C307.456 433 308.955 437.5 308.955 438.5M356.455 411C358.289 413 369.656 417.1 394.456 417.5M392.956 286.949C398.163 289.097 404.769 288.798 407.456 288.5C409.643 288.257 412.066 285.888 414.209 283C416.475 279.946 419.071 276.502 419.456 274C420.456 267.5 411.626 261.138 408.956 252C405.603 240.529 409.656 235.1 406.456 221.5C403.256 207.9 388.456 204.167 381.456 204C376.122 204 364.056 205.3 358.456 210.5C352.856 215.7 354.122 220.667 355.456 222.5C355.622 223.833 355.856 226.7 355.456 227.5M355.456 227.5C355.622 227.5 356.156 227.5 356.956 227.5C357.956 227.5 358.456 218 358.456 218.5C358.456 219 359.956 225 359.956 227.5C359.956 229.5 365.622 236.333 368.456 239.5H370.456C373.256 235.5 375.956 236.167 376.956 237C378.395 238.44 380.203 243.195 376.458 251M385.956 278.5C386.56 282.934 389.439 285.499 392.956 286.949M392.956 286.949C391.456 288.799 386.956 291.7 380.956 288.5C374.956 285.3 374.456 280.167 374.956 278C373.956 275.333 372.056 269.8 372.456 269C372.956 268 370.456 262.5 375.956 252C376.133 251.661 376.3 251.328 376.458 251M376.458 251C375.79 251.333 374.056 252.1 372.456 252.5M414.209 283C421.791 285.333 437.056 299.8 437.456 339V350.5M437.456 350.5C430.769 350.5 416.456 350.9 412.456 356.5C408.456 362.1 405.456 371.5 404.456 375.5L389.956 437.5M437.456 350.5C447.269 350.5 460.769 351.5 468.456 355C474.128 357.583 472.769 359.5 470.456 372.5L459.456 433.5M358.269 237V238.5M358.269 240V238.5M359.769 238.5H358.269" stroke="#235347"/>
<path d="M355.207 234.003C355.248 234.334 355.289 234.665 355.331 234.996C355.433 234.974 355.552 234.955 355.663 234.938C357.734 234.706 359.993 234.462 361.974 235.297C362.079 235.355 362.179 235.422 362.269 235.5C362.191 235.411 362.099 235.329 362.001 235.255C360.086 234.12 357.793 234.05 355.588 233.991C355.466 233.992 355.333 233.996 355.207 234.003Z" fill="#235347"/>
<path d="M372.611 234.862C372.84 234.621 373.07 234.379 373.3 234.138C373.057 233.918 372.81 233.684 372.567 233.446C368.447 229.172 364.147 223.793 364.738 217.503C364.789 217.165 364.861 216.831 364.955 216.5C364.845 216.826 364.756 217.157 364.689 217.494C363.783 223.824 367.874 229.526 371.886 234.108C372.124 234.366 372.369 234.62 372.611 234.862Z" fill="#235347"/>
<path d="M385.461 278.573C385.791 278.524 386.12 278.476 386.45 278.427C386.386 278.05 386.323 277.661 386.262 277.268C385.281 270.299 384.273 263.18 385.195 256.149C385.265 255.759 385.35 255.37 385.455 255C385.334 255.365 385.233 255.752 385.146 256.139C383.922 263.159 384.631 270.341 385.32 277.394C385.366 277.794 385.413 278.189 385.461 278.573Z" fill="#235347"/>
<path d="M413.455 284C412.944 283.402 412.255 282.962 411.512 282.694C409.601 281.981 407.455 282.71 405.901 283.931L406.013 284.066C409.942 280.559 413.129 274.707 410.691 269.39C409.88 267.617 408.916 265.878 407.557 264.411C406.32 262.851 403.963 262.242 403.833 260.437C403.444 257.612 403.277 254.701 403.088 251.82C403.04 251.038 402.995 250.249 402.954 249.469C402.621 249.49 402.289 249.51 401.956 249.531C402.014 250.315 402.076 251.105 402.141 251.888C402.392 254.782 402.616 257.665 403.077 260.563C403.193 261.645 404.091 262.569 404.889 263.067C405.691 263.615 406.438 264.174 407.091 264.854C408.406 266.212 409.387 267.883 410.22 269.61C412.647 274.551 409.728 280.379 405.897 283.934L406.009 284.07C407.513 282.839 409.59 282.078 411.496 282.742C412.236 282.991 412.931 283.414 413.455 284Z" fill="#235347"/>
<path d="M350.455 421C350.518 420.865 350.587 420.721 350.653 420.585C351.884 418.117 353.289 415.701 355.041 413.65C355.139 413.539 355.239 413.427 355.339 413.32C355.083 413.107 354.827 412.893 354.571 412.68C354.477 412.806 354.382 412.937 354.292 413.066C352.691 415.418 351.571 417.968 350.607 420.566C350.556 420.708 350.503 420.858 350.455 421Z" fill="#235347"/>
<path d="M316.455 357.5C316.548 357.407 316.643 357.309 316.736 357.212C317.378 356.541 317.997 355.845 318.574 355.107C318.862 354.736 319.139 354.357 319.389 353.944C319.513 353.736 319.631 353.521 319.727 353.28C319.806 353.036 319.951 352.775 319.787 352.334C319.592 351.865 319.485 351.347 319.455 350.842C319.449 350.722 319.447 350.598 319.455 350.5C319.122 350.5 318.788 350.5 318.455 350.5C318.464 350.669 318.486 350.812 318.513 350.959C318.625 351.56 318.821 352.134 319.123 352.666C319.154 352.657 319.16 352.889 319.105 353.074C319.055 353.271 318.975 353.477 318.885 353.68C318.704 354.088 318.482 354.489 318.247 354.884C317.776 355.672 317.25 356.437 316.698 357.18C316.618 357.287 316.535 357.396 316.455 357.5Z" fill="#235347"/>
<path d="M356.769 377.5H336.769M311.769 377.5H295.269H249.769M170.769 377.5H168.769" stroke="#235347"/>
<path d="M455.269 246.021V248.021M454.769 247.021H456.769" stroke="#235347"/>
<path d="M452.147 241.535C452.228 241.859 452.309 242.182 452.39 242.506C452.496 242.471 452.617 242.436 452.73 242.406C454.871 241.901 457.228 241.692 459.412 242.385C459.532 242.426 459.652 242.471 459.769 242.52C459.659 242.456 459.545 242.395 459.431 242.338C457.32 241.353 454.907 241.233 452.55 241.473C452.422 241.489 452.28 241.511 452.147 241.535Z" fill="#235347"/>
<path d="M500.155 223.614C500.062 223.935 499.97 224.255 499.877 224.575C499.76 224.532 499.629 224.495 499.5 224.466C497.026 223.803 494.352 225.847 494.176 228.638C494.155 228.783 494.138 228.932 494.124 229.087C494.124 229.087 494.124 229.087 494.124 229.087C494.121 228.932 494.122 228.781 494.126 228.634C493.941 225.882 496.587 223.065 499.652 223.528C499.816 223.547 499.988 223.575 500.155 223.614Z" fill="#235347"/>
<path d="M444.269 350.5C447.769 342.333 453.769 327.92 455.769 317.52C457.769 307.12 462.602 298.853 464.769 296.02C464.769 296.02 469.269 292.521 473.269 289.52C474.674 288.466 473.269 288.021 473.269 285.021M473.269 285.021C473.269 282.02 469.269 277.62 467.269 278.02C464.769 278.52 456.269 280.02 455.769 278.52C455.369 277.32 454.269 270.353 453.769 267.02L456.269 266.52C456.269 266.52 453.102 267.02 452.769 265.52C452.435 264.02 451.769 260.72 451.769 259.52C451.769 258.32 449.435 258.353 448.269 258.52C447.269 258.687 445.769 258.12 447.769 254.52C450.269 250.02 450.769 251.02 452.269 244.52C452.269 242.187 452.469 236.92 453.269 234.52C454.069 232.12 455.269 228.854 455.769 227.52M473.269 285.021C476.722 281.021 486.792 272.321 499.448 269.521M477.269 259.52C479.353 257.804 480.77 256.107 481.704 254.52C483.819 250.93 483.462 247.908 482.769 246.52C482.102 245.52 480.169 243.32 477.769 242.52C475.369 241.72 473.102 245.52 472.269 247.52C471.435 249.52 469.269 248.02 469.269 248.02C469.269 248.02 466.269 240.52 464.269 239.02C462.269 237.52 464.269 230.02 464.269 228.02C464.269 226.42 458.602 227.02 455.769 227.52M499.448 269.521C498.793 268.454 499.011 265.939 499.269 264.52C499.269 262.52 499.869 257.52 502.269 253.52C504.669 249.52 505.935 243.187 506.269 240.52C505.769 235.52 503.769 225.22 499.769 224.02L498.269 220.02C497.392 217.187 492.853 211.62 481.704 212.02C470.556 212.42 465.102 213.854 463.769 214.521C460.435 213.687 453.569 213.321 452.769 218.521C451.969 223.721 454.435 226.687 455.769 227.52M481.704 254.52C483.059 258.187 487.069 265.42 492.269 265.02C497.469 264.62 499.102 264.52 499.269 264.52M538.769 351.021C534.769 289.021 508.769 279.521 506.769 278.52C504.769 277.519 505.269 274.521 504.769 272.521C504.269 270.521 502.269 270.021 500.269 270.021C499.906 270.021 499.64 269.833 499.448 269.521M507.18 420.021C510.691 402.225 515.021 380.929 516.769 374.521C519.769 363.521 521.034 362.372 524.269 357.521C527.269 353.021 534.269 352 538.769 351.021C540.769 350.485 553.769 349.627 559.769 353.021C563.269 355 563.269 355 561.769 365.521L550.769 428.521M503.769 437.521C504.674 432.811 505.87 426.659 507.18 420.021M507.18 420.021C493.876 420.187 465.669 418.4 463.269 412M489.269 332.021C486.769 340.187 479.569 359 470.769 371" stroke="#235347"/>
<path d="M472.946 289.139C473.161 289.393 473.376 289.648 473.592 289.902C473.748 289.759 473.918 289.611 474.086 289.469C477.196 286.974 480.66 284.649 484.603 283.64C484.823 283.592 485.048 283.551 485.269 283.521C485.046 283.534 484.818 283.559 484.594 283.591C480.549 284.316 476.892 286.388 473.501 288.721C473.315 288.855 473.125 288.998 472.946 289.139Z" fill="#235347"/>
<g opacity="0.75">
<mask id="path-33-inside-1_2070_2164" fill="white">
<path d="M609 148C626.121 148 640 161.879 640 179C640 196.121 626.121 210 609 210H534.992C531.666 211.052 527.997 212.421 525.331 214C520.061 217.121 513.759 223.988 513.748 224V210H510C492.879 210 479 196.121 479 179C479 161.879 492.879 148 510 148H609Z"/>
</mask>
<path d="M609 148V147V147V148ZM534.992 210V209H534.838L534.691 209.047L534.992 210ZM525.331 214L524.821 213.14L524.821 213.14L525.331 214ZM513.748 224H512.748V226.569L514.485 224.676L513.748 224ZM513.748 210H514.748V209H513.748V210ZM510 210V211V211V210ZM609 148V149C625.569 149 639 162.431 639 179H640H641C641 161.327 626.673 147 609 147V148ZM640 179H639C639 195.569 625.569 209 609 209V210V211C626.673 211 641 196.673 641 179H640ZM609 210V209H534.992V210V211H609V210ZM534.992 210L534.691 209.047C531.347 210.104 527.589 211.501 524.821 213.14L525.331 214L525.841 214.86C528.404 213.342 531.984 212 535.294 210.953L534.992 210ZM525.331 214L524.821 213.14C522.087 214.759 519.128 217.319 516.881 219.438C514.622 221.569 513.026 223.308 513.011 223.324L513.748 224L514.485 224.676C514.482 224.68 516.042 222.979 518.253 220.893C520.477 218.796 523.305 216.362 525.841 214.86L525.331 214ZM513.748 224H514.748V210H513.748H512.748V224H513.748ZM513.748 210V209H510V210V211H513.748V210ZM510 210V209C493.431 209 480 195.569 480 179H479H478C478 196.673 492.327 211 510 211V210ZM479 179H480C480 162.431 493.431 149 510 149V148V147C492.327 147 478 161.327 478 179H479ZM510 148V149H609V148V147H510V148Z" fill="#235347" mask="url(#path-33-inside-1_2070_2164)"/>
</g>
<path opacity="0.75" d="M494 190C494 184.631 498.253 180.278 503.5 180.278C508.747 180.278 513 184.631 513 190M508.929 170.556C508.929 173.624 506.498 176.111 503.5 176.111C500.502 176.111 498.071 173.624 498.071 170.556C498.071 167.487 500.502 165 503.5 165C506.498 165 508.929 167.487 508.929 170.556Z" stroke="#235347" stroke-linecap="round" stroke-linejoin="round"/>
<path d="M530.12 166V173H529.14V166.87H525.08V173H524.09V166H530.12Z" fill="#235347"/>
<path d="M534.952 167.65C535.466 167.65 535.926 167.763 536.332 167.99C536.739 168.217 537.056 168.533 537.282 168.94C537.516 169.347 537.632 169.817 537.632 170.35C537.632 170.883 537.516 171.357 537.282 171.77C537.056 172.177 536.739 172.493 536.332 172.72C535.926 172.947 535.466 173.06 534.952 173.06C534.572 173.06 534.222 172.987 533.902 172.84C533.589 172.693 533.322 172.48 533.102 172.2V174.94H532.142V167.7H533.062V168.54C533.276 168.247 533.546 168.027 533.872 167.88C534.199 167.727 534.559 167.65 534.952 167.65ZM534.872 172.22C535.212 172.22 535.516 172.143 535.782 171.99C536.056 171.83 536.269 171.61 536.422 171.33C536.582 171.043 536.662 170.717 536.662 170.35C536.662 169.983 536.582 169.66 536.422 169.38C536.269 169.093 536.056 168.873 535.782 168.72C535.516 168.567 535.212 168.49 534.872 168.49C534.539 168.49 534.236 168.57 533.962 168.73C533.696 168.883 533.482 169.1 533.322 169.38C533.169 169.66 533.092 169.983 533.092 170.35C533.092 170.717 533.169 171.043 533.322 171.33C533.476 171.61 533.689 171.83 533.962 171.99C534.236 172.143 534.539 172.22 534.872 172.22Z" fill="#235347"/>
<path d="M541.297 173.06C540.771 173.06 540.297 172.943 539.877 172.71C539.457 172.477 539.127 172.157 538.887 171.75C538.654 171.337 538.537 170.87 538.537 170.35C538.537 169.83 538.654 169.367 538.887 168.96C539.127 168.547 539.457 168.227 539.877 168C540.297 167.767 540.771 167.65 541.297 167.65C541.824 167.65 542.294 167.767 542.707 168C543.127 168.227 543.454 168.547 543.687 168.96C543.927 169.367 544.047 169.83 544.047 170.35C544.047 170.87 543.927 171.337 543.687 171.75C543.454 172.157 543.127 172.477 542.707 172.71C542.294 172.943 541.824 173.06 541.297 173.06ZM541.297 172.22C541.637 172.22 541.941 172.143 542.207 171.99C542.481 171.83 542.694 171.61 542.847 171.33C543.001 171.043 543.077 170.717 543.077 170.35C543.077 169.983 543.001 169.66 542.847 169.38C542.694 169.093 542.481 168.873 542.207 168.72C541.941 168.567 541.637 168.49 541.297 168.49C540.957 168.49 540.651 168.567 540.377 168.72C540.111 168.873 539.897 169.093 539.737 169.38C539.584 169.66 539.507 169.983 539.507 170.35C539.507 170.717 539.584 171.043 539.737 171.33C539.897 171.61 540.111 171.83 540.377 171.99C540.651 172.143 540.957 172.22 541.297 172.22Z" fill="#235347"/>
<path d="M552.123 170.34C552.123 171.16 551.85 171.807 551.303 172.28C550.757 172.753 549.987 173.017 548.993 173.07V174.94H548.053V173.07C547.06 173.017 546.29 172.757 545.743 172.29C545.203 171.817 544.933 171.167 544.933 170.34C544.933 169.52 545.203 168.88 545.743 168.42C546.283 167.96 547.053 167.703 548.053 167.65V165.58H548.993V167.65C549.987 167.703 550.757 167.963 551.303 168.43C551.85 168.89 552.123 169.527 552.123 170.34ZM545.883 170.34C545.883 170.907 546.063 171.35 546.423 171.67C546.79 171.99 547.333 172.173 548.053 172.22V168.5C547.327 168.547 546.783 168.727 546.423 169.04C546.063 169.353 545.883 169.787 545.883 170.34ZM548.993 172.23C550.447 172.117 551.173 171.487 551.173 170.34C551.173 169.78 550.99 169.347 550.623 169.04C550.257 168.727 549.713 168.547 548.993 168.5V172.23Z" fill="#235347"/>
<path d="M558.27 170.38C558.27 170.453 558.264 170.55 558.25 170.67H553.95C554.01 171.137 554.214 171.513 554.56 171.8C554.914 172.08 555.35 172.22 555.87 172.22C556.504 172.22 557.014 172.007 557.4 171.58L557.93 172.2C557.69 172.48 557.39 172.693 557.03 172.84C556.677 172.987 556.28 173.06 555.84 173.06C555.28 173.06 554.784 172.947 554.35 172.72C553.917 172.487 553.58 172.163 553.34 171.75C553.107 171.337 552.99 170.87 552.99 170.35C552.99 169.837 553.104 169.373 553.33 168.96C553.564 168.547 553.88 168.227 554.28 168C554.687 167.767 555.144 167.65 555.65 167.65C556.157 167.65 556.607 167.767 557 168C557.4 168.227 557.71 168.547 557.93 168.96C558.157 169.373 558.27 169.847 558.27 170.38ZM555.65 168.46C555.19 168.46 554.804 168.6 554.49 168.88C554.184 169.16 554.004 169.527 553.95 169.98H557.35C557.297 169.533 557.114 169.17 556.8 168.89C556.494 168.603 556.11 168.46 555.65 168.46Z" fill="#235347"/>
<path d="M562.07 173.06C561.53 173.06 561.046 172.943 560.62 172.71C560.2 172.477 559.87 172.157 559.63 171.75C559.39 171.337 559.27 170.87 559.27 170.35C559.27 169.83 559.39 169.367 559.63 168.96C559.87 168.547 560.2 168.227 560.62 168C561.046 167.767 561.53 167.65 562.07 167.65C562.55 167.65 562.976 167.747 563.35 167.94C563.73 168.133 564.023 168.413 564.23 168.78L563.5 169.25C563.333 168.997 563.126 168.807 562.88 168.68C562.633 168.553 562.36 168.49 562.06 168.49C561.713 168.49 561.4 168.567 561.12 168.72C560.846 168.873 560.63 169.093 560.47 169.38C560.316 169.66 560.24 169.983 560.24 170.35C560.24 170.723 560.316 171.053 560.47 171.34C560.63 171.62 560.846 171.837 561.12 171.99C561.4 172.143 561.713 172.22 562.06 172.22C562.36 172.22 562.633 172.157 562.88 172.03C563.126 171.903 563.333 171.713 563.5 171.46L564.23 171.92C564.023 172.287 563.73 172.57 563.35 172.77C562.976 172.963 562.55 173.06 562.07 173.06Z" fill="#235347"/>
<path d="M567.704 173.06C567.164 173.06 566.681 172.943 566.254 172.71C565.834 172.477 565.504 172.157 565.264 171.75C565.024 171.337 564.904 170.87 564.904 170.35C564.904 169.83 565.024 169.367 565.264 168.96C565.504 168.547 565.834 168.227 566.254 168C566.681 167.767 567.164 167.65 567.704 167.65C568.184 167.65 568.611 167.747 568.984 167.94C569.364 168.133 569.658 168.413 569.864 168.78L569.134 169.25C568.968 168.997 568.761 168.807 568.514 168.68C568.268 168.553 567.994 168.49 567.694 168.49C567.348 168.49 567.034 168.567 566.754 168.72C566.481 168.873 566.264 169.093 566.104 169.38C565.951 169.66 565.874 169.983 565.874 170.35C565.874 170.723 565.951 171.053 566.104 171.34C566.264 171.62 566.481 171.837 566.754 171.99C567.034 172.143 567.348 172.22 567.694 172.22C567.994 172.22 568.268 172.157 568.514 172.03C568.761 171.903 568.968 171.713 569.134 171.46L569.864 171.92C569.658 172.287 569.364 172.57 568.984 172.77C568.611 172.963 568.184 173.06 567.704 173.06Z" fill="#235347"/>
<path d="M571.107 167.7H572.067V171.56L575.317 167.7H576.187V173H575.227V169.14L571.987 173H571.107V167.7Z" fill="#235347"/>
<path d="M580.321 173.06C579.794 173.06 579.321 172.943 578.901 172.71C578.481 172.477 578.151 172.157 577.911 171.75C577.677 171.337 577.561 170.87 577.561 170.35C577.561 169.83 577.677 169.367 577.911 168.96C578.151 168.547 578.481 168.227 578.901 168C579.321 167.767 579.794 167.65 580.321 167.65C580.847 167.65 581.317 167.767 581.731 168C582.151 168.227 582.477 168.547 582.711 168.96C582.951 169.367 583.071 169.83 583.071 170.35C583.071 170.87 582.951 171.337 582.711 171.75C582.477 172.157 582.151 172.477 581.731 172.71C581.317 172.943 580.847 173.06 580.321 173.06ZM580.321 172.22C580.661 172.22 580.964 172.143 581.231 171.99C581.504 171.83 581.717 171.61 581.871 171.33C582.024 171.043 582.101 170.717 582.101 170.35C582.101 169.983 582.024 169.66 581.871 169.38C581.717 169.093 581.504 168.873 581.231 168.72C580.964 168.567 580.661 168.49 580.321 168.49C579.981 168.49 579.674 168.567 579.401 168.72C579.134 168.873 578.921 169.093 578.761 169.38C578.607 169.66 578.531 169.983 578.531 170.35C578.531 170.717 578.607 171.043 578.761 171.33C578.921 171.61 579.134 171.83 579.401 171.99C579.674 172.143 579.981 172.22 580.321 172.22Z" fill="#235347"/>
<path d="M584.457 167.7H585.417V169.95H588.437V167.7H589.397V173H588.437V170.78H585.417V173H584.457V167.7Z" fill="#235347"/>
<path d="M593.154 167.65C593.887 167.65 594.447 167.83 594.834 168.19C595.227 168.55 595.424 169.087 595.424 169.8V173H594.514V172.3C594.354 172.547 594.124 172.737 593.824 172.87C593.53 172.997 593.18 173.06 592.774 173.06C592.18 173.06 591.704 172.917 591.344 172.63C590.99 172.343 590.814 171.967 590.814 171.5C590.814 171.033 590.984 170.66 591.324 170.38C591.664 170.093 592.204 169.95 592.944 169.95H594.464V169.76C594.464 169.347 594.344 169.03 594.104 168.81C593.864 168.59 593.51 168.48 593.044 168.48C592.73 168.48 592.424 168.533 592.124 168.64C591.824 168.74 591.57 168.877 591.364 169.05L590.964 168.33C591.237 168.11 591.564 167.943 591.944 167.83C592.324 167.71 592.727 167.65 593.154 167.65ZM592.934 172.32C593.3 172.32 593.617 172.24 593.884 172.08C594.15 171.913 594.344 171.68 594.464 171.38V170.64H592.984C592.17 170.64 591.764 170.913 591.764 171.46C591.764 171.727 591.867 171.937 592.074 172.09C592.28 172.243 592.567 172.32 592.934 172.32Z" fill="#235347"/>
<path d="M601.702 167.7V173H600.742V168.54H598.462L598.402 169.72C598.369 170.433 598.306 171.03 598.212 171.51C598.119 171.983 597.966 172.363 597.752 172.65C597.539 172.937 597.242 173.08 596.862 173.08C596.689 173.08 596.492 173.05 596.272 172.99L596.332 172.18C596.419 172.2 596.499 172.21 596.572 172.21C596.839 172.21 597.039 172.093 597.172 171.86C597.306 171.627 597.392 171.35 597.432 171.03C597.472 170.71 597.509 170.253 597.542 169.66L597.632 167.7H601.702Z" fill="#235347"/>
<path d="M606.008 169.5C606.682 169.507 607.195 169.66 607.548 169.96C607.902 170.26 608.078 170.683 608.078 171.23C608.078 171.803 607.885 172.247 607.498 172.56C607.118 172.867 606.572 173.017 605.858 173.01L603.558 173V167.7H604.518V169.49L606.008 169.5ZM605.778 172.28C606.212 172.287 606.538 172.2 606.758 172.02C606.985 171.84 607.098 171.573 607.098 171.22C607.098 170.873 606.988 170.62 606.768 170.46C606.555 170.3 606.225 170.217 605.778 170.21L604.518 170.19V172.27L605.778 172.28Z" fill="#235347"/>
<path d="M609.31 167.7H610.27V169.95H613.29V167.7H614.25V173H613.29V170.78H610.27V173H609.31V167.7Z" fill="#235347"/>
<path d="M618.387 173.06C617.86 173.06 617.387 172.943 616.967 172.71C616.547 172.477 616.217 172.157 615.977 171.75C615.744 171.337 615.627 170.87 615.627 170.35C615.627 169.83 615.744 169.367 615.977 168.96C616.217 168.547 616.547 168.227 616.967 168C617.387 167.767 617.86 167.65 618.387 167.65C618.914 167.65 619.384 167.767 619.797 168C620.217 168.227 620.544 168.547 620.777 168.96C621.017 169.367 621.137 169.83 621.137 170.35C621.137 170.87 621.017 171.337 620.777 171.75C620.544 172.157 620.217 172.477 619.797 172.71C619.384 172.943 618.914 173.06 618.387 173.06ZM618.387 172.22C618.727 172.22 619.03 172.143 619.297 171.99C619.57 171.83 619.784 171.61 619.937 171.33C620.09 171.043 620.167 170.717 620.167 170.35C620.167 169.983 620.09 169.66 619.937 169.38C619.784 169.093 619.57 168.873 619.297 168.72C619.03 168.567 618.727 168.49 618.387 168.49C618.047 168.49 617.74 168.567 617.467 168.72C617.2 168.873 616.987 169.093 616.827 169.38C616.674 169.66 616.597 169.983 616.597 170.35C616.597 170.717 616.674 171.043 616.827 171.33C616.987 171.61 617.2 171.83 617.467 171.99C617.74 172.143 618.047 172.22 618.387 172.22Z" fill="#235347"/>
<path d="M627.313 170.38C627.313 170.453 627.307 170.55 627.293 170.67H622.993C623.053 171.137 623.257 171.513 623.603 171.8C623.957 172.08 624.393 172.22 624.913 172.22C625.547 172.22 626.057 172.007 626.443 171.58L626.973 172.2C626.733 172.48 626.433 172.693 626.073 172.84C625.72 172.987 625.323 173.06 624.883 173.06C624.323 173.06 623.827 172.947 623.393 172.72C622.96 172.487 622.623 172.163 622.383 171.75C622.15 171.337 622.033 170.87 622.033 170.35C622.033 169.837 622.147 169.373 622.373 168.96C622.607 168.547 622.923 168.227 623.323 168C623.73 167.767 624.187 167.65 624.693 167.65C625.2 167.65 625.65 167.767 626.043 168C626.443 168.227 626.753 168.547 626.973 168.96C627.2 169.373 627.313 169.847 627.313 170.38ZM624.693 168.46C624.233 168.46 623.847 168.6 623.533 168.88C623.227 169.16 623.047 169.527 622.993 169.98H626.393C626.34 169.533 626.157 169.17 625.843 168.89C625.537 168.603 625.153 168.46 624.693 168.46Z" fill="#235347"/>
<path d="M527.22 190.08C526.52 190.08 525.886 189.927 525.32 189.62C524.76 189.307 524.32 188.88 524 188.34C523.68 187.793 523.52 187.18 523.52 186.5C523.52 185.82 523.68 185.21 524 184.67C524.32 184.123 524.763 183.697 525.33 183.39C525.896 183.077 526.53 182.92 527.23 182.92C527.776 182.92 528.276 183.013 528.73 183.2C529.183 183.38 529.57 183.65 529.89 184.01L529.24 184.64C528.713 184.087 528.056 183.81 527.27 183.81C526.75 183.81 526.28 183.927 525.86 184.16C525.44 184.393 525.11 184.717 524.87 185.13C524.636 185.537 524.52 185.993 524.52 186.5C524.52 187.007 524.636 187.467 524.87 187.88C525.11 188.287 525.44 188.607 525.86 188.84C526.28 189.073 526.75 189.19 527.27 189.19C528.05 189.19 528.706 188.91 529.24 188.35L529.89 188.98C529.57 189.34 529.18 189.613 528.72 189.8C528.266 189.987 527.766 190.08 527.22 190.08Z" fill="#235347"/>
<path d="M533.153 190.06C532.626 190.06 532.153 189.943 531.733 189.71C531.313 189.477 530.983 189.157 530.743 188.75C530.509 188.337 530.393 187.87 530.393 187.35C530.393 186.83 530.509 186.367 530.743 185.96C530.983 185.547 531.313 185.227 531.733 185C532.153 184.767 532.626 184.65 533.153 184.65C533.679 184.65 534.149 184.767 534.563 185C534.983 185.227 535.309 185.547 535.543 185.96C535.783 186.367 535.903 186.83 535.903 187.35C535.903 187.87 535.783 188.337 535.543 188.75C535.309 189.157 534.983 189.477 534.563 189.71C534.149 189.943 533.679 190.06 533.153 190.06ZM533.153 189.22C533.493 189.22 533.796 189.143 534.063 188.99C534.336 188.83 534.549 188.61 534.703 188.33C534.856 188.043 534.933 187.717 534.933 187.35C534.933 186.983 534.856 186.66 534.703 186.38C534.549 186.093 534.336 185.873 534.063 185.72C533.796 185.567 533.493 185.49 533.153 185.49C532.813 185.49 532.506 185.567 532.233 185.72C531.966 185.873 531.753 186.093 531.593 186.38C531.439 186.66 531.363 186.983 531.363 187.35C531.363 187.717 531.439 188.043 531.593 188.33C531.753 188.61 531.966 188.83 532.233 188.99C532.506 189.143 532.813 189.22 533.153 189.22Z" fill="#235347"/>
<path d="M539.559 190.06C539.032 190.06 538.559 189.943 538.139 189.71C537.719 189.477 537.389 189.157 537.149 188.75C536.916 188.337 536.799 187.87 536.799 187.35C536.799 186.83 536.916 186.367 537.149 185.96C537.389 185.547 537.719 185.227 538.139 185C538.559 184.767 539.032 184.65 539.559 184.65C540.086 184.65 540.556 184.767 540.969 185C541.389 185.227 541.716 185.547 541.949 185.96C542.189 186.367 542.309 186.83 542.309 187.35C542.309 187.87 542.189 188.337 541.949 188.75C541.716 189.157 541.389 189.477 540.969 189.71C540.556 189.943 540.086 190.06 539.559 190.06ZM539.559 189.22C539.899 189.22 540.202 189.143 540.469 188.99C540.742 188.83 540.956 188.61 541.109 188.33C541.262 188.043 541.339 187.717 541.339 187.35C541.339 186.983 541.262 186.66 541.109 186.38C540.956 186.093 540.742 185.873 540.469 185.72C540.202 185.567 539.899 185.49 539.559 185.49C539.219 185.49 538.912 185.567 538.639 185.72C538.372 185.873 538.159 186.093 537.999 186.38C537.846 186.66 537.769 186.983 537.769 187.35C537.769 187.717 537.846 188.043 537.999 188.33C538.159 188.61 538.372 188.83 538.639 188.99C538.912 189.143 539.219 189.22 539.559 189.22Z" fill="#235347"/>
<path d="M546.395 184.88C546.888 184.88 547.328 184.99 547.715 185.21C548.102 185.43 548.402 185.737 548.615 186.13C548.835 186.517 548.945 186.96 548.945 187.46C548.945 187.973 548.828 188.43 548.595 188.83C548.368 189.223 548.045 189.53 547.625 189.75C547.212 189.97 546.738 190.08 546.205 190.08C545.305 190.08 544.608 189.773 544.115 189.16C543.628 188.54 543.385 187.67 543.385 186.55C543.385 185.463 543.608 184.613 544.055 184C544.502 183.38 545.185 182.97 546.105 182.77L548.525 182.23L548.665 183.11L546.435 183.59C545.742 183.743 545.225 184.003 544.885 184.37C544.545 184.737 544.352 185.263 544.305 185.95C544.532 185.61 544.825 185.347 545.185 185.16C545.545 184.973 545.948 184.88 546.395 184.88ZM546.225 189.28C546.565 189.28 546.865 189.203 547.125 189.05C547.392 188.897 547.598 188.687 547.745 188.42C547.892 188.147 547.965 187.837 547.965 187.49C547.965 186.963 547.805 186.54 547.485 186.22C547.165 185.9 546.745 185.74 546.225 185.74C545.705 185.74 545.282 185.9 544.955 186.22C544.635 186.54 544.475 186.963 544.475 187.49C544.475 187.837 544.548 188.147 544.695 188.42C544.848 188.687 545.058 188.897 545.325 189.05C545.592 189.203 545.892 189.28 546.225 189.28Z" fill="#235347"/>
<path d="M557.866 184.7V190H550.316V184.7H551.276V189.16H553.616V184.7H554.576V189.16H556.906V184.7H557.866ZM558.656 189.16V191.13H557.756V190H556.866V189.16H558.656Z" fill="#235347"/>
<path d="M564.52 187.38C564.52 187.453 564.514 187.55 564.5 187.67H560.2C560.26 188.137 560.464 188.513 560.81 188.8C561.164 189.08 561.6 189.22 562.12 189.22C562.754 189.22 563.264 189.007 563.65 188.58L564.18 189.2C563.94 189.48 563.64 189.693 563.28 189.84C562.927 189.987 562.53 190.06 562.09 190.06C561.53 190.06 561.034 189.947 560.6 189.72C560.167 189.487 559.83 189.163 559.59 188.75C559.357 188.337 559.24 187.87 559.24 187.35C559.24 186.837 559.354 186.373 559.58 185.96C559.814 185.547 560.13 185.227 560.53 185C560.937 184.767 561.394 184.65 561.9 184.65C562.407 184.65 562.857 184.767 563.25 185C563.65 185.227 563.96 185.547 564.18 185.96C564.407 186.373 564.52 186.847 564.52 187.38ZM561.9 185.46C561.44 185.46 561.054 185.6 560.74 185.88C560.434 186.16 560.254 186.527 560.2 186.98H563.6C563.547 186.533 563.364 186.17 563.05 185.89C562.744 185.603 562.36 185.46 561.9 185.46Z" fill="#235347"/>
<path d="M568.32 190.06C567.78 190.06 567.296 189.943 566.87 189.71C566.45 189.477 566.12 189.157 565.88 188.75C565.64 188.337 565.52 187.87 565.52 187.35C565.52 186.83 565.64 186.367 565.88 185.96C566.12 185.547 566.45 185.227 566.87 185C567.296 184.767 567.78 184.65 568.32 184.65C568.8 184.65 569.226 184.747 569.6 184.94C569.98 185.133 570.273 185.413 570.48 185.78L569.75 186.25C569.583 185.997 569.376 185.807 569.13 185.68C568.883 185.553 568.61 185.49 568.31 185.49C567.963 185.49 567.65 185.567 567.37 185.72C567.096 185.873 566.88 186.093 566.72 186.38C566.566 186.66 566.49 186.983 566.49 187.35C566.49 187.723 566.566 188.053 566.72 188.34C566.88 188.62 567.096 188.837 567.37 188.99C567.65 189.143 567.963 189.22 568.31 189.22C568.61 189.22 568.883 189.157 569.13 189.03C569.376 188.903 569.583 188.713 569.75 188.46L570.48 188.92C570.273 189.287 569.98 189.57 569.6 189.77C569.226 189.963 568.8 190.06 568.32 190.06Z" fill="#235347"/>
<path d="M575.604 185.54H573.664V190H572.704V185.54H570.764V184.7H575.604V185.54Z" fill="#235347"/>
<path d="M580.196 187.25C580.882 187.423 581.226 187.853 581.226 188.54C581.226 189.007 581.049 189.367 580.696 189.62C580.349 189.873 579.829 190 579.136 190H576.586V184.7H579.046C579.672 184.7 580.162 184.82 580.516 185.06C580.869 185.293 581.046 185.627 581.046 186.06C581.046 186.34 580.969 186.583 580.816 186.79C580.669 186.99 580.462 187.143 580.196 187.25ZM577.526 186.98H578.966C579.332 186.98 579.609 186.913 579.796 186.78C579.989 186.647 580.086 186.453 580.086 186.2C580.086 185.693 579.712 185.44 578.966 185.44H577.526V186.98ZM579.066 189.26C579.466 189.26 579.766 189.197 579.966 189.07C580.166 188.943 580.266 188.747 580.266 188.48C580.266 188.207 580.172 188.003 579.986 187.87C579.806 187.737 579.519 187.67 579.126 187.67H577.526V189.26H579.066Z" fill="#235347"/>
<path d="M584.998 190.06C584.472 190.06 583.998 189.943 583.578 189.71C583.158 189.477 582.828 189.157 582.588 188.75C582.355 188.337 582.238 187.87 582.238 187.35C582.238 186.83 582.355 186.367 582.588 185.96C582.828 185.547 583.158 185.227 583.578 185C583.998 184.767 584.472 184.65 584.998 184.65C585.525 184.65 585.995 184.767 586.408 185C586.828 185.227 587.155 185.547 587.388 185.96C587.628 186.367 587.748 186.83 587.748 187.35C587.748 187.87 587.628 188.337 587.388 188.75C587.155 189.157 586.828 189.477 586.408 189.71C585.995 189.943 585.525 190.06 584.998 190.06ZM584.998 189.22C585.338 189.22 585.642 189.143 585.908 188.99C586.182 188.83 586.395 188.61 586.548 188.33C586.702 188.043 586.778 187.717 586.778 187.35C586.778 186.983 586.702 186.66 586.548 186.38C586.395 186.093 586.182 185.873 585.908 185.72C585.642 185.567 585.338 185.49 584.998 185.49C584.658 185.49 584.352 185.567 584.078 185.72C583.812 185.873 583.598 186.093 583.438 186.38C583.285 186.66 583.208 186.983 583.208 187.35C583.208 187.717 583.285 188.043 583.438 188.33C583.598 188.61 583.812 188.83 584.078 188.99C584.352 189.143 584.658 189.22 584.998 189.22Z" fill="#235347"/>
<g opacity="0.75">
<mask id="path-37-inside-2_2070_2164" fill="white">
<path d="M128.632 135C143.95 135 156.368 147.419 156.368 162.737C156.368 178.056 143.95 190.473 128.632 190.474H125.947V203C125.922 202.969 121.065 196.841 117 194.053C114.941 192.64 112.107 191.415 109.537 190.474H59.7373C44.4188 190.474 32.0003 178.056 32 162.737C32 147.419 44.4187 135 59.7373 135H128.632Z"/>
</mask>
<path d="M128.632 135L128.632 134.105H128.632V135ZM156.368 162.737L157.263 162.737V162.737H156.368ZM128.632 190.474V191.368H128.632L128.632 190.474ZM125.947 190.474V189.579H125.053V190.474H125.947ZM125.947 203L125.246 203.556L126.842 205.57V203H125.947ZM117 194.053L117.506 193.315V193.315L117 194.053ZM109.537 190.474L109.845 189.633L109.696 189.579H109.537V190.474ZM32 162.737H31.1053V162.737L32 162.737ZM128.632 135L128.632 135.895C143.456 135.895 155.473 147.913 155.473 162.737H156.368H157.263C157.263 146.925 144.445 134.105 128.632 134.105L128.632 135ZM156.368 162.737L155.473 162.737C155.473 177.561 143.456 189.579 128.632 189.579L128.632 190.474L128.632 191.368C144.444 191.368 157.263 178.55 157.263 162.737L156.368 162.737ZM128.632 190.474V189.579H125.947V190.474V191.368H128.632V190.474ZM125.947 190.474H125.053V203H125.947H126.842V190.474H125.947ZM125.947 203L126.649 202.444C126.629 202.42 125.394 200.862 123.648 198.956C121.915 197.063 119.627 194.77 117.506 193.315L117 194.053L116.494 194.791C118.437 196.124 120.611 198.289 122.329 200.164C124.034 202.027 125.241 203.549 125.246 203.556L125.947 203ZM117 194.053L117.506 193.315C115.352 191.838 112.433 190.582 109.845 189.633L109.537 190.474L109.229 191.314C111.781 192.248 114.53 193.443 116.494 194.791L117 194.053ZM109.537 190.474V189.579H59.7373V190.474V191.368H109.537V190.474ZM59.7373 190.474V189.579C44.913 189.579 32.895 177.562 32.8947 162.737L32 162.737L31.1053 162.737C31.1055 178.55 43.9247 191.368 59.7373 191.368V190.474ZM32 162.737H32.8947C32.8947 147.913 44.9128 135.895 59.7373 135.895V135V134.105C43.9245 134.105 31.1053 146.925 31.1053 162.737H32ZM59.7373 135V135.895H128.632V135V134.105H59.7373V135Z" fill="#235347" mask="url(#path-37-inside-2_2070_2164)"/>
</g>
<path d="M53.833 153.867C55.8498 153.634 58.4486 154.692 60.5029 157.345L60.8721 157.821L61.2207 157.33C63.1092 154.675 65.4803 153.64 67.2959 153.869C68.1992 153.983 68.9827 154.408 69.5449 155.124C70.1094 155.843 70.4736 156.885 70.4736 158.264C70.4736 161.058 69.4299 163.181 67.6602 165.382C66.7705 166.488 65.7026 167.608 64.4941 168.842C63.3785 169.981 62.1463 171.218 60.8428 172.613C59.4183 171.213 58.0717 169.971 56.8525 168.828C55.5363 167.594 54.3727 166.474 53.4033 165.367C51.4732 163.163 50.3418 161.044 50.3418 158.262C50.3419 156.892 50.735 155.856 51.3496 155.137C51.9642 154.418 52.8283 153.983 53.833 153.867Z" stroke="#235347" stroke-width="0.894737"/>
<path d="M90.265 152.895V159.158H89.3881V153.673H85.7555V159.158H84.8697V152.895H90.265Z" fill="#235347"/>
<path d="M94.106 159.211C93.6348 159.211 93.2113 159.107 92.8355 158.898C92.4597 158.689 92.1644 158.403 91.9497 158.039C91.7409 157.669 91.6365 157.252 91.6365 156.787C91.6365 156.321 91.7409 155.907 91.9497 155.543C92.1644 155.173 92.4597 154.887 92.8355 154.684C93.2113 154.475 93.6348 154.371 94.106 154.371C94.5772 154.371 94.9977 154.475 95.3676 154.684C95.7434 154.887 96.0356 155.173 96.2444 155.543C96.4591 155.907 96.5665 156.321 96.5665 156.787C96.5665 157.252 96.4591 157.669 96.2444 158.039C96.0356 158.403 95.7434 158.689 95.3676 158.898C94.9977 159.107 94.5772 159.211 94.106 159.211ZM94.106 158.46C94.4102 158.46 94.6816 158.391 94.9202 158.254C95.1648 158.111 95.3556 157.914 95.4928 157.663C95.63 157.407 95.6986 157.115 95.6986 156.787C95.6986 156.459 95.63 156.169 95.4928 155.919C95.3556 155.662 95.1648 155.465 94.9202 155.328C94.6816 155.191 94.4102 155.122 94.106 155.122C93.8018 155.122 93.5274 155.191 93.2828 155.328C93.0442 155.465 92.8534 155.662 92.7102 155.919C92.573 156.169 92.5044 156.459 92.5044 156.787C92.5044 157.115 92.573 157.407 92.7102 157.663C92.8534 157.914 93.0442 158.111 93.2828 158.254C93.5274 158.391 93.8018 158.46 94.106 158.46Z" fill="#235347"/>
<path d="M102.595 158.406V160.258H101.789V159.158H97.8256V160.258H97.0114V158.406H97.2619C97.5661 158.388 97.7749 158.173 97.8882 157.762C98.0015 157.35 98.0791 156.769 98.1208 156.017L98.1924 154.416H101.87V158.406H102.595ZM98.9082 156.08C98.8844 156.676 98.8336 157.171 98.7561 157.565C98.6845 157.953 98.5503 158.233 98.3535 158.406H101.011V155.167H98.9529L98.9082 156.08Z" fill="#235347"/>
<path d="M108.536 158.406V160.258H107.731V159.158H103.767V160.258H102.953V158.406H103.204C103.508 158.388 103.716 158.173 103.83 157.762C103.943 157.35 104.021 156.769 104.062 156.017L104.134 154.416H107.811V158.406H108.536ZM104.85 156.08C104.826 156.676 104.775 157.171 104.698 157.565C104.626 157.953 104.492 158.233 104.295 158.406H106.952V155.167H104.895L104.85 156.08Z" fill="#235347"/>
<path d="M113.941 156.813C113.941 156.879 113.935 156.966 113.923 157.073H110.076C110.129 157.49 110.311 157.828 110.621 158.084C110.938 158.335 111.328 158.46 111.794 158.46C112.36 158.46 112.817 158.269 113.162 157.887L113.637 158.442C113.422 158.692 113.154 158.883 112.831 159.015C112.515 159.146 112.16 159.211 111.767 159.211C111.266 159.211 110.821 159.11 110.434 158.907C110.046 158.698 109.745 158.409 109.53 158.039C109.321 157.669 109.217 157.252 109.217 156.787C109.217 156.327 109.318 155.913 109.521 155.543C109.73 155.173 110.013 154.887 110.371 154.684C110.735 154.475 111.143 154.371 111.597 154.371C112.05 154.371 112.453 154.475 112.805 154.684C113.162 154.887 113.44 155.173 113.637 155.543C113.84 155.913 113.941 156.336 113.941 156.813ZM111.597 155.096C111.185 155.096 110.839 155.221 110.559 155.471C110.284 155.722 110.123 156.05 110.076 156.456H113.118C113.07 156.056 112.906 155.731 112.626 155.48C112.351 155.224 112.008 155.096 111.597 155.096Z" fill="#235347"/>
<path d="M117.788 154.371C118.247 154.371 118.659 154.472 119.022 154.675C119.386 154.878 119.67 155.161 119.872 155.525C120.081 155.889 120.186 156.309 120.186 156.787C120.186 157.264 120.081 157.687 119.872 158.057C119.67 158.421 119.386 158.704 119.022 158.907C118.659 159.11 118.247 159.211 117.788 159.211C117.448 159.211 117.134 159.146 116.848 159.015C116.568 158.883 116.329 158.692 116.132 158.442V160.893H115.273V154.416H116.097V155.167C116.287 154.905 116.529 154.708 116.821 154.577C117.114 154.439 117.436 154.371 117.788 154.371ZM117.716 158.46C118.02 158.46 118.292 158.391 118.53 158.254C118.775 158.111 118.966 157.914 119.103 157.663C119.246 157.407 119.318 157.115 119.318 156.787C119.318 156.459 119.246 156.169 119.103 155.919C118.966 155.662 118.775 155.465 118.53 155.328C118.292 155.191 118.02 155.122 117.716 155.122C117.418 155.122 117.146 155.194 116.902 155.337C116.663 155.474 116.472 155.668 116.329 155.919C116.192 156.169 116.123 156.459 116.123 156.787C116.123 157.115 116.192 157.407 116.329 157.663C116.466 157.914 116.657 158.111 116.902 158.254C117.146 158.391 117.418 158.46 117.716 158.46Z" fill="#235347"/>
<path d="M125.589 157.153H124.667V159.158H123.808V157.153H122.887L121.58 159.158H120.56L122.189 156.706L120.686 154.416H121.598L122.878 156.42H123.808V154.416H124.667V156.42H125.598L126.877 154.416H127.799L126.296 156.715L127.924 159.158H126.904L125.589 157.153Z" fill="#235347"/>
<path d="M130.712 157.153H129.728V159.158H128.869V154.416H129.728V156.42H130.73L132.269 154.416H133.191L131.392 156.697L133.316 159.158H132.305L130.712 157.153Z" fill="#235347"/>
<path d="M135.82 154.371C136.477 154.371 136.978 154.532 137.324 154.854C137.675 155.176 137.851 155.656 137.851 156.295V159.158H137.037V158.531C136.894 158.752 136.688 158.922 136.42 159.041C136.157 159.155 135.844 159.211 135.48 159.211C134.949 159.211 134.523 159.083 134.201 158.827C133.885 158.57 133.727 158.233 133.727 157.816C133.727 157.398 133.879 157.064 134.183 156.813C134.487 156.557 134.97 156.429 135.632 156.429H136.992V156.259C136.992 155.889 136.885 155.606 136.67 155.409C136.456 155.212 136.139 155.113 135.722 155.113C135.442 155.113 135.167 155.161 134.899 155.257C134.63 155.346 134.404 155.468 134.219 155.623L133.861 154.979C134.105 154.782 134.398 154.633 134.738 154.532C135.078 154.425 135.439 154.371 135.82 154.371ZM135.624 158.549C135.952 158.549 136.235 158.478 136.474 158.335C136.712 158.185 136.885 157.977 136.992 157.708V157.046H135.668C134.941 157.046 134.577 157.291 134.577 157.78C134.577 158.018 134.669 158.206 134.854 158.343C135.039 158.481 135.295 158.549 135.624 158.549Z" fill="#235347"/>
<path d="M84.7266 169.626H85.5855V173.08L88.4934 169.626H89.2718V174.368H88.4129V170.915L85.5139 174.368H84.7266V169.626Z" fill="#235347"/>
<path d="M97.574 169.626L95.2745 174.842C95.0717 175.326 94.8331 175.666 94.5587 175.862C94.2903 176.059 93.9652 176.158 93.5835 176.158C93.3508 176.158 93.1242 176.119 92.9035 176.041C92.6887 175.97 92.5098 175.862 92.3666 175.719L92.7335 175.075C92.978 175.308 93.2614 175.424 93.5835 175.424C93.7923 175.424 93.9652 175.367 94.1024 175.254C94.2456 175.147 94.3738 174.959 94.4872 174.69L94.6393 174.359L92.5456 169.626H93.4403L95.0956 173.42L96.733 169.626H97.574Z" fill="#235347"/>
<path d="M101.683 171.908C102.298 172.063 102.605 172.448 102.605 173.062C102.605 173.479 102.447 173.802 102.131 174.028C101.821 174.255 101.355 174.368 100.735 174.368H98.4534V169.626H100.654C101.215 169.626 101.654 169.733 101.97 169.948C102.286 170.157 102.444 170.455 102.444 170.843C102.444 171.093 102.375 171.311 102.238 171.496C102.107 171.675 101.922 171.812 101.683 171.908ZM99.2945 171.666H100.583C100.911 171.666 101.159 171.606 101.326 171.487C101.499 171.368 101.585 171.195 101.585 170.968C101.585 170.515 101.251 170.288 100.583 170.288H99.2945V171.666ZM100.672 173.706C101.03 173.706 101.299 173.649 101.478 173.536C101.657 173.423 101.746 173.247 101.746 173.008C101.746 172.764 101.663 172.582 101.496 172.462C101.334 172.343 101.078 172.283 100.726 172.283H99.2945V173.706H100.672Z" fill="#235347"/>
<path d="M105.64 169.581C106.297 169.581 106.798 169.742 107.144 170.065C107.496 170.387 107.672 170.867 107.672 171.505V174.368H106.857V173.742C106.714 173.963 106.508 174.133 106.24 174.252C105.977 174.365 105.664 174.422 105.3 174.422C104.77 174.422 104.343 174.294 104.021 174.037C103.705 173.781 103.547 173.444 103.547 173.026C103.547 172.609 103.699 172.275 104.003 172.024C104.307 171.768 104.79 171.639 105.453 171.639H106.813V171.469C106.813 171.099 106.705 170.816 106.49 170.619C106.276 170.422 105.96 170.324 105.542 170.324C105.262 170.324 104.987 170.372 104.719 170.467C104.45 170.557 104.224 170.679 104.039 170.834L103.681 170.19C103.926 169.993 104.218 169.844 104.558 169.742C104.898 169.635 105.259 169.581 105.64 169.581ZM105.444 173.76C105.772 173.76 106.055 173.688 106.294 173.545C106.532 173.396 106.705 173.187 106.813 172.919V172.257H105.488C104.761 172.257 104.397 172.501 104.397 172.99C104.397 173.229 104.489 173.417 104.674 173.554C104.859 173.691 105.116 173.76 105.444 173.76Z" fill="#235347"/>
<path d="M113.531 172.364H112.609V174.368H111.75V172.364H110.829L109.522 174.368H108.502L110.131 171.917L108.628 169.626H109.54L110.82 171.63H111.75V169.626H112.609V171.63H113.54L114.819 169.626H115.741L114.238 171.926L115.866 174.368H114.846L113.531 172.364Z" fill="#235347"/>
<path d="M120.94 172.024C120.94 172.09 120.934 172.176 120.922 172.283H117.075C117.128 172.701 117.31 173.038 117.62 173.295C117.936 173.545 118.327 173.67 118.792 173.67C119.359 173.67 119.815 173.479 120.161 173.098L120.636 173.652C120.421 173.903 120.152 174.094 119.83 174.225C119.514 174.356 119.159 174.422 118.766 174.422C118.265 174.422 117.82 174.32 117.432 174.118C117.045 173.909 116.743 173.62 116.529 173.25C116.32 172.88 116.216 172.462 116.216 171.997C116.216 171.538 116.317 171.123 116.52 170.753C116.729 170.384 117.012 170.097 117.37 169.895C117.734 169.686 118.142 169.581 118.596 169.581C119.049 169.581 119.452 169.686 119.803 169.895C120.161 170.097 120.439 170.384 120.636 170.753C120.838 171.123 120.94 171.547 120.94 172.024ZM118.596 170.306C118.184 170.306 117.838 170.431 117.558 170.682C117.283 170.932 117.122 171.26 117.075 171.666H120.117C120.069 171.266 119.905 170.941 119.625 170.691C119.35 170.434 119.007 170.306 118.596 170.306Z" fill="#235347"/>
<path d="M122.272 169.626H123.131V171.639H125.833V169.626H126.692V174.368H125.833V172.382H123.131V174.368H122.272V169.626Z" fill="#235347"/>
<path d="M128.362 169.626H129.221V173.08L132.129 169.626H132.908V174.368H132.049V170.915L129.15 174.368H128.362V169.626Z" fill="#235347"/>
<path d="M138.861 172.024C138.861 172.09 138.855 172.176 138.843 172.283H134.995C135.049 172.701 135.231 173.038 135.541 173.295C135.857 173.545 136.248 173.67 136.713 173.67C137.28 173.67 137.736 173.479 138.082 173.098L138.557 173.652C138.342 173.903 138.073 174.094 137.751 174.225C137.435 174.356 137.08 174.422 136.687 174.422C136.185 174.422 135.741 174.32 135.353 174.118C134.966 173.909 134.664 173.62 134.45 173.25C134.241 172.88 134.137 172.462 134.137 171.997C134.137 171.538 134.238 171.123 134.441 170.753C134.649 170.384 134.933 170.097 135.291 169.895C135.655 169.686 136.063 169.581 136.517 169.581C136.97 169.581 137.372 169.686 137.724 169.895C138.082 170.097 138.36 170.384 138.557 170.753C138.759 171.123 138.861 171.547 138.861 172.024ZM136.517 170.306C136.105 170.306 135.759 170.431 135.479 170.682C135.204 170.932 135.043 171.26 134.995 171.666H138.038C137.99 171.266 137.826 170.941 137.545 170.691C137.271 170.434 136.928 170.306 136.517 170.306Z" fill="#235347"/>
<g opacity="0.75">
<mask id="path-41-inside-3_2070_2164" fill="white">
<path d="M284 116C301.121 116 315 129.879 315 147C315 164.121 301.121 178 284 178H254.5V192C254.479 191.973 249.045 185.118 244.5 182C242.199 180.421 239.031 179.052 236.159 178H207C189.879 178 176 164.121 176 147C176 129.879 189.879 116 207 116H284Z"/>
</mask>
<path d="M254.5 178V177H253.5V178H254.5ZM254.5 192L253.716 192.621L255.5 194.872V192H254.5ZM244.5 182L243.934 182.825V182.825L244.5 182ZM236.159 178L236.503 177.061L236.337 177H236.159V178ZM284 116V117C300.569 117 314 130.431 314 147H315H316C316 129.327 301.673 115 284 115V116ZM315 147H314C314 163.569 300.569 177 284 177V178V179C301.673 179 316 164.673 316 147H315ZM284 178V177H254.5V178V179H284V178ZM254.5 178H253.5V192H254.5H255.5V178H254.5ZM254.5 192L255.284 191.379C255.265 191.355 253.885 189.615 251.934 187.484C249.996 185.367 247.438 182.802 245.066 181.175L244.5 182L243.934 182.825C246.108 184.316 248.539 186.737 250.459 188.834C252.366 190.917 253.713 192.617 253.716 192.621L254.5 192ZM244.5 182L245.066 181.175C242.659 179.524 239.395 178.121 236.503 177.061L236.159 178L235.815 178.939C238.667 179.984 241.739 181.319 243.934 182.825L244.5 182ZM236.159 178V177H207V178V179H236.159V178ZM207 178V177C190.431 177 177 163.569 177 147H176H175C175 164.673 189.327 179 207 179V178ZM176 147H177C177 130.431 190.431 117 207 117V116V115C189.327 115 175 129.327 175 147H176ZM207 116V117H284V116V115H207V116Z" fill="#235347" mask="url(#path-41-inside-3_2070_2164)"/>
</g>
<path d="M211.476 158.5C211.42 159.046 211.262 159.681 210.898 160.221C210.438 160.902 209.602 161.5 208.001 161.5C207.199 161.5 206.622 161.329 206.207 161.085C205.793 160.841 205.51 160.509 205.318 160.143C205.028 159.588 204.951 158.962 204.959 158.5H211.476ZM204.063 135.592C207.26 134.33 210.379 134.524 212.681 135.782C214.974 137.036 216.5 139.367 216.5 142.499V142.525C216.5 142.545 216.499 142.576 216.498 142.616C216.495 142.697 216.49 142.818 216.479 142.971C216.456 143.277 216.411 143.714 216.32 144.226C216.139 145.254 215.779 146.565 215.071 147.743C213.713 150.006 211.677 151.675 211.513 155.5H205.032C205.051 154.137 204.589 152.715 204.007 151.487C203.349 150.1 202.504 148.896 201.9 148.199C199.591 144.722 199.528 141.919 200.304 139.837C201.087 137.734 202.757 136.282 204.063 135.592Z" stroke="#235347"/>
<path d="M208 124.5V130.5" stroke="#235347"/>
<path d="M225 144H220M196 144H191" stroke="#235347"/>
<path opacity="0.6" d="M220.5 130L217 133.5" stroke="#235347"/>
<path opacity="0.6" d="M198.5 133.5L195 130" stroke="#235347"/>
<path d="M235.09 136H236.08V141.4L240.22 136H241.14V143H240.16V137.61L236.01 143H235.09V136Z" fill="#235347"/>
<path d="M243.162 137.7H244.122V139.95H247.142V137.7H248.102V143H247.142V140.78H244.122V143H243.162V137.7Z" fill="#235347"/>
<path d="M249.969 137.7H250.929V141.56L254.179 137.7H255.049V143H254.089V139.14L250.849 143H249.969V137.7Z" fill="#235347"/>
<path d="M262.572 142.16V144.27H261.662V143H256.912V137.7H257.872V142.16H260.772V137.7H261.732V142.16H262.572Z" fill="#235347"/>
<path d="M263.816 137.7H264.776V141.56L268.026 137.7H268.896V143H267.936V139.14L264.696 143H263.816V137.7Z" fill="#235347"/>
<path d="M272.65 137.65C273.383 137.65 273.943 137.83 274.33 138.19C274.723 138.55 274.92 139.087 274.92 139.8V143H274.01V142.3C273.85 142.547 273.62 142.737 273.32 142.87C273.026 142.997 272.676 143.06 272.27 143.06C271.676 143.06 271.2 142.917 270.84 142.63C270.486 142.343 270.31 141.967 270.31 141.5C270.31 141.033 270.48 140.66 270.82 140.38C271.16 140.093 271.7 139.95 272.44 139.95H273.96V139.76C273.96 139.347 273.84 139.03 273.6 138.81C273.36 138.59 273.006 138.48 272.54 138.48C272.226 138.48 271.92 138.533 271.62 138.64C271.32 138.74 271.066 138.877 270.86 139.05L270.46 138.33C270.733 138.11 271.06 137.943 271.44 137.83C271.82 137.71 272.223 137.65 272.65 137.65ZM272.43 142.32C272.796 142.32 273.113 142.24 273.38 142.08C273.646 141.913 273.84 141.68 273.96 141.38V140.64H272.48C271.666 140.64 271.26 140.913 271.26 141.46C271.26 141.727 271.363 141.937 271.57 142.09C271.776 142.243 272.063 142.32 272.43 142.32Z" fill="#235347"/>
<path d="M280.598 138.54H278.658V143H277.698V138.54H275.758V137.7H280.598V138.54Z" fill="#235347"/>
<path d="M281.58 137.7H282.54V141.56L285.79 137.7H286.66V143H285.7V139.14L282.46 143H281.58V137.7Z" fill="#235347"/>
<path d="M292.133 140.25C292.82 140.423 293.163 140.853 293.163 141.54C293.163 142.007 292.987 142.367 292.633 142.62C292.287 142.873 291.767 143 291.073 143H288.523V137.7H290.983C291.61 137.7 292.1 137.82 292.453 138.06C292.807 138.293 292.983 138.627 292.983 139.06C292.983 139.34 292.907 139.583 292.753 139.79C292.607 139.99 292.4 140.143 292.133 140.25ZM289.463 139.98H290.903C291.27 139.98 291.547 139.913 291.733 139.78C291.927 139.647 292.023 139.453 292.023 139.2C292.023 138.693 291.65 138.44 290.903 138.44H289.463V139.98ZM291.003 142.26C291.403 142.26 291.703 142.197 291.903 142.07C292.103 141.943 292.203 141.747 292.203 141.48C292.203 141.207 292.11 141.003 291.923 140.87C291.743 140.737 291.457 140.67 291.063 140.67H289.463V142.26H291.003Z" fill="#235347"/>
<path d="M296.556 137.65C297.289 137.65 297.849 137.83 298.236 138.19C298.629 138.55 298.826 139.087 298.826 139.8V143H297.916V142.3C297.756 142.547 297.526 142.737 297.226 142.87C296.933 142.997 296.583 143.06 296.176 143.06C295.583 143.06 295.106 142.917 294.746 142.63C294.393 142.343 294.216 141.967 294.216 141.5C294.216 141.033 294.386 140.66 294.726 140.38C295.066 140.093 295.606 139.95 296.346 139.95H297.866V139.76C297.866 139.347 297.746 139.03 297.506 138.81C297.266 138.59 296.913 138.48 296.446 138.48C296.133 138.48 295.826 138.533 295.526 138.64C295.226 138.74 294.973 138.877 294.766 139.05L294.366 138.33C294.639 138.11 294.966 137.943 295.346 137.83C295.726 137.71 296.129 137.65 296.556 137.65ZM296.336 142.32C296.703 142.32 297.019 142.24 297.286 142.08C297.553 141.913 297.746 141.68 297.866 141.38V140.64H296.386C295.573 140.64 295.166 140.913 295.166 141.46C295.166 141.727 295.269 141.937 295.476 142.09C295.683 142.243 295.969 142.32 296.336 142.32Z" fill="#235347"/>
<path d="M234.93 153.7H235.89V157.56L239.14 153.7H240.01V159H239.05V155.14L235.81 159H234.93V153.7Z" fill="#235347"/>
<path d="M247.369 153.65C247.882 153.65 248.342 153.763 248.749 153.99C249.155 154.217 249.472 154.533 249.699 154.94C249.932 155.347 250.049 155.817 250.049 156.35C250.049 156.883 249.932 157.357 249.699 157.77C249.472 158.177 249.155 158.493 248.749 158.72C248.342 158.947 247.882 159.06 247.369 159.06C246.989 159.06 246.639 158.987 246.319 158.84C246.005 158.693 245.739 158.48 245.519 158.2V160.94H244.559V153.7H245.479V154.54C245.692 154.247 245.962 154.027 246.289 153.88C246.615 153.727 246.975 153.65 247.369 153.65ZM247.289 158.22C247.629 158.22 247.932 158.143 248.199 157.99C248.472 157.83 248.685 157.61 248.839 157.33C248.999 157.043 249.079 156.717 249.079 156.35C249.079 155.983 248.999 155.66 248.839 155.38C248.685 155.093 248.472 154.873 248.199 154.72C247.932 154.567 247.629 154.49 247.289 154.49C246.955 154.49 246.652 154.57 246.379 154.73C246.112 154.883 245.899 155.1 245.739 155.38C245.585 155.66 245.509 155.983 245.509 156.35C245.509 156.717 245.585 157.043 245.739 157.33C245.892 157.61 246.105 157.83 246.379 157.99C246.652 158.143 246.955 158.22 247.289 158.22Z" fill="#235347"/>
<path d="M253.713 159.06C253.187 159.06 252.713 158.943 252.293 158.71C251.873 158.477 251.543 158.157 251.303 157.75C251.07 157.337 250.953 156.87 250.953 156.35C250.953 155.83 251.07 155.367 251.303 154.96C251.543 154.547 251.873 154.227 252.293 154C252.713 153.767 253.187 153.65 253.713 153.65C254.24 153.65 254.71 153.767 255.123 154C255.543 154.227 255.87 154.547 256.103 154.96C256.343 155.367 256.463 155.83 256.463 156.35C256.463 156.87 256.343 157.337 256.103 157.75C255.87 158.157 255.543 158.477 255.123 158.71C254.71 158.943 254.24 159.06 253.713 159.06ZM253.713 158.22C254.053 158.22 254.357 158.143 254.623 157.99C254.897 157.83 255.11 157.61 255.263 157.33C255.417 157.043 255.493 156.717 255.493 156.35C255.493 155.983 255.417 155.66 255.263 155.38C255.11 155.093 254.897 154.873 254.623 154.72C254.357 154.567 254.053 154.49 253.713 154.49C253.373 154.49 253.067 154.567 252.793 154.72C252.527 154.873 252.313 155.093 252.153 155.38C252 155.66 251.923 155.983 251.923 156.35C251.923 156.717 252 157.043 252.153 157.33C252.313 157.61 252.527 157.83 252.793 157.99C253.067 158.143 253.373 158.22 253.713 158.22Z" fill="#235347"/>
<path d="M260.16 159.06C259.62 159.06 259.136 158.943 258.71 158.71C258.29 158.477 257.96 158.157 257.72 157.75C257.48 157.337 257.36 156.87 257.36 156.35C257.36 155.83 257.48 155.367 257.72 154.96C257.96 154.547 258.29 154.227 258.71 154C259.136 153.767 259.62 153.65 260.16 153.65C260.64 153.65 261.066 153.747 261.44 153.94C261.82 154.133 262.113 154.413 262.32 154.78L261.59 155.25C261.423 154.997 261.216 154.807 260.97 154.68C260.723 154.553 260.45 154.49 260.15 154.49C259.803 154.49 259.49 154.567 259.21 154.72C258.936 154.873 258.72 155.093 258.56 155.38C258.406 155.66 258.33 155.983 258.33 156.35C258.33 156.723 258.406 157.053 258.56 157.34C258.72 157.62 258.936 157.837 259.21 157.99C259.49 158.143 259.803 158.22 260.15 158.22C260.45 158.22 260.723 158.157 260.97 158.03C261.216 157.903 261.423 157.713 261.59 157.46L262.32 157.92C262.113 158.287 261.82 158.57 261.44 158.77C261.066 158.963 260.64 159.06 260.16 159.06Z" fill="#235347"/>
<path d="M267.444 154.54H265.504V159H264.544V154.54H262.604V153.7H267.444V154.54Z" fill="#235347"/>
<g opacity="0.75">
<mask id="path-49-inside-4_2070_2164" fill="white">
<path d="M443 123C460.121 123 474 136.879 474 154C474 171.121 460.121 185 443 185H383.342C380.47 186.052 377.301 187.421 375 189C370.446 192.124 365 199 365 199V184.982C348.342 184.454 335 170.786 335 154C335 136.879 348.879 123 366 123H443Z"/>
</mask>
<path d="M383.342 185V184H383.164L382.998 184.061L383.342 185ZM375 189L374.434 188.175L374.434 188.175L375 189ZM365 199H364V201.873L365.784 199.621L365 199ZM365 184.982H366V184.014L365.032 183.983L365 184.982ZM443 123V124C459.569 124 473 137.431 473 154H474H475C475 136.327 460.673 122 443 122V123ZM474 154H473C473 170.569 459.569 184 443 184V185V186C460.673 186 475 171.673 475 154H474ZM443 185V184H383.342V185V186H443V185ZM383.342 185L382.998 184.061C380.105 185.121 376.842 186.524 374.434 188.175L375 189L375.566 189.825C377.761 188.319 380.834 186.984 383.686 185.939L383.342 185ZM375 189L374.434 188.175C372.058 189.806 369.494 192.377 367.554 194.496C366.577 195.564 365.745 196.532 365.156 197.234C364.861 197.585 364.628 197.87 364.467 198.068C364.387 198.167 364.324 198.244 364.282 198.296C364.261 198.323 364.245 198.343 364.234 198.357C364.228 198.364 364.224 198.369 364.221 198.373C364.219 198.375 364.218 198.376 364.218 198.377C364.217 198.378 364.217 198.378 364.217 198.379C364.216 198.379 364.216 198.379 364.216 198.379C364.216 198.379 364.216 198.379 365 199C365.784 199.621 365.784 199.621 365.784 199.621C365.784 199.621 365.784 199.621 365.784 199.621C365.784 199.621 365.784 199.62 365.784 199.62C365.785 199.62 365.786 199.618 365.787 199.617C365.789 199.614 365.793 199.61 365.798 199.603C365.808 199.591 365.823 199.572 365.842 199.548C365.882 199.498 365.941 199.424 366.019 199.329C366.174 199.139 366.401 198.862 366.688 198.52C367.263 197.834 368.076 196.888 369.03 195.847C370.952 193.747 373.388 191.319 375.566 189.825L375 189ZM365 199H366V184.982H365H364V199H365ZM365 184.982L365.032 183.983C348.912 183.472 336 170.244 336 154H335H334C334 171.328 347.772 185.437 364.968 185.982L365 184.982ZM335 154H336C336 137.431 349.431 124 366 124V123V122C348.327 122 334 136.327 334 154H335ZM366 123V124H443V123V122H366V123Z" fill="#235347" mask="url(#path-49-inside-4_2070_2164)"/>
</g>
<g opacity="0.75">
<mask id="path-51-inside-5_2070_2164" fill="white">
<path d="M372 143C374.209 143 376 144.791 376 147V159.395C376 161.604 374.209 163.395 372 163.395H360.77V167.579C360.77 167.579 359.751 165.317 358.899 164.289C358.627 163.96 358.288 163.659 357.94 163.395H354C351.791 163.395 350 161.604 350 159.395V147C350 144.791 351.791 143 354 143H372Z"/>
</mask>
<path d="M372 163.395V164.395V164.395V163.395ZM360.77 163.395V162.395H359.77V163.395H360.77ZM360.77 167.579L359.858 167.99L361.77 167.579H360.77ZM358.899 164.289L359.669 163.651L359.669 163.651L358.899 164.289ZM357.94 163.395L358.547 162.599L358.278 162.395H357.94V163.395ZM350 147L349 147V147H350ZM354 143V142V142V143ZM372 143V144C373.657 144 375 145.343 375 147H376H377C377 144.239 374.761 142 372 142V143ZM376 147H375V159.395H376H377V147H376ZM376 159.395H375C375 161.051 373.657 162.395 372 162.395V163.395V164.395C374.761 164.395 377 162.156 377 159.395H376ZM372 163.395V162.395H360.77V163.395V164.395H372V163.395ZM360.77 163.395H359.77V167.579H360.77H361.77V163.395H360.77ZM360.77 167.579C361.681 167.169 361.681 167.169 361.681 167.169C361.681 167.168 361.681 167.168 361.681 167.168C361.681 167.168 361.681 167.168 361.681 167.168C361.681 167.167 361.681 167.167 361.68 167.166C361.68 167.165 361.679 167.163 361.678 167.16C361.675 167.155 361.672 167.148 361.668 167.139C361.66 167.12 361.647 167.094 361.632 167.06C361.601 166.993 361.556 166.897 361.5 166.779C361.387 166.543 361.228 166.218 361.041 165.858C360.679 165.162 360.17 164.255 359.669 163.651L358.899 164.289L358.13 164.927C358.481 165.351 358.907 166.089 359.267 166.781C359.441 167.115 359.589 167.419 359.694 167.64C359.747 167.75 359.788 167.839 359.816 167.899C359.83 167.93 359.841 167.953 359.848 167.968C359.851 167.976 359.854 167.981 359.856 167.985C359.856 167.987 359.857 167.988 359.857 167.989C359.858 167.989 359.858 167.99 359.858 167.99C359.858 167.99 359.858 167.99 359.858 167.99C359.858 167.99 359.858 167.99 359.858 167.99C359.858 167.99 359.858 167.99 360.77 167.579ZM358.899 164.289L359.669 163.651C359.332 163.244 358.931 162.892 358.547 162.599L357.94 163.395L357.334 164.19C357.645 164.427 357.921 164.676 358.13 164.927L358.899 164.289ZM357.94 163.395V162.395H354V163.395V164.395H357.94V163.395ZM354 163.395V162.395C352.343 162.395 351 161.051 351 159.395H350H349C349 162.156 351.239 164.395 354 164.395V163.395ZM350 159.395H351V147H350H349V159.395H350ZM350 147L351 147C351 145.343 352.343 144 354 144V143V142C351.239 142 349 144.239 349 147L350 147ZM354 143V144H372V143V142H354V143Z" fill="#235347" mask="url(#path-51-inside-5_2070_2164)"/>
</g>
<path opacity="0.75" d="M355 150.5H370.5M355.5 155.5H370.5" stroke="#235347"/>
<path d="M390.24 149.08C389.533 149.08 388.896 148.927 388.33 148.62C387.763 148.307 387.316 147.877 386.99 147.33C386.67 146.784 386.51 146.174 386.51 145.5C386.51 144.827 386.67 144.217 386.99 143.67C387.316 143.124 387.763 142.697 388.33 142.39C388.896 142.077 389.533 141.92 390.24 141.92C390.94 141.92 391.573 142.077 392.14 142.39C392.706 142.697 393.15 143.124 393.47 143.67C393.79 144.21 393.95 144.82 393.95 145.5C393.95 146.18 393.79 146.794 393.47 147.34C393.15 147.88 392.706 148.307 392.14 148.62C391.573 148.927 390.94 149.08 390.24 149.08ZM390.24 148.19C390.753 148.19 391.213 148.074 391.62 147.84C392.033 147.607 392.356 147.287 392.59 146.88C392.83 146.467 392.95 146.007 392.95 145.5C392.95 144.994 392.83 144.537 392.59 144.13C392.356 143.717 392.033 143.394 391.62 143.16C391.213 142.927 390.753 142.81 390.24 142.81C389.726 142.81 389.26 142.927 388.84 143.16C388.426 143.394 388.1 143.717 387.86 144.13C387.626 144.537 387.51 144.994 387.51 145.5C387.51 146.007 387.626 146.467 387.86 146.88C388.1 147.287 388.426 147.607 388.84 147.84C389.26 148.074 389.726 148.19 390.24 148.19Z" fill="#235347"/>
<path d="M398.106 143.88C398.6 143.88 399.04 143.99 399.426 144.21C399.813 144.43 400.113 144.737 400.326 145.13C400.546 145.517 400.656 145.96 400.656 146.46C400.656 146.974 400.54 147.43 400.306 147.83C400.08 148.224 399.756 148.53 399.336 148.75C398.923 148.97 398.45 149.08 397.916 149.08C397.016 149.08 396.32 148.774 395.826 148.16C395.34 147.54 395.096 146.67 395.096 145.55C395.096 144.464 395.32 143.614 395.766 143C396.213 142.38 396.896 141.97 397.816 141.77L400.236 141.23L400.376 142.11L398.146 142.59C397.453 142.744 396.936 143.004 396.596 143.37C396.256 143.737 396.063 144.264 396.016 144.95C396.243 144.61 396.536 144.347 396.896 144.16C397.256 143.974 397.66 143.88 398.106 143.88ZM397.936 148.28C398.276 148.28 398.576 148.204 398.836 148.05C399.103 147.897 399.31 147.687 399.456 147.42C399.603 147.147 399.676 146.837 399.676 146.49C399.676 145.964 399.516 145.54 399.196 145.22C398.876 144.9 398.456 144.74 397.936 144.74C397.416 144.74 396.993 144.9 396.666 145.22C396.346 145.54 396.186 145.964 396.186 146.49C396.186 146.837 396.26 147.147 396.406 147.42C396.56 147.687 396.77 147.897 397.036 148.05C397.303 148.204 397.603 148.28 397.936 148.28Z" fill="#235347"/>
<path d="M408.137 143.7V149H407.267V145.13L405.287 148.4H404.867L402.907 145.12V149H402.027V143.7H403.017L405.097 147.28L407.237 143.7H408.137Z" fill="#235347"/>
<path d="M414.796 146.38C414.796 146.454 414.789 146.55 414.776 146.67H410.476C410.536 147.137 410.739 147.514 411.086 147.8C411.439 148.08 411.876 148.22 412.396 148.22C413.029 148.22 413.539 148.007 413.926 147.58L414.456 148.2C414.216 148.48 413.916 148.694 413.556 148.84C413.203 148.987 412.806 149.06 412.366 149.06C411.806 149.06 411.309 148.947 410.876 148.72C410.443 148.487 410.106 148.164 409.866 147.75C409.633 147.337 409.516 146.87 409.516 146.35C409.516 145.837 409.629 145.374 409.856 144.96C410.089 144.547 410.406 144.227 410.806 144C411.213 143.767 411.669 143.65 412.176 143.65C412.683 143.65 413.133 143.767 413.526 144C413.926 144.227 414.236 144.547 414.456 144.96C414.683 145.374 414.796 145.847 414.796 146.38ZM412.176 144.46C411.716 144.46 411.329 144.6 411.016 144.88C410.709 145.16 410.529 145.527 410.476 145.98H413.876C413.823 145.534 413.639 145.17 413.326 144.89C413.019 144.604 412.636 144.46 412.176 144.46Z" fill="#235347"/>
<path d="M416.285 143.7H417.245V145.95H420.265V143.7H421.225V149H420.265V146.78H417.245V149H416.285V143.7Z" fill="#235347"/>
<path d="M428.047 149.06C427.521 149.06 427.047 148.944 426.627 148.71C426.207 148.477 425.877 148.157 425.637 147.75C425.404 147.337 425.287 146.87 425.287 146.35C425.287 145.83 425.404 145.367 425.637 144.96C425.877 144.547 426.207 144.227 426.627 144C427.047 143.767 427.521 143.65 428.047 143.65C428.574 143.65 429.044 143.767 429.457 144C429.877 144.227 430.204 144.547 430.437 144.96C430.677 145.367 430.797 145.83 430.797 146.35C430.797 146.87 430.677 147.337 430.437 147.75C430.204 148.157 429.877 148.477 429.457 148.71C429.044 148.944 428.574 149.06 428.047 149.06ZM428.047 148.22C428.387 148.22 428.691 148.144 428.957 147.99C429.231 147.83 429.444 147.61 429.597 147.33C429.751 147.044 429.827 146.717 429.827 146.35C429.827 145.984 429.751 145.66 429.597 145.38C429.444 145.094 429.231 144.874 428.957 144.72C428.691 144.567 428.387 144.49 428.047 144.49C427.707 144.49 427.401 144.567 427.127 144.72C426.861 144.874 426.647 145.094 426.487 145.38C426.334 145.66 426.257 145.984 426.257 146.35C426.257 146.717 426.334 147.044 426.487 147.33C426.647 147.61 426.861 147.83 427.127 147.99C427.401 148.144 427.707 148.22 428.047 148.22Z" fill="#235347"/>
<path d="M437.094 143.7V149H436.134V144.54H433.144V149H432.184V143.7H437.094Z" fill="#235347"/>
<path d="M441.341 145.5C442.008 145.507 442.518 145.66 442.871 145.96C443.225 146.26 443.401 146.684 443.401 147.23C443.401 147.804 443.208 148.247 442.821 148.56C442.441 148.867 441.895 149.017 441.181 149.01L438.951 149V143.7H439.911V145.49L441.341 145.5ZM444.191 143.7H445.151V149H444.191V143.7ZM441.111 148.28C441.545 148.287 441.871 148.2 442.091 148.02C442.318 147.84 442.431 147.574 442.431 147.22C442.431 146.874 442.321 146.62 442.101 146.46C441.881 146.3 441.551 146.217 441.111 146.21L439.911 146.19V148.27L441.111 148.28Z" fill="#235347"/>
<path d="M450.968 144.54H449.028V149H448.068V144.54H446.128V143.7H450.968V144.54Z" fill="#235347"/>
<path d="M453.985 149.06C453.458 149.06 452.985 148.944 452.565 148.71C452.145 148.477 451.815 148.157 451.575 147.75C451.342 147.337 451.225 146.87 451.225 146.35C451.225 145.83 451.342 145.367 451.575 144.96C451.815 144.547 452.145 144.227 452.565 144C452.985 143.767 453.458 143.65 453.985 143.65C454.512 143.65 454.982 143.767 455.395 144C455.815 144.227 456.142 144.547 456.375 144.96C456.615 145.367 456.735 145.83 456.735 146.35C456.735 146.87 456.615 147.337 456.375 147.75C456.142 148.157 455.815 148.477 455.395 148.71C454.982 148.944 454.512 149.06 453.985 149.06ZM453.985 148.22C454.325 148.22 454.628 148.144 454.895 147.99C455.168 147.83 455.382 147.61 455.535 147.33C455.688 147.044 455.765 146.717 455.765 146.35C455.765 145.984 455.688 145.66 455.535 145.38C455.382 145.094 455.168 144.874 454.895 144.72C454.628 144.567 454.325 144.49 453.985 144.49C453.645 144.49 453.338 144.567 453.065 144.72C452.798 144.874 452.585 145.094 452.425 145.38C452.272 145.66 452.195 145.984 452.195 146.35C452.195 146.717 452.272 147.044 452.425 147.33C452.585 147.61 452.798 147.83 453.065 147.99C453.338 148.144 453.645 148.22 453.985 148.22Z" fill="#235347"/>
<path d="M464.231 143.7V149H463.361V145.13L461.381 148.4H460.961L459.001 145.12V149H458.121V143.7H459.111L461.191 147.28L463.331 143.7H464.231Z" fill="#235347"/>
<path d="M386.93 160.7H387.89V164.56L391.14 160.7H392.01V166H391.05V162.14L387.81 166H386.93V160.7Z" fill="#235347"/>
<path d="M399.429 163.24C399.782 163.334 400.055 163.484 400.249 163.69C400.442 163.897 400.539 164.154 400.539 164.46C400.539 164.774 400.432 165.054 400.219 165.3C400.005 165.54 399.709 165.73 399.329 165.87C398.955 166.004 398.535 166.07 398.069 166.07C397.675 166.07 397.289 166.02 396.909 165.92C396.535 165.814 396.202 165.664 395.909 165.47L396.199 164.74C396.452 164.9 396.742 165.027 397.069 165.12C397.395 165.207 397.725 165.25 398.059 165.25C398.512 165.25 398.872 165.174 399.139 165.02C399.412 164.86 399.549 164.647 399.549 164.38C399.549 164.134 399.439 163.944 399.219 163.81C399.005 163.677 398.702 163.61 398.309 163.61H397.339V162.92H398.239C398.599 162.92 398.882 162.857 399.089 162.73C399.295 162.604 399.399 162.43 399.399 162.21C399.399 161.97 399.275 161.784 399.029 161.65C398.789 161.517 398.462 161.45 398.049 161.45C397.522 161.45 396.965 161.587 396.379 161.86L396.119 161.12C396.765 160.794 397.442 160.63 398.149 160.63C398.575 160.63 398.959 160.69 399.299 160.81C399.639 160.93 399.905 161.1 400.099 161.32C400.292 161.54 400.389 161.79 400.389 162.07C400.389 162.33 400.302 162.564 400.129 162.77C399.955 162.977 399.722 163.134 399.429 163.24Z" fill="#235347"/>
<path d="M401.998 160.7H402.958V162.95H405.978V160.7H406.938V166H405.978V163.78H402.958V166H401.998V160.7Z" fill="#235347"/>
<path d="M410.695 160.65C411.428 160.65 411.988 160.83 412.375 161.19C412.768 161.55 412.965 162.087 412.965 162.8V166H412.055V165.3C411.895 165.547 411.665 165.737 411.365 165.87C411.071 165.997 410.721 166.06 410.315 166.06C409.721 166.06 409.245 165.917 408.885 165.63C408.531 165.344 408.355 164.967 408.355 164.5C408.355 164.034 408.525 163.66 408.865 163.38C409.205 163.094 409.745 162.95 410.485 162.95H412.005V162.76C412.005 162.347 411.885 162.03 411.645 161.81C411.405 161.59 411.051 161.48 410.585 161.48C410.271 161.48 409.965 161.534 409.665 161.64C409.365 161.74 409.111 161.877 408.905 162.05L408.505 161.33C408.778 161.11 409.105 160.944 409.485 160.83C409.865 160.71 410.268 160.65 410.695 160.65ZM410.475 165.32C410.841 165.32 411.158 165.24 411.425 165.08C411.691 164.914 411.885 164.68 412.005 164.38V163.64H410.525C409.711 163.64 409.305 163.914 409.305 164.46C409.305 164.727 409.408 164.937 409.615 165.09C409.821 165.244 410.108 165.32 410.475 165.32Z" fill="#235347"/>
<path d="M414.693 160.7H415.653V162.95H418.673V160.7H419.633V166H418.673V163.78H415.653V166H414.693V160.7Z" fill="#235347"/>
<path d="M421.5 160.7H422.46V164.56L425.71 160.7H426.58V166H425.62V162.14L422.38 166H421.5V160.7Z" fill="#235347"/>
<path d="M432.693 160.7V166H431.833V164.32H430.183L429.023 166H427.993L429.283 164.19C428.883 164.07 428.577 163.874 428.363 163.6C428.15 163.32 428.043 162.974 428.043 162.56C428.043 161.954 428.25 161.494 428.663 161.18C429.077 160.86 429.647 160.7 430.373 160.7H432.693ZM429.023 162.59C429.023 162.944 429.133 163.207 429.353 163.38C429.58 163.547 429.917 163.63 430.363 163.63H431.833V161.54H430.403C429.483 161.54 429.023 161.89 429.023 162.59Z" fill="#235347"/>
<path d="M440.676 160.7V166H439.806V162.13L437.826 165.4H437.406L435.446 162.12V166H434.566V160.7H435.556L437.636 164.28L439.776 160.7H440.676Z" fill="#235347"/>
<path d="M442.545 160.7H443.505V164.56L446.755 160.7H447.625V166H446.665V162.14L443.425 166H442.545V160.7Z" fill="#235347"/>
<defs>
<linearGradient id="paint0_linear_2070_2164" x1="125" y1="-32" x2="408.5" y2="441" gradientUnits="userSpaceOnUse">
<stop stop-color="#FDF2E6"/>
<stop offset="0.929905" stop-color="#EEEEE4" stop-opacity="0"/>
</linearGradient>
</defs>
</svg>
