<svg width="154" height="206" viewBox="0 0 154 206" fill="none" xmlns="http://www.w3.org/2000/svg">
<path d="M180.307 148.096C158.287 148.343 108.781 132.423 70.5819 88.7805L65.8492 83.2854M65.8492 83.2854C54.8571 80.6562 33.8154 66.9253 37.5853 33.0354C64.6418 46.7342 67.7014 72.2433 65.8492 83.2854Z" stroke="#235347" stroke-width="1.2955"/>
<path d="M65.319 83.6592C65.6719 83.4103 66.0248 83.1614 66.3777 82.9125C66.0841 82.515 65.7818 82.1017 65.4808 81.6872C60.1798 74.2667 54.8681 66.7643 50.699 58.629C50.4747 58.166 50.2603 57.7013 50.0652 57.2443C50.2403 57.7093 50.4351 58.1832 50.6402 58.656C54.4695 66.9815 59.4684 74.7188 64.47 82.3893C64.7548 82.8182 65.041 83.2463 65.319 83.6592Z" fill="#235347"/>
<path d="M94.2341 107.689C94.6655 107.67 95.0969 107.651 95.5283 107.632C95.4995 107.223 95.4707 106.801 95.4424 106.376C94.966 98.8305 94.4863 91.2626 94.4971 83.6925C94.5025 83.271 94.5123 82.843 94.5278 82.4341C94.4907 82.8417 94.4594 83.269 94.4323 83.69C94.0327 91.2603 94.124 98.8507 94.2127 106.426C94.2195 106.854 94.2267 107.278 94.2341 107.689Z" fill="#235347"/>
<path d="M81.4497 108.522C81.5132 108.095 81.5767 107.668 81.6401 107.241C81.1749 107.182 80.7097 107.124 80.2445 107.066C71.8707 106.018 63.4968 104.97 55.123 103.922C54.6578 103.863 54.1926 103.805 53.7274 103.747C54.1894 103.827 54.6515 103.906 55.1135 103.986C63.4302 105.418 71.7469 106.851 80.0636 108.283C80.5256 108.363 80.9877 108.442 81.4497 108.522Z" fill="#235347"/>
<path d="M122.23 137.429C122.188 136.999 122.146 136.569 122.104 136.139C121.64 136.195 121.157 136.254 120.677 136.313C112.108 137.41 103.523 138.428 95.0508 140.164C94.5793 140.272 94.1109 140.388 93.6614 140.527C94.1167 140.408 94.5888 140.315 95.0639 140.227C103.589 138.876 112.205 138.246 120.8 137.537C121.28 137.5 121.765 137.463 122.23 137.429Z" fill="#235347"/>
<path d="M161.186 147.158C160.914 146.823 160.641 146.489 160.368 146.154C160.049 146.427 159.719 146.711 159.389 146.996C153.553 152.099 147.66 157.16 142.322 162.795C142.044 163.104 141.745 163.448 141.491 163.775C141.762 163.462 142.076 163.133 142.369 162.839C147.969 157.492 154.101 152.738 160.17 147.947C160.513 147.68 160.855 147.414 161.186 147.158Z" fill="#235347"/>
<path d="M135.005 131.864C134.586 131.968 134.167 132.073 133.748 132.178C133.657 131.768 133.562 131.343 133.469 130.917C131.85 123.336 130.162 115.754 129.261 108.044C129.224 107.63 129.19 107.175 129.182 106.761C129.212 107.174 129.267 107.626 129.326 108.037C130.608 115.672 132.672 123.152 134.664 130.623C134.778 131.042 134.893 131.46 135.005 131.864Z" fill="#235347"/>
<path d="M164.229 146.159C163.365 146.211 162.42 146.308 161.41 146.458M161.41 146.458C150.02 148.147 130.307 156.429 124.447 179.598C150.083 177.363 159.771 156.574 161.41 146.458Z" stroke="#235347" stroke-width="1.2955"/>
<path d="M134.619 136.328L122.728 136.461M122.728 136.461C113.116 131.04 88.2274 125.415 65.5668 146.277C96.4728 158.351 116.552 144.764 122.728 136.461Z" stroke="#235347" stroke-width="1.2955"/>
<path d="M92.7239 110.402L82.4296 108.118M82.4296 108.118C72.4113 113.653 46.7576 119.14 24.2903 96.8075C57.5555 90.1676 76.9103 101.581 82.4296 108.118Z" stroke="#235347" stroke-width="1.2955"/>
<path d="M95.7894 113.12L95.2052 108.221M95.2052 108.221C88.0531 101.879 78.0457 83.423 95.233 60.3359C109.705 77.1116 101.245 99.2493 95.2052 108.221Z" stroke="#235347" stroke-width="1.2955"/>
<path d="M136.712 137.362L134.121 132.874M134.121 132.874L133.149 131.191C124.767 125.31 111.398 107.249 124.976 82.0571C143.298 97.2089 138.707 122.249 134.121 132.874Z" stroke="#235347" stroke-width="1.2955"/>
</svg>
