<svg width="109" height="147" viewBox="0 0 109 147" fill="none" xmlns="http://www.w3.org/2000/svg">
<circle cx="72.5" cy="25.5" r="69.5" fill="#F5E7D6"/>
<path d="M139.179 104.316C122.182 104.506 83.9676 92.2174 54.4819 58.53L50.8286 54.2883M50.8286 54.2883C42.3438 52.2588 26.1016 41.6599 29.0116 15.5002C49.8966 26.0744 52.2584 45.7648 50.8286 54.2883Z" stroke="#235347"/>
<path d="M50.4199 54.5765C50.6923 54.3844 50.9647 54.1923 51.2371 54.0001C51.0105 53.6933 50.7772 53.3742 50.5448 53.0543C46.453 47.3264 42.3529 41.5352 39.1347 35.2556C38.9615 34.8982 38.7961 34.5395 38.6455 34.1867C38.7806 34.5457 38.931 34.9115 39.0893 35.2764C42.0452 41.7029 45.9038 47.6754 49.7646 53.5963C49.9844 53.9273 50.2053 54.2578 50.4199 54.5765Z" fill="#235347"/>
<path d="M72.7396 73.1255C73.0726 73.1109 73.4056 73.0962 73.7387 73.0815C73.7164 72.7658 73.6942 72.4401 73.6724 72.1116C73.3046 66.2875 72.9343 60.4458 72.9426 54.6024C72.9468 54.2771 72.9544 53.9467 72.9664 53.6311C72.9377 53.9457 72.9135 54.2755 72.8927 54.6005C72.5842 60.4441 72.6547 66.3031 72.7232 72.1507C72.7284 72.4806 72.734 72.808 72.7396 73.1255Z" fill="#235347"/>
<path d="M62.8713 73.768C62.9203 73.4383 62.9693 73.1086 63.0183 72.7789C62.6592 72.7339 62.3002 72.689 61.9411 72.644C55.4773 71.835 49.0135 71.026 42.5497 70.2169C42.1906 70.172 41.8315 70.127 41.4724 70.0821C41.8291 70.1435 42.1857 70.205 42.5424 70.2664C48.962 71.3722 55.3817 72.4779 61.8014 73.5837C62.158 73.6451 62.5147 73.7066 62.8713 73.768Z" fill="#235347"/>
<path d="M94.3497 96.0816C94.3174 95.7499 94.2851 95.4181 94.2528 95.0863C93.8946 95.1295 93.5214 95.1748 93.1515 95.2201C86.5368 96.0669 79.9097 96.8526 73.3702 98.1926C73.0062 98.2766 72.6446 98.3656 72.2977 98.4728C72.6491 98.3816 73.0136 98.3091 73.3803 98.2416C79.9607 97.1991 86.6119 96.7126 93.246 96.1654C93.6168 96.1367 93.9908 96.1082 94.3497 96.0816Z" fill="#235347"/>
<path d="M124.42 103.592C124.209 103.333 123.999 103.075 123.788 102.816C123.542 103.027 123.287 103.247 123.032 103.466C118.527 107.405 113.979 111.312 109.858 115.661C109.644 115.9 109.413 116.166 109.216 116.418C109.426 116.176 109.669 115.923 109.895 115.696C114.217 111.568 118.95 107.899 123.635 104.201C123.899 103.994 124.164 103.789 124.42 103.592Z" fill="#235347"/>
<path d="M104.21 91.7858C103.887 91.8667 103.563 91.9476 103.24 92.0286C103.169 91.712 103.097 91.3839 103.024 91.0555C101.775 85.203 100.472 79.3507 99.7765 73.3996C99.7478 73.0798 99.7219 72.7289 99.7153 72.4092C99.7385 72.7281 99.7809 73.0766 99.8262 73.3939C100.816 79.2878 102.409 85.061 103.947 90.8281C104.035 91.1516 104.124 91.4745 104.21 91.7858Z" fill="#235347"/>
<path d="M126.769 102.82C126.102 102.86 125.373 102.935 124.593 103.051M124.593 103.051C115.801 104.355 100.584 110.748 96.0609 128.632C115.849 126.907 123.328 110.859 124.593 103.051Z" stroke="#235347"/>
<path d="M103.912 95.2314L94.7343 95.3343M94.7343 95.3343C87.3148 91.1501 68.103 86.8076 50.6112 102.911C74.4676 112.231 89.9668 101.743 94.7343 95.3343Z" stroke="#235347"/>
<path d="M71.574 75.2197L63.6279 73.4566M63.6279 73.4566C55.8947 77.7289 36.0926 81.964 18.75 64.7258C44.4274 59.6004 59.3675 68.4108 63.6279 73.4566Z" stroke="#235347"/>
<path d="M73.9401 77.3174L73.4891 73.5363M73.4891 73.5363C67.9684 68.6408 60.2437 54.3945 73.5106 36.5735C84.6819 49.5227 78.151 66.6109 73.4891 73.5363Z" stroke="#235347"/>
<path d="M105.528 96.0303L103.528 92.5662M103.528 92.5662L102.778 91.2672C96.3084 86.7273 85.9886 72.7861 96.4698 53.3402C110.612 65.0359 107.068 84.3641 103.528 92.5662Z" stroke="#235347"/>
</svg>
