<svg width="376" height="497" viewBox="0 0 376 497" fill="none" xmlns="http://www.w3.org/2000/svg">
<g clip-path="url(#clip0_2024_195)">
<path d="M48.8965 17.7925L41.4879 22.7315L43.4636 26.1889L30.1281 25.2011L28.1525 19.7681H25.1891L22.2257 25.2011L23.2135 29.1523L17.2866 29.6462L16.2988 34.0913H9.38417L8.39636 33.1035L6.91465 35.5731L6.42075 37.5487L3.95123 38.5365L0.493896 36.5609V41.006L2.96342 43.4755V46.4389V51.8719V55.3292C3.95123 55.9878 6.1244 57.3048 6.91465 57.3048C7.7049 57.3048 8.89027 57.9634 9.38417 58.2926L8.39636 62.7378L12.8415 67.6768L10.8659 72.122L7.90246 75.5793C7.57319 76.7317 6.91465 79.2342 6.91465 80.0244C6.91465 80.8147 8.561 83.3171 9.38417 84.4696H13.8293L16.2988 82.4939L17.7805 81.5061L19.7562 83.9757C19.7562 84.4696 19.8549 85.4574 20.2501 85.4574C20.6452 85.4574 23.0488 85.4574 24.2013 85.4574L25.1891 88.4208L24.2013 90.8903L20.744 91.8781L17.2866 90.3964L15.8049 89.9025C15.8049 90.8903 15.7061 92.9647 15.311 93.3598C14.9159 93.755 15.1464 96.1586 15.311 97.3111L17.7805 99.2867L18.2744 101.262L15.311 103.238C14.4878 103.732 12.8415 104.818 12.8415 105.214C12.8415 105.609 17.4513 107.683 19.7562 108.671L22.7196 109.659L25.1891 110.646V114.598C25.0245 115.256 24.8928 116.573 25.683 116.573C26.4733 116.573 29.6342 117.561 31.1159 118.055C32.7623 118.714 36.1538 120.129 36.5489 120.525C36.944 120.92 40.3355 122.006 41.9818 122.5C43.7928 122.829 47.5136 123.488 47.9087 123.488C48.4026 123.488 50.8721 123.488 51.366 123.488C51.7611 123.488 53.177 123.488 53.8355 123.488L54.8233 125.464L55.8112 127.933L54.8233 129.909L53.8355 131.39C52.8477 131.39 50.7733 131.39 50.3782 131.39C49.9831 131.39 48.238 131.061 47.4148 130.897L45.4392 129.909L43.9575 126.451H41.9818L41.4879 127.933L41.9818 129.909L38.5245 130.897C37.3721 130.567 34.9684 129.711 34.5733 128.921C34.1782 128.131 33.0916 127.604 32.5977 127.439L31.1159 127.933L32.5977 129.909L33.5855 131.39L29.6342 134.848L27.6586 135.836L24.2013 134.848L22.7196 138.305L25.1891 141.762C25.1891 142.586 25.1891 144.528 25.1891 145.714C25.1891 146.899 24.5306 149.83 24.2013 151.147V153.122L21.7318 155.098L20.2501 156.58H25.683H27.6586V155.098H28.6464L29.6342 157.073V159.049L27.6586 160.531L25.1891 161.519L22.7196 163.988V165.47L18.2744 162.506C17.7805 162.177 16.694 161.716 16.2988 162.506C15.9037 163.297 15.1464 164.482 14.8171 164.976L15.311 167.445L17.7805 169.421V170.903H21.7318C22.2257 170.409 23.411 169.322 24.2013 168.927C24.9915 168.532 26.8354 166.458 27.6586 165.47L30.622 163.494C30.622 163.165 30.8196 162.506 31.6099 162.506C32.4001 162.506 33.9147 163.494 34.5733 163.988V166.458H35.5611H36.5489L37.5367 163.988C37.7013 163.823 38.1294 163.494 38.5245 163.494C38.9196 163.494 41.3233 164.482 42.4757 164.976C43.1343 164.976 44.5501 164.976 44.9453 164.976C45.3404 164.976 46.427 165.964 46.9209 166.458L48.4026 168.927V171.891L46.9209 174.36L44.9453 177.817C44.7806 178.805 44.4514 180.88 44.4514 181.275C44.4514 181.67 44.4514 184.074 44.4514 185.226V189.177L42.4757 192.635L41.4879 194.116C41.1587 195.269 40.4013 197.672 40.0062 198.068C39.6111 198.463 38.8538 199.878 38.5245 200.537L36.5489 202.019C36.2196 202.019 35.5611 202.216 35.5611 203.007C35.5611 203.797 35.5611 204.982 35.5611 205.476L34.5733 206.958H33.5855C33.2562 206.958 32.5977 207.155 32.5977 207.946C32.5977 208.736 32.5977 210.25 32.5977 210.909C32.9269 211.403 33.3879 212.391 32.5977 212.391C31.6099 212.391 31.6099 213.379 30.622 213.379C29.8318 213.379 28.9757 213.379 28.6464 213.379C28.6464 213.379 28.4489 213.576 27.6586 214.366C26.8684 215.157 26.6708 216.342 26.6708 216.836C26.6708 217.33 26.8684 218.416 27.6586 218.811C28.6464 219.305 29.1403 219.799 29.1403 220.787C29.1403 221.775 29.1403 222.763 29.1403 223.751C29.1403 224.738 28.6464 225.232 28.6464 226.22C28.6464 227.01 27.3294 227.866 26.6708 228.196C26.1769 228.196 25.1891 228.393 25.1891 229.183C25.1891 230.171 25.1891 232.147 25.1891 232.641C25.1891 233.135 25.1891 234.123 25.683 234.616C26.0781 235.012 27.1647 236.098 27.6586 236.592C27.6586 236.757 27.6586 237.283 27.6586 238.074C27.6586 238.864 27.6586 240.049 27.6586 240.543L29.6342 241.531C29.9635 241.366 30.622 241.235 30.622 242.025C30.622 242.815 30.622 243.671 30.622 244.001C31.4452 243.507 33.1903 242.519 33.5855 242.519C33.9806 242.519 35.0672 242.519 35.5611 242.519C35.7257 243.177 36.055 244.593 36.055 244.988C36.055 245.482 36.5489 246.964 37.5367 246.47C38.3269 246.075 39.5123 245.318 40.0062 244.988C40.1709 244.988 40.5989 244.89 40.994 244.494C41.4879 244.001 42.4757 244.001 43.4636 244.494C44.4514 244.988 44.9453 244.494 45.4392 245.482C45.9331 246.47 45.9331 246.47 45.9331 247.458C45.9331 248.446 44.9453 247.952 45.9331 248.94C47.4148 250.915 46.9209 251.409 47.4148 252.397C47.8099 253.187 47.9087 254.043 47.9087 254.373C47.7441 254.702 47.5136 255.459 47.9087 255.854C48.4026 256.348 49.3904 257.336 49.8843 257.336C50.3782 257.336 50.8721 257.336 51.8599 257.336C52.8477 257.336 52.8477 257.83 53.3416 258.324C53.7368 258.719 53.8355 259.476 53.8355 259.806C53.8355 260.299 53.8355 261.386 53.8355 261.781C53.8355 262.275 53.8355 263.263 55.3172 263.263C56.799 263.263 57.2929 263.757 57.7868 262.769C58.1819 261.979 58.6099 261.123 58.7746 260.793C58.9392 260.793 59.2685 260.991 59.2685 261.781C59.2685 262.769 58.2807 263.757 58.7746 264.251C59.1697 264.646 60.2563 265.403 60.7502 265.732L61.2441 267.214C61.2441 267.543 61.3429 268.301 61.738 268.696C62.2319 269.19 62.7258 269.684 63.7136 269.684C64.7014 269.684 65.1953 269.684 66.1831 270.178C67.1709 270.671 67.6649 270.671 67.6649 271.659C67.6649 272.449 67.6649 273.306 67.6649 273.635L69.1466 269.684C70.6283 270.178 70.6283 271.165 70.6283 271.659C70.6283 272.054 70.6283 273.141 70.6283 273.635C70.9575 273.306 71.6161 272.845 71.6161 273.635C71.6161 274.425 71.6161 275.61 71.6161 276.104L68.6527 278.574C67.6649 278.903 65.6892 279.66 65.6892 280.056C65.6892 280.549 65.6892 282.031 64.7014 282.525C63.7136 283.019 64.7014 283.513 63.7136 284.007C62.7258 284.501 61.738 284.501 61.2441 284.501C60.7502 284.501 59.2685 284.007 58.7746 284.007C58.2807 284.007 56.799 284.007 55.3172 284.007C53.8355 284.007 52.8477 284.007 51.8599 283.513C50.8721 283.019 50.8721 283.019 49.8843 282.525C48.8965 282.031 46.427 281.043 45.9331 280.549C45.4392 280.056 44.4514 278.574 43.4636 278.574C42.4757 278.574 40.0062 278.08 39.5123 278.08C39.0184 278.08 38.0306 278.08 37.5367 278.08C37.0428 278.08 37.0428 279.562 37.5367 280.549C38.0306 281.537 38.0306 282.031 38.5245 283.019C39.0184 284.007 37.5367 284.007 38.5245 284.995C39.5123 285.982 40.5001 286.97 40.994 287.464C41.4879 287.958 41.9818 288.946 42.4757 289.934C42.8709 290.724 43.6282 292.897 43.9575 293.885C44.4514 294.543 45.6367 295.959 46.427 296.354C47.4148 296.848 46.9209 297.836 47.9087 298.824C48.8965 299.812 48.8965 300.8 49.3904 301.787C49.8843 302.775 50.3782 302.281 51.366 303.269C52.3538 304.257 51.366 304.257 53.3416 304.751C55.3172 305.245 55.3172 305.739 55.8112 306.726C56.3051 307.714 55.3172 307.714 56.3051 308.702C57.2929 309.69 57.7868 309.69 58.7746 310.678C59.7624 311.665 59.2685 310.678 60.7502 312.653C62.2319 314.629 61.738 314.135 62.7258 315.123C63.7136 316.111 62.7258 318.58 62.7258 319.074C62.7258 319.568 63.7136 320.062 63.7136 320.556C63.7136 321.05 63.7136 323.025 62.7258 323.519C61.738 324.013 61.2441 325.001 60.7502 325.495C60.3551 325.89 60.9148 327.635 61.2441 328.458V330.928C61.4087 331.422 61.5404 332.409 60.7502 332.409C59.7624 332.409 58.7746 332.409 58.2807 332.409C57.8856 332.409 56.799 331.422 56.3051 330.928L53.8355 332.409V334.385C53.8355 334.714 53.7368 335.274 53.3416 334.879C52.8477 334.385 51.366 332.903 51.366 331.916C51.366 330.928 51.366 329.94 50.8721 329.446C50.3782 328.952 50.3782 329.446 49.8843 328.458C49.3904 327.47 48.8965 326.483 47.9087 327.47C47.1184 328.261 46.5916 329.775 46.427 330.434C45.9331 330.434 44.8465 330.434 44.4514 330.434C43.9575 330.434 42.9696 329.446 42.4757 329.446C41.9818 329.446 42.4757 328.458 40.994 328.458C39.5123 328.458 39.0184 329.446 38.5245 329.446C38.0306 329.446 38.5245 330.434 38.5245 331.422C38.5245 332.409 39.0184 333.891 38.5245 334.879C38.1294 335.669 37.7013 336.525 37.5367 336.855C37.2074 337.019 36.5489 337.447 36.5489 337.842C36.5489 338.336 36.5489 339.818 36.5489 341.3C36.5489 342.781 37.5367 343.769 37.5367 344.263C37.5367 344.757 38.5245 345.745 39.5123 346.239C40.5001 346.733 41.4879 347.72 41.9818 348.214C42.4757 348.708 43.4636 349.696 44.4514 349.202C47.4148 349.202 47.4148 348.708 47.4148 350.19C48.8965 352.659 48.8965 352.166 49.8843 352.659C51.8599 353.153 52.3538 353.153 52.8477 354.141C54.4282 354.931 55.4819 355.129 55.8112 355.129C55.6465 354.8 55.5148 354.438 56.3051 355.623C57.2929 357.105 57.2929 357.599 57.2929 358.586C58.2807 361.55 58.7746 362.044 59.2685 362.538C59.6636 362.933 61.0795 363.361 61.738 363.525H63.7136C63.549 363.69 63.3185 364.217 63.7136 365.007C64.1087 365.797 64.5368 369.617 64.7014 371.428L65.1953 372.91C65.0307 372.745 64.9978 372.514 66.1831 372.91C67.6649 373.403 68.6527 372.416 69.1466 372.91C69.5417 373.305 70.9575 374.391 71.6161 374.885L72.6039 376.367C72.9332 376.532 73.5917 377.058 73.5917 377.849C73.5917 378.836 73.5917 379.824 74.0856 380.318C74.4807 380.713 75.5673 380.483 76.0612 380.318C76.5551 380.318 77.5429 380.417 77.5429 380.812C77.5429 381.306 76.0612 381.8 77.5429 382.294C79.0246 382.788 80.0125 382.294 81.0003 382.294C81.9881 382.294 82.9759 381.306 82.9759 382.294C83.7661 383.084 84.6222 382.623 84.9515 382.294C85.2808 382.623 85.9393 383.38 85.9393 383.775C85.9393 384.171 85.9393 385.916 85.9393 386.739C86.2686 386.904 87.0259 387.332 87.421 387.727C87.9149 388.221 88.9027 388.714 89.3966 388.714C89.7918 388.714 90.8783 388.714 91.3722 388.714V391.184L93.8418 389.702C93.8418 389.373 93.9405 388.714 94.3357 388.714C94.8296 388.714 96.3113 388.221 96.8052 389.702C97.2003 390.888 97.9576 391.513 98.2869 391.678C98.9454 392.007 100.361 392.369 100.756 391.184C101.25 389.702 101.744 390.196 102.238 389.702C102.633 389.307 103.391 388.879 103.72 388.714V394.147L105.202 396.123C105.531 396.288 106.189 396.716 106.189 397.111C106.189 397.506 107.506 398.263 108.165 398.593C108.494 398.757 109.252 399.185 109.647 399.58C110.141 400.074 110.635 400.568 111.128 401.062C111.622 401.556 110.141 401.556 111.128 402.544C112.116 403.532 113.104 404.519 113.598 404.519C114.092 404.519 114.586 404.519 115.08 405.013C115.574 405.507 116.067 406.001 116.067 406.495C116.067 406.989 118.537 407.483 118.537 406.495C118.537 405.705 118.866 404.849 119.031 404.519C119.525 404.519 120.513 404.717 120.513 405.507C120.513 406.495 121.006 405.507 121.5 406.495C121.994 407.483 122.982 407.977 123.476 407.977C123.871 407.977 125.287 408.306 125.946 408.471C126.11 408.635 126.538 409.162 126.933 409.952C127.328 410.743 129.403 411.599 130.391 411.928C130.885 411.763 131.971 411.533 132.366 411.928C132.86 412.422 133.848 413.41 134.342 413.904C134.836 414.398 135.824 413.41 136.318 413.904C136.811 414.398 137.305 414.891 137.305 415.385C137.305 415.879 137.305 418.349 137.305 418.843C137.305 419.238 137.635 420.983 137.799 421.806C137.799 421.971 137.799 422.399 137.799 422.794C137.799 423.288 137.799 424.276 138.787 423.782C139.577 423.387 140.104 422.629 140.269 422.3C140.433 422.135 140.861 421.806 141.257 421.806C141.75 421.806 142.738 421.806 143.232 422.3C143.726 422.794 145.208 422.794 145.208 423.288C145.208 423.782 145.208 424.276 146.196 423.288C147.183 422.3 147.677 421.312 148.171 420.818C148.665 420.324 149.159 419.83 149.653 419.337C150.147 418.843 151.135 418.843 151.629 418.349C152.024 417.954 152.781 417.526 153.11 417.361L154.098 416.373C153.44 415.385 152.024 413.41 151.629 413.41C151.233 413.41 150.147 412.093 149.653 411.434C149.653 411.105 149.653 410.347 149.653 409.952C149.653 409.458 151.629 408.965 151.629 408.471C151.629 407.977 153.11 407.977 153.11 407.483C153.11 407.088 154.757 406.33 155.58 406.001C156.074 406.001 157.061 405.804 157.061 405.013C157.061 404.026 157.555 403.532 158.049 402.544C158.543 401.556 159.037 401.556 159.531 401.062C160.025 400.568 160.025 400.074 160.519 400.568C160.914 400.963 161.342 401.721 161.507 402.05C161.671 402.215 162.099 402.445 162.494 402.05C162.988 401.556 162.988 401.062 163.482 400.568C163.976 400.074 164.47 399.086 164.964 398.593C165.458 398.099 165.952 397.111 165.952 396.617C165.952 396.123 166.446 394.641 166.446 394.147C166.446 393.752 165.787 393.324 165.458 393.16L166.94 392.172C167.433 392.172 168.421 392.073 168.421 391.678C168.421 391.184 167.927 390.196 167.927 389.702C167.927 389.208 168.421 388.221 167.927 388.221C167.433 388.221 165.952 385.751 165.458 385.751C164.964 385.751 164.964 385.257 164.47 384.763C163.976 384.269 162.494 382.788 162.494 382.294C162.494 381.8 161.013 380.812 161.013 380.318C161.013 379.824 160.519 378.836 160.519 378.343C160.519 377.849 162.988 377.355 163.482 377.355C163.877 377.355 164.635 377.025 164.964 376.861L167.433 376.367C167.927 376.202 169.014 375.774 169.409 375.379C169.903 374.885 170.397 374.391 170.891 373.897C171.385 373.403 171.879 372.416 172.373 372.416C172.866 372.416 172.866 372.416 173.854 372.416C174.644 372.416 175.83 372.086 176.324 371.922C176.653 371.592 177.41 370.835 177.805 370.44C178.299 369.946 178.299 368.464 178.793 368.958C179.287 369.452 180.275 370.44 180.769 370.44C181.263 370.44 181.757 371.428 182.251 371.922C182.745 372.416 182.745 372.416 183.732 373.403C184.72 374.391 185.214 374.885 185.214 375.379C185.214 375.774 185.214 377.19 185.214 377.849C184.555 377.849 183.14 377.947 182.745 378.343C181.757 380.318 181.263 381.8 181.757 382.294C182.251 382.788 184.226 383.282 184.72 383.282C185.214 383.282 185.214 383.282 186.202 383.775C187.19 384.269 188.177 384.763 188.671 385.751C189.165 386.739 189.659 386.739 190.647 387.233C191.635 387.727 191.635 388.221 192.623 387.727C193.61 387.233 194.598 386.245 195.092 386.245C195.586 386.245 195.586 386.739 196.08 386.739C196.574 386.739 197.562 387.233 198.056 387.727C198.549 388.221 199.043 388.221 199.537 388.714C199.932 389.11 201.348 389.208 202.007 389.208C202.007 389.208 202.106 389.11 202.501 388.714C202.995 388.221 203.488 387.727 203.488 387.233C203.488 386.838 203.818 386.41 203.982 386.245C204.147 386.41 204.575 386.838 204.97 387.233C205.464 387.727 204.97 387.727 205.464 388.221C205.958 388.714 206.452 389.208 206.946 389.208C207.341 389.208 208.098 389.208 208.428 389.208C208.592 389.208 208.921 389.406 208.921 390.196C208.921 391.184 208.921 392.172 208.921 392.666C208.921 393.16 208.921 392.172 208.921 393.654C208.921 394.839 209.909 396.452 210.403 397.111C210.238 397.44 209.909 398.197 209.909 398.593C209.909 399.086 210.403 399.086 210.403 399.58C210.403 399.976 210.732 401.062 210.897 401.556C210.732 401.721 210.502 402.149 210.897 402.544C211.391 403.038 211.391 403.038 211.885 403.038C212.28 403.038 213.037 402.708 213.367 402.544C213.531 402.379 213.86 401.951 213.86 401.556C213.86 401.062 213.86 400.074 214.354 400.074C214.848 400.074 215.836 400.074 216.33 400.568C216.824 401.062 217.812 401.062 217.812 401.556C217.812 402.05 218.306 402.544 217.812 403.532C217.318 404.519 217.318 404.519 217.318 406.001C217.318 407.483 217.318 407.977 217.318 408.965C217.318 409.952 217.318 410.446 217.812 410.94C218.306 411.434 218.8 411.928 219.293 412.916C219.787 413.904 219.787 413.904 220.281 414.891C220.676 415.682 222.092 415.55 222.751 415.385H227.196L227.69 417.361C227.854 417.526 228.282 417.954 228.678 418.349C229.171 418.843 230.653 418.843 231.147 418.843C231.641 418.843 233.123 418.349 233.617 418.349C234.111 418.349 235.098 418.349 235.098 418.843C235.098 419.337 235.098 419.83 234.604 420.818C234.111 421.806 234.111 422.3 234.111 423.288C234.111 424.078 233.781 425.922 233.617 426.745L232.629 427.733C232.629 428.227 232.629 429.313 232.629 429.709C232.629 430.202 232.629 430.696 232.629 431.19C232.629 431.684 232.629 432.178 232.135 432.178C231.641 432.178 231.641 431.684 231.147 432.178C230.653 432.672 230.159 433.166 230.653 433.66C231.147 434.154 231.641 434.154 232.629 434.154C233.617 434.154 234.604 434.154 235.592 434.154C236.58 434.154 237.568 434.154 238.062 434.154C238.556 434.154 238.556 434.154 239.543 434.648C240.334 435.043 241.519 435.471 242.013 435.635C241.848 435.965 241.717 436.623 242.507 436.623C243.495 436.623 244.483 436.129 244.976 436.129C245.47 436.129 245.47 436.623 245.964 436.129C246.458 435.635 246.952 435.635 247.446 436.129C247.94 436.623 248.928 436.623 248.928 437.117C248.928 437.611 249.422 437.611 249.422 438.599C249.422 439.587 249.422 439.587 249.915 440.081C250.311 440.476 251.726 440.245 252.385 440.081H253.373L253.867 442.55C253.867 442.55 253.965 442.649 254.361 443.044C254.756 443.439 255.184 443.867 255.348 444.032C255.678 443.867 256.336 443.439 256.336 443.044C256.336 442.649 256.665 441.562 256.83 441.068C256.665 440.904 256.534 440.574 257.324 440.574C258.312 440.574 259.3 440.574 259.794 440.574C260.287 440.574 261.275 440.574 261.769 440.574C262.263 440.574 262.757 441.068 262.757 440.574C262.757 440.081 262.757 440.081 263.251 440.081C263.745 440.081 264.239 440.081 264.239 440.574C264.239 441.068 264.239 441.562 264.733 442.056C265.128 442.451 265.556 442.879 265.72 443.044C265.72 443.209 265.72 443.637 265.72 444.032C265.72 444.427 266.05 445.184 266.214 445.513C266.544 445.513 267.103 445.612 266.708 446.007C266.313 446.402 265.556 447.16 265.226 447.489C264.733 447.654 263.745 448.082 263.745 448.477C263.745 448.971 263.251 449.465 263.251 449.959C263.251 450.453 263.251 450.453 263.251 450.946C263.251 451.342 262.592 451.44 262.263 451.44C262.263 451.605 262.263 452.132 262.263 452.922C262.263 453.91 262.757 453.91 262.757 454.404C262.757 454.898 263.745 455.392 263.251 455.885C262.757 456.379 262.757 456.873 262.263 457.367C261.769 457.861 261.769 457.367 261.275 457.861C260.781 458.355 260.287 458.355 259.794 458.355C259.3 458.355 258.312 458.355 258.312 458.849C258.312 459.343 258.312 460.824 258.312 461.318C258.312 461.812 258.312 461.812 258.312 462.306C258.312 462.8 257.818 463.294 257.324 463.788C256.83 464.282 256.83 463.788 256.336 464.776C255.842 465.764 254.854 465.27 254.854 466.257C254.854 467.245 255.842 467.245 254.854 467.739C253.867 468.233 254.361 467.245 253.373 468.233C252.385 470.209 252.385 470.209 252.385 470.703C252.385 471.196 252.385 471.69 252.879 472.184C253.274 472.579 253.373 473.666 253.373 474.16C253.537 474.489 253.768 475.246 253.373 475.642C252.879 476.136 252.385 476.629 252.385 477.123C252.385 477.617 251.397 478.111 250.903 478.605C250.409 479.099 249.422 479.593 248.928 479.593C248.533 479.593 247.117 480.251 246.458 480.581C246.129 480.416 245.372 480.186 244.976 480.581C244.581 480.976 243.824 481.404 243.495 481.568C243.33 481.898 243.001 482.655 243.001 483.05C243.001 483.544 243.495 484.532 243.495 485.026C243.495 485.52 243.495 486.508 243.989 486.508C244.384 486.508 245.47 487.495 245.964 487.989C246.458 488.318 247.446 489.076 247.446 489.471C247.446 489.965 248.434 490.459 248.434 490.953C248.434 491.447 248.928 491.94 248.928 492.434C248.928 492.928 249.915 493.916 250.409 493.916C250.903 493.916 253.373 494.41 253.867 494.904C254.361 495.398 255.348 495.398 255.842 495.398C256.336 495.398 256.83 496.386 257.324 496.386C257.818 496.386 258.312 496.386 258.806 496.386C259.3 496.386 259.794 496.386 260.287 495.892C260.781 495.398 261.769 494.904 261.769 494.41C261.769 493.916 262.263 493.422 263.251 493.422C264.239 493.422 264.733 492.928 265.226 492.928C265.72 492.928 265.72 493.422 266.214 492.434C266.708 491.447 266.708 489.471 267.202 489.471C267.696 489.471 267.696 488.977 268.19 488.977C268.585 488.977 269.672 488.977 270.166 488.977C270.495 488.648 271.153 487.89 271.153 487.495C271.153 487.001 270.659 486.508 271.153 486.014C271.647 485.52 271.647 485.026 272.141 485.026C272.635 485.026 272.635 486.014 273.129 486.014C273.623 486.014 274.117 486.508 274.611 487.001C275.006 487.397 275.763 487.825 276.092 487.989C276.092 488.318 276.29 488.878 277.08 488.483C278.068 487.989 278.068 488.483 278.562 487.989C278.957 487.594 279.714 487.166 280.044 487.001C279.879 486.508 279.55 485.421 279.55 485.026C279.55 484.532 280.044 484.038 280.044 483.544C280.044 483.05 280.044 483.05 280.538 483.05C280.933 483.05 281.69 483.379 282.019 483.544C282.348 483.544 283.007 483.643 283.007 484.038C283.007 484.532 283.995 485.026 283.995 485.52C283.995 486.014 284.983 486.508 285.477 486.508C285.97 486.508 286.464 486.508 286.958 487.001C287.452 487.495 287.946 487.989 288.44 488.483C288.934 488.977 289.922 488.483 290.416 488.483C290.909 488.483 291.403 488.483 291.897 488.483C292.292 488.483 295.684 487.825 297.33 487.495C297.495 487.331 297.923 487.001 298.318 487.001C298.812 487.001 299.306 486.508 299.8 486.508C300.294 486.508 302.269 485.52 302.269 485.026C302.269 484.532 302.269 484.532 302.763 484.038C303.257 483.544 303.751 483.544 304.739 483.544C305.727 483.544 306.221 483.544 306.714 483.544C307.11 483.544 307.538 483.215 307.702 483.05C307.867 482.886 308.196 482.457 308.196 482.062C308.196 481.667 308.855 480.91 309.184 480.581L310.172 480.087L311.16 480.581C311.489 480.416 312.147 480.186 312.147 480.581C312.147 481.075 312.147 481.568 312.147 482.062C312.147 482.556 312.147 483.544 312.641 483.544C313.135 483.544 313.629 484.532 314.123 484.532C314.617 484.532 315.111 484.038 315.605 485.026C316.099 486.014 316.593 485.52 317.086 486.508C317.58 487.495 318.074 487.495 318.568 487.989C318.963 488.384 320.708 485.849 321.532 484.532C322.025 484.532 323.211 484.334 324.001 483.544C324.989 482.556 326.964 482.062 326.964 481.568C326.964 481.075 327.952 480.581 327.952 479.593C327.952 478.605 327.952 478.111 328.446 477.617C328.94 477.123 329.434 477.617 329.928 477.123C330.422 476.629 330.916 477.123 331.41 476.629C331.904 476.136 332.397 475.642 332.891 475.148C333.286 474.753 333.385 474.325 333.385 474.16L334.373 470.703C334.208 470.373 333.978 469.616 334.373 469.221C334.867 468.727 334.867 467.739 335.361 467.739C335.855 467.739 335.855 467.245 335.855 466.751C335.855 466.257 335.855 465.764 335.855 465.27C335.855 464.776 335.361 463.294 334.867 462.8C334.373 462.306 332.397 460.331 331.904 460.331C331.41 460.331 329.928 458.355 329.434 458.355C328.94 458.355 327.952 457.367 327.458 456.873C326.964 456.379 325.483 455.885 325.483 455.392C325.483 454.898 326.471 453.416 326.471 452.922C326.471 452.428 327.458 448.971 327.458 448.477C327.458 447.983 327.458 446.995 327.458 446.501C327.458 446.007 327.458 445.02 327.458 444.032C327.458 443.044 326.964 442.056 327.458 441.562C327.952 441.068 328.446 439.093 328.94 438.599C329.335 438.204 329.763 437.117 329.928 436.623C330.257 436.623 330.916 436.426 330.916 435.635C330.916 434.648 329.434 433.66 329.434 433.166C329.434 432.771 328.446 430.696 327.952 429.709C327.623 429.05 326.866 427.634 326.471 427.239C325.977 426.745 325.483 426.251 325.483 425.757C325.483 425.362 325.483 424.605 325.483 424.276C325.812 424.276 326.569 424.177 326.964 423.782C327.458 423.288 327.952 423.288 328.446 423.288C328.94 423.288 329.434 423.288 329.928 422.794C330.422 422.3 330.422 421.806 330.916 421.312C331.41 420.818 331.904 420.324 332.397 419.83C332.891 419.337 333.385 419.337 333.385 418.843C333.385 418.448 334.044 417.361 334.373 416.867C334.702 417.032 335.361 417.46 335.361 417.855C335.361 418.349 335.855 418.843 336.349 418.843C336.843 418.843 336.843 419.337 337.336 419.337C337.83 419.337 338.324 419.337 338.324 418.843C338.324 418.349 338.324 417.361 338.324 416.867C338.324 416.373 337.83 416.373 338.818 415.879C339.806 415.385 340.3 414.891 340.794 415.385C341.288 415.879 341.782 416.867 342.769 416.867C343.757 416.867 343.757 417.361 344.745 417.855C345.535 418.25 346.391 418.349 346.721 418.349C346.721 418.349 346.918 418.349 347.708 418.349C348.696 418.349 349.19 417.855 349.684 417.361C350.178 416.867 350.672 416.373 351.166 416.373C351.66 416.373 352.154 416.867 352.648 416.373C353.141 415.879 353.141 415.879 353.635 415.385C354.129 414.891 354.623 414.891 354.623 414.398C354.623 413.904 355.117 413.41 355.117 412.916C355.117 412.422 355.117 411.434 355.117 410.94C355.117 410.446 355.611 409.952 355.611 409.458C355.611 408.965 356.105 409.458 356.105 408.471C356.105 407.68 356.105 405.837 356.105 405.013L359.068 404.519C359.562 404.519 360.649 404.322 361.044 403.532C361.538 402.544 361.538 402.05 362.526 401.556C363.513 401.062 364.007 399.58 364.501 399.086C364.995 398.593 365.489 398.593 365.983 398.099C366.477 397.605 367.465 396.123 367.465 395.135C367.465 394.147 367.959 392.666 368.452 392.666C368.946 392.666 370.428 391.678 370.922 391.678C371.416 391.678 372.404 391.184 373.391 390.196C374.379 389.208 374.873 387.233 374.873 386.245C374.873 385.257 374.873 384.269 374.873 382.788C374.873 381.306 374.379 380.812 374.379 380.318C374.379 379.824 374.379 378.343 373.885 377.849C373.391 377.355 371.91 377.355 371.416 377.355C370.922 377.355 369.44 376.861 368.946 376.367C368.452 375.873 367.465 375.873 366.971 374.885C366.477 373.897 365.489 372.91 364.995 372.416C364.6 372.021 363.843 370.934 363.513 370.44L362.032 367.477C361.867 366.983 361.439 365.896 361.044 365.501C360.55 365.007 359.562 364.019 359.562 363.525C359.562 363.031 360.55 363.031 359.562 362.044C358.574 361.056 357.587 360.562 357.093 360.068C356.599 359.574 355.611 359.08 355.117 358.092C354.623 357.105 354.623 356.611 354.129 356.117C353.635 355.623 352.648 355.129 352.154 355.129C351.66 355.129 350.672 355.129 349.684 354.635C348.696 354.141 346.721 353.647 346.227 353.647C345.733 353.153 345.733 351.672 345.239 351.178C344.745 350.684 344.745 350.684 344.251 350.19C343.757 349.696 341.782 349.696 341.288 349.696C340.893 349.696 339.806 349.367 339.312 349.202C338.983 348.873 338.324 348.116 338.324 347.72C338.324 347.325 337.666 346.239 337.336 345.745L334.867 345.251L333.385 343.275C333.221 342.452 332.793 340.707 332.397 340.312C331.904 339.818 330.422 338.336 330.422 337.842C330.422 337.348 330.422 336.361 330.422 335.867C330.422 335.373 329.928 332.409 329.928 331.422C329.928 330.434 329.928 326.483 329.928 325.989C329.928 325.495 330.422 324.013 329.928 323.519C329.533 323.124 327.788 321.708 326.964 321.05L323.013 318.086L322.025 316.111C321.861 313.806 321.532 309.097 321.532 308.702C321.532 308.208 318.568 305.739 318.568 305.245C318.568 304.85 318.239 302.117 318.074 300.8C318.733 300.306 320.05 299.219 320.05 298.824C320.05 298.33 321.038 294.873 321.038 294.379C321.038 293.885 321.038 289.934 321.038 289.44C321.038 289.045 321.038 288.287 321.038 287.958C321.367 287.629 322.124 286.871 322.519 286.476C323.013 285.982 322.519 281.043 322.519 280.549C322.519 280.154 322.849 278.739 323.013 278.08C323.507 277.751 324.594 277.092 324.989 277.092C325.483 277.092 327.952 277.092 328.446 277.092C328.94 277.092 329.434 277.586 330.422 277.092C331.41 276.598 333.385 277.092 333.879 276.598C334.274 276.203 334.702 273.799 334.867 272.647C334.867 272.318 335.163 271.659 336.349 271.659C337.534 271.659 338.489 271.659 338.818 271.659L341.288 271.165C341.617 269.848 342.276 267.115 342.276 266.72C342.276 266.226 341.288 263.757 341.288 263.263C341.288 262.769 341.288 262.275 341.288 261.287C341.288 260.299 341.782 256.842 342.276 256.348C342.769 255.854 343.757 253.385 344.251 253.385C344.745 253.385 344.251 253.385 345.239 252.891C346.227 252.397 346.227 253.879 346.721 252.397C347.116 251.212 346.885 249.269 346.721 248.446C346.885 247.787 347.215 246.371 347.215 245.976C347.215 245.482 346.721 244.494 346.721 244.001C346.721 243.507 344.745 242.909 344.251 242.714C343.856 242.558 341.452 242.519 340.3 242.519C339.641 242.19 338.226 241.432 337.83 241.037C337.336 240.543 336.349 240.543 335.855 240.049C335.361 239.555 334.867 238.568 334.373 238.074C333.978 237.679 333.55 236.592 333.385 236.098C332.727 235.604 331.41 234.518 331.41 234.123C331.41 233.629 331.41 231.653 331.41 231.159C331.41 230.665 330.422 228.196 330.422 227.702C330.422 227.307 330.093 226.22 329.928 225.726C329.599 225.397 328.841 224.541 328.446 223.751C328.051 222.96 327.623 221.775 327.458 221.281L327.952 218.811C329.269 218.811 332.101 218.811 332.891 218.811C333.682 218.811 335.196 218.482 335.855 218.318C335.855 217.165 335.954 214.761 336.349 214.366C336.843 213.872 336.349 212.391 336.843 211.897C337.336 211.403 337.336 209.921 337.83 209.921C338.324 209.921 338.324 209.427 339.312 209.427C340.3 209.427 340.794 208.933 341.782 209.427C342.769 209.921 343.757 210.415 344.251 210.909C344.745 211.403 344.745 211.403 345.239 211.897C345.634 212.292 346.391 213.049 346.721 213.379C347.05 213.543 347.807 213.872 348.202 213.872C348.696 213.872 350.178 213.379 350.672 213.379C351.166 213.379 353.635 212.391 353.635 211.897C353.635 211.403 354.623 210.909 354.623 210.415C354.623 209.921 354.623 208.439 354.129 207.946C353.635 207.452 352.154 205.97 351.66 205.476C351.166 204.982 350.178 203.007 349.19 203.007C348.202 203.007 346.721 202.019 345.733 202.019C344.745 202.019 342.769 202.513 342.276 202.019C341.782 201.525 340.794 201.525 339.806 201.031C339.016 200.636 336.184 197.903 334.867 196.586L331.904 192.141L328.94 189.671C328.282 189.507 326.866 189.177 326.471 189.177C325.977 189.177 324.495 189.177 324.001 189.671C323.606 190.066 322.19 191.482 321.532 192.141C321.367 192.635 320.939 193.622 320.544 193.622C320.05 193.622 319.062 194.116 318.568 194.116C318.173 194.116 316.428 194.116 315.605 194.116C315.111 194.446 314.123 195.203 314.123 195.598C314.123 196.092 312.641 197.08 312.641 197.574C312.641 198.068 312.641 198.561 312.641 199.055C312.641 199.45 311.653 199.878 311.16 200.043C310.995 200.043 310.666 200.142 310.666 200.537C310.666 200.932 310.007 203.007 309.678 203.994C309.513 204.324 309.085 205.081 308.69 205.476C308.196 205.97 307.376 207.452 307.045 207.946C306.714 208.439 305.727 209.427 305.727 209.921C305.727 210.415 305.727 211.897 305.233 212.391C304.739 212.885 303.257 214.366 303.257 215.354C303.257 216.342 303.257 217.33 302.763 217.824C302.269 218.318 302.269 219.799 301.775 219.799C301.281 219.799 299.8 219.799 298.812 219.799C297.824 219.799 296.342 218.318 295.849 218.318C295.453 218.318 293.379 216.342 292.391 215.354L290.416 210.909C289.757 210.909 288.44 210.81 288.44 210.415C288.44 209.921 288.934 209.427 288.44 207.946C287.946 206.464 287.946 206.958 287.946 205.476C287.946 203.994 286.464 203.5 286.464 202.513C286.464 201.722 285.806 200.537 285.477 200.043C284.983 199.878 283.896 199.549 283.501 199.549C283.106 199.549 280.044 198.561 278.562 198.068C277.751 197.903 275.978 197.574 275.37 197.574C274.611 197.574 271.647 197.08 270.659 197.08C269.672 197.08 269.178 197.574 268.684 197.08C268.289 196.685 267.202 195.598 266.708 195.104C266.05 195.269 264.634 195.598 264.239 195.598C263.745 195.598 262.263 195.598 262.263 196.092C262.263 196.586 261.275 196.586 260.781 196.586C260.287 196.586 259.3 196.586 258.806 196.092C258.312 195.598 257.818 195.104 257.324 195.104C256.83 195.104 255.348 196.092 254.854 196.092C254.361 196.092 253.867 196.586 253.373 196.092C252.879 195.598 252.879 195.104 252.385 194.61C251.99 194.215 250.903 192.141 250.409 191.153C250.409 190 250.409 187.597 250.409 187.202C250.409 186.708 249.915 185.226 249.915 184.732C249.915 184.238 248.434 182.263 247.94 182.263C247.446 182.263 244.976 181.769 243.495 181.769C242.309 181.769 239.05 181.769 237.568 181.769C236.639 181.769 234.648 181.769 234.111 181.769C233.573 181.769 232.24 181.439 231.641 181.275C231.476 179.793 231.048 176.83 230.653 176.83C230.159 176.83 230.159 175.348 229.665 175.348C229.171 175.348 228.184 174.854 228.184 174.36C228.184 173.866 228.184 171.397 228.184 170.903C228.184 170.409 228.184 169.421 228.678 169.421C229.171 169.421 232.629 169.421 233.617 169.421C234.604 169.421 236.58 168.927 237.568 168.927C238.556 168.927 240.037 169.421 240.531 168.927C241.025 168.433 242.013 168.927 243.001 168.433C243.791 168.038 245.306 167.61 245.964 167.445C246.129 166.952 246.458 165.865 246.458 165.47C246.458 164.976 246.458 164.482 246.458 163.988C246.458 163.494 245.47 162.506 244.976 162.013C244.483 161.519 243.989 161.025 243.001 160.778C242.013 160.531 238.062 158.061 237.568 158.061C237.173 158.061 235.098 157.403 234.111 157.073L232.629 154.604C232.464 154.275 232.036 153.517 231.641 153.122C231.147 152.628 229.665 152.134 229.665 151.641C229.665 151.147 229.171 150.653 229.171 150.159C229.171 149.665 231.147 148.183 231.641 148.183C232.135 148.183 233.123 147.689 234.111 147.689C234.901 147.689 235.757 147.36 236.086 147.195C236.251 146.701 236.679 145.516 237.074 144.726C237.568 143.738 238.556 143.244 238.556 142.75C238.556 142.256 239.05 141.762 239.05 141.269C239.05 140.775 239.05 139.293 239.05 138.799C239.05 138.305 241.025 136.823 241.519 136.329C242.013 135.836 242.507 135.342 243.001 134.848C243.495 134.354 243.989 133.86 243.495 133.366C243.001 132.872 242.507 131.884 242.013 131.39C241.519 130.897 240.531 129.909 240.037 129.909C239.543 129.909 235.592 126.945 235.098 126.451C234.604 125.958 233.617 124.97 233.123 124.97C232.629 124.97 230.159 123.982 229.665 123.982C229.171 123.982 228.678 124.476 228.184 124.476C227.69 124.476 227.196 123.982 226.702 123.488C226.208 122.994 224.726 122.5 224.232 122.5C223.739 122.5 221.269 122.006 221.269 122.5C221.269 122.895 220.61 122.994 220.281 122.994C219.787 122.665 218.701 121.907 218.306 121.512C217.91 121.117 216.165 120.689 215.342 120.525C215.342 120.525 215.243 120.327 214.848 119.537C214.354 118.549 213.86 117.561 213.86 117.067C213.86 116.573 212.873 113.61 212.379 113.116C211.984 112.721 211.885 111.964 211.885 111.634C211.062 111.799 209.317 112.227 208.921 112.622C208.526 113.017 207.769 114.104 207.44 114.598L205.464 115.092L204.476 114.104L202.995 112.622C202.83 112.293 202.303 111.634 201.513 111.634C200.525 111.634 199.537 111.14 199.043 111.14C198.648 111.14 197.562 111.14 197.068 111.14C196.903 110.317 196.475 108.671 196.08 108.671C195.586 108.671 194.598 108.177 194.104 107.683C193.709 107.288 192.952 106.201 192.623 105.707L191.635 104.226C191.141 103.238 190.054 101.262 189.659 101.262C189.264 101.262 188.836 100.274 188.671 99.7806L185.708 98.7928C185.049 98.4635 183.831 97.7062 184.226 97.3111C184.621 96.9159 184.391 95.1708 184.226 94.3476L182.251 92.8659L180.769 91.8781C180.11 91.8781 178.694 91.8781 178.299 91.8781C177.904 91.8781 176.488 91.5489 175.83 91.3842V88.4208C176.159 88.0915 176.916 87.3342 177.312 86.9391C177.805 86.4452 178.299 85.9513 178.793 85.9513C179.287 85.9513 180.275 84.9635 180.275 84.4696C180.275 84.0744 179.946 83.3171 179.781 82.9878C179.452 82.6586 178.793 81.9013 178.793 81.5061C178.793 81.111 178.464 80.0244 178.299 79.5305L177.312 78.5427C176.982 78.3781 176.225 78.0488 175.83 78.0488C175.435 78.0488 175.007 76.7317 174.842 76.0732L175.336 74.0976L176.324 73.1098L176.818 71.1341C176.653 70.8049 176.423 70.1463 176.818 70.1463C177.312 70.1463 177.312 69.6524 177.805 69.6524C178.299 69.6524 178.299 68.1707 178.299 67.6768C178.299 67.2817 178.299 60.9268 178.299 57.7987C178.464 57.6341 178.892 57.2061 179.287 56.8109C179.781 56.317 180.275 56.317 180.275 55.8231C180.275 55.428 179.946 54.3414 179.781 53.8475L178.793 52.8597H176.818L175.83 54.3414L175.336 55.8231C175.171 56.1524 174.743 56.8109 174.348 56.8109C173.953 56.8109 172.208 56.4817 171.385 56.317L170.397 55.8231C169.903 55.8231 168.816 55.7243 168.421 55.3292C168.026 54.9341 167.927 53.8475 167.927 53.3536L166.446 51.378L165.458 49.8963L164.964 46.4389L164.47 45.4511C163.976 44.7926 162.89 43.4755 162.494 43.4755C162.099 43.4755 159.696 42.1584 158.543 41.4999C158.049 41.006 157.16 39.9194 157.555 39.5243C157.951 39.1292 157.72 38.3718 157.555 38.0426L157.061 36.067L155.086 37.5487C154.921 37.7133 154.493 38.0426 154.098 38.0426C153.604 38.0426 153.11 38.0426 152.616 38.0426C152.122 38.0426 151.447 38.0426 151.135 37.0548C150.822 36.067 150.641 35.5731 150.641 35.0791C150.641 34.684 149.982 32.2804 149.653 31.1279C149.488 30.7986 149.06 30.1401 148.665 30.1401C148.27 30.1401 146.854 29.1523 146.196 28.6584C145.537 28.6584 144.121 28.6584 143.726 28.6584C143.331 28.6584 141.586 28.3291 140.763 28.1645L138.787 25.695C138.293 25.695 137.305 25.4974 137.305 24.7072C137.305 23.9169 137.305 22.4023 137.305 21.7437C136.976 19.9328 136.219 16.3108 135.824 16.3108C135.33 16.3108 133.848 15.323 133.354 14.8291C132.86 14.3352 131.872 12.8535 131.378 12.3596C130.885 11.8657 129.403 10.3839 129.403 9.89004C129.403 9.39613 126.933 8.90223 126.933 8.40833C126.933 8.0132 125.946 7.58515 125.452 7.42052L123.97 5.4449L122.982 3.96319L121.006 4.45709L119.525 5.9388H118.537L117.055 4.45709L115.08 2.48148C114.75 2.81075 113.894 3.56806 113.104 3.96319C112.314 4.35831 111.128 5.11563 110.635 5.4449C109.976 5.60954 108.659 5.84002 108.659 5.4449C108.659 4.951 108.165 3.46928 108.165 2.97538C108.165 2.58026 107.177 1.82294 106.683 1.49367L100.263 2.48148C99.604 2.81075 98.0893 3.56806 97.2991 3.96319C96.3113 4.45709 94.8296 5.9388 94.3357 5.9388C93.8418 5.9388 92.3601 5.9388 91.8662 6.43271C91.471 6.82783 90.3844 7.25588 89.8905 7.42052C89.3966 7.25588 88.2113 6.82783 87.421 6.43271C86.6308 6.03759 85.4454 5.9388 84.9515 5.9388L83.4698 4.45709C82.6466 3.79855 81.0003 2.3827 81.0003 1.98757C81.0003 1.59245 79.3539 0.835129 78.5307 0.505859L74.5795 0.999763L72.6039 1.98757C72.4393 1.98757 71.9124 1.98757 71.1222 1.98757C70.3319 1.98757 68.488 1.6583 67.6649 1.49367L65.1953 2.97538C64.8661 3.46928 64.1087 4.45709 63.7136 4.45709C63.3185 4.45709 61.9026 5.4449 61.2441 5.9388C61.4087 6.26807 61.8368 7.02539 62.2319 7.42052C62.7258 7.91442 63.2197 8.40833 63.2197 8.90223C63.2197 9.39613 62.2319 9.89004 61.738 10.3839C61.2441 10.8778 60.2563 10.8778 59.7624 11.3717C59.2685 11.8657 58.7746 11.8657 58.2807 12.3596C57.8856 12.7547 57.4575 13.512 57.2929 13.8413C56.9636 14.4998 56.2063 15.8169 55.8112 15.8169C55.3172 15.8169 54.8233 17.7925 54.3294 17.7925C53.9343 17.7925 52.5185 18.7803 51.8599 19.2742L50.3782 19.7681L48.8965 17.7925Z" stroke="#235347" stroke-width="0.987808"/>
<path d="M91.8663 121.512C91.8663 122.603 90.9818 123.487 89.8907 123.487C88.7996 123.487 87.915 122.603 87.915 121.512C87.915 120.421 88.7996 119.536 89.8907 119.536C90.9818 119.536 91.8663 120.421 91.8663 121.512Z" fill="#235347"/>
<path d="M147.184 176.829C147.184 177.921 146.299 178.805 145.208 178.805C144.117 178.805 143.232 177.921 143.232 176.829C143.232 175.738 144.117 174.854 145.208 174.854C146.299 174.854 147.184 175.738 147.184 176.829Z" fill="#235347"/>
<path fill-rule="evenodd" clip-rule="evenodd" d="M145.208 153.122C147.3 153.122 149.309 153.944 150.792 155.41C152.275 156.877 153.11 158.869 153.11 160.948C153.11 163.632 151.94 166.022 150.596 167.891C149.248 169.766 147.665 171.198 146.7 171.988C146.475 172.172 146.178 172.435 145.743 172.558C145.414 172.651 145.002 172.651 144.673 172.558C144.237 172.435 143.938 172.17 143.716 171.988C142.751 171.198 141.168 169.765 139.819 167.89C138.475 166.021 137.305 163.631 137.305 160.948C137.305 158.869 138.14 156.877 139.623 155.41C141.106 153.944 143.116 153.122 145.208 153.122ZM145.208 157.073C143.571 157.073 142.244 158.4 142.244 160.037C142.244 161.673 143.571 163 145.208 163C146.845 163 148.171 161.673 148.171 160.037C148.171 158.4 146.845 157.073 145.208 157.073Z" fill="#235347"/>
<path d="M91.8663 121.512C91.8663 122.603 90.9817 123.488 89.8906 123.488C88.7995 123.488 87.915 122.603 87.915 121.512C87.915 120.421 88.7995 119.536 89.8906 119.536C90.9817 119.536 91.8663 120.421 91.8663 121.512Z" fill="#235347"/>
<path fill-rule="evenodd" clip-rule="evenodd" d="M89.8907 97.8047C91.9831 97.8047 93.9923 98.6263 95.4751 100.093C96.9582 101.56 97.7931 103.552 97.7932 105.631C97.7932 108.314 96.6233 110.705 95.2793 112.574C93.9305 114.449 92.3475 115.881 91.3831 116.67C91.1582 116.855 90.8612 117.118 90.4261 117.241C90.0969 117.333 89.6847 117.333 89.3554 117.241C88.9201 117.118 88.621 116.853 88.3984 116.67C87.434 115.881 85.851 114.448 84.5022 112.573C83.1583 110.704 81.9883 108.314 81.9883 105.631C81.9883 103.552 82.8232 101.56 84.3064 100.093C85.7891 98.6264 87.7984 97.8047 89.8907 97.8047ZM89.8907 101.756C88.2541 101.756 86.9273 103.083 86.9273 104.719C86.9273 106.356 88.2541 107.683 89.8907 107.683C91.5274 107.683 92.8542 106.356 92.8542 104.719C92.8542 103.083 91.5274 101.756 89.8907 101.756Z" fill="#235347"/>
<path d="M169.903 276.598C169.903 277.689 169.019 278.574 167.928 278.574C166.837 278.574 165.952 277.689 165.952 276.598C165.952 275.507 166.837 274.622 167.928 274.622C169.019 274.622 169.903 275.507 169.903 276.598Z" fill="#235347"/>
<path fill-rule="evenodd" clip-rule="evenodd" d="M167.928 252.891C170.02 252.891 172.029 253.712 173.512 255.179C174.995 256.646 175.83 258.638 175.83 260.717C175.83 263.4 174.66 265.791 173.316 267.66C171.967 269.535 170.384 270.967 169.42 271.756C169.195 271.941 168.898 272.204 168.463 272.327C168.134 272.419 167.722 272.419 167.392 272.327C166.957 272.204 166.658 271.939 166.435 271.756C165.471 270.967 163.888 269.534 162.539 267.659C161.195 265.79 160.025 263.4 160.025 260.717C160.025 258.638 160.86 256.646 162.343 255.179C163.826 253.712 165.835 252.891 167.928 252.891ZM167.928 256.842C166.291 256.842 164.964 258.169 164.964 259.805C164.964 261.442 166.291 262.769 167.928 262.769C169.564 262.769 170.891 261.442 170.891 259.805C170.891 258.169 169.564 256.842 167.928 256.842Z" fill="#235347"/>
<path d="M275.599 367.476C276.69 367.476 277.575 366.591 277.575 365.5C277.575 364.409 276.69 363.524 275.599 363.524C274.508 363.524 273.623 364.409 273.623 365.5C273.623 366.591 274.508 367.476 275.599 367.476Z" fill="#235347"/>
<path d="M277.574 365.5C277.574 366.591 276.69 367.476 275.599 367.476C274.507 367.476 273.623 366.591 273.623 365.5C273.623 364.409 274.507 363.525 275.599 363.525C276.69 363.525 277.574 364.409 277.574 365.5Z" fill="#235347"/>
<path fill-rule="evenodd" clip-rule="evenodd" d="M275.599 341.793C277.691 341.793 279.7 342.615 281.183 344.081C282.666 345.548 283.501 347.54 283.501 349.619C283.501 352.302 282.331 354.693 280.987 356.562C279.638 358.437 278.055 359.869 277.091 360.659C276.866 360.843 276.569 361.106 276.134 361.229C275.805 361.322 275.392 361.322 275.063 361.229C274.628 361.106 274.329 360.841 274.106 360.659C273.142 359.869 271.559 358.436 270.21 356.561C268.866 354.692 267.696 352.302 267.696 349.619C267.696 347.54 268.531 345.548 270.014 344.081C271.497 342.615 273.506 341.793 275.599 341.793ZM275.599 345.744C273.962 345.744 272.635 347.071 272.635 348.708C272.635 350.344 273.962 351.671 275.599 351.671C277.235 351.671 278.562 350.344 278.562 348.708C278.562 347.071 277.235 345.744 275.599 345.744Z" fill="#235347"/>
<path d="M107.758 113.815C106.936 113.815 106.193 113.634 105.53 113.27C104.874 112.906 104.356 112.405 103.977 111.765C103.605 111.117 103.42 110.393 103.42 109.595C103.42 108.797 103.605 108.078 103.977 107.438C104.356 106.79 104.878 106.284 105.542 105.921C106.205 105.557 106.948 105.375 107.77 105.375C108.386 105.375 108.955 105.478 109.477 105.684C109.998 105.889 110.441 106.189 110.805 106.585L110.247 107.142C109.599 106.486 108.782 106.158 107.794 106.158C107.138 106.158 106.541 106.308 106.004 106.608C105.466 106.909 105.044 107.319 104.735 107.841C104.435 108.363 104.285 108.947 104.285 109.595C104.285 110.243 104.435 110.828 104.735 111.35C105.044 111.871 105.466 112.282 106.004 112.582C106.541 112.883 107.138 113.033 107.794 113.033C108.789 113.033 109.607 112.701 110.247 112.037L110.805 112.594C110.441 112.989 109.995 113.294 109.465 113.507C108.944 113.713 108.375 113.815 107.758 113.815ZM117.713 107.509L114.596 114.491C114.343 115.076 114.05 115.491 113.718 115.736C113.387 115.981 112.987 116.103 112.521 116.103C112.221 116.103 111.94 116.056 111.68 115.961C111.419 115.866 111.194 115.724 111.004 115.534L111.395 114.906C111.711 115.222 112.091 115.38 112.533 115.38C112.818 115.38 113.059 115.301 113.256 115.143C113.462 114.985 113.651 114.716 113.825 114.337L114.098 113.732L111.312 107.509H112.189L114.536 112.808L116.883 107.509H117.713ZM121.954 107.663C122.531 107.663 123.045 107.794 123.495 108.054C123.954 108.307 124.309 108.667 124.562 109.133C124.815 109.591 124.942 110.117 124.942 110.71C124.942 111.318 124.807 111.859 124.539 112.334C124.278 112.8 123.91 113.163 123.436 113.424C122.962 113.685 122.417 113.815 121.8 113.815C120.765 113.815 119.963 113.452 119.394 112.725C118.825 111.998 118.541 110.994 118.541 109.714C118.541 108.378 118.793 107.355 119.299 106.644C119.813 105.933 120.611 105.451 121.694 105.198L124.491 104.558L124.633 105.328L122.002 105.933C121.109 106.13 120.453 106.482 120.034 106.988C119.615 107.485 119.386 108.224 119.347 109.204C119.599 108.722 119.951 108.347 120.402 108.078C120.852 107.801 121.37 107.663 121.954 107.663ZM121.824 113.116C122.259 113.116 122.646 113.017 122.986 112.82C123.333 112.614 123.602 112.33 123.792 111.966C123.989 111.603 124.088 111.192 124.088 110.733C124.088 110.275 123.993 109.872 123.804 109.524C123.614 109.177 123.345 108.908 122.998 108.718C122.658 108.521 122.267 108.422 121.824 108.422C121.382 108.422 120.986 108.521 120.639 108.718C120.299 108.908 120.03 109.177 119.833 109.524C119.643 109.872 119.548 110.275 119.548 110.733C119.548 111.192 119.643 111.603 119.833 111.966C120.03 112.33 120.303 112.614 120.651 112.82C120.998 113.017 121.389 113.116 121.824 113.116ZM129.318 113.803C128.717 113.803 128.176 113.669 127.694 113.4C127.212 113.124 126.832 112.744 126.556 112.262C126.279 111.78 126.141 111.235 126.141 110.627C126.141 110.018 126.279 109.473 126.556 108.991C126.832 108.509 127.212 108.133 127.694 107.865C128.176 107.596 128.717 107.462 129.318 107.462C129.918 107.462 130.46 107.596 130.942 107.865C131.424 108.133 131.799 108.509 132.068 108.991C132.344 109.473 132.483 110.018 132.483 110.627C132.483 111.235 132.344 111.78 132.068 112.262C131.799 112.744 131.424 113.124 130.942 113.4C130.46 113.669 129.918 113.803 129.318 113.803ZM129.318 113.057C129.76 113.057 130.155 112.958 130.503 112.76C130.859 112.555 131.135 112.266 131.333 111.895C131.53 111.524 131.629 111.101 131.629 110.627C131.629 110.152 131.53 109.73 131.333 109.358C131.135 108.987 130.859 108.702 130.503 108.505C130.155 108.299 129.76 108.197 129.318 108.197C128.875 108.197 128.476 108.299 128.12 108.505C127.773 108.702 127.496 108.987 127.291 109.358C127.093 109.73 126.994 110.152 126.994 110.627C126.994 111.101 127.093 111.524 127.291 111.895C127.496 112.266 127.773 112.555 128.12 112.76C128.476 112.958 128.875 113.057 129.318 113.057ZM138.436 108.256H136.077V113.744H135.235V108.256H132.876V107.509H138.436V108.256ZM139.653 107.509H140.494V112.464L144.655 107.509H145.402V113.744H144.56V108.789L140.411 113.744H139.653V107.509ZM154.309 113.009V115.309H153.515V113.744H147.814V107.509H148.655V113.009H152.46V107.509H153.302V113.009H154.309ZM158.062 107.462C158.876 107.462 159.5 107.667 159.935 108.078C160.37 108.481 160.587 109.082 160.587 109.88V113.744H159.781V112.772C159.591 113.096 159.311 113.349 158.939 113.531C158.576 113.713 158.141 113.803 157.635 113.803C156.94 113.803 156.387 113.637 155.976 113.306C155.565 112.974 155.36 112.535 155.36 111.99C155.36 111.46 155.549 111.034 155.929 110.71C156.316 110.386 156.928 110.224 157.766 110.224H159.745V109.844C159.745 109.307 159.595 108.9 159.295 108.623C158.995 108.339 158.556 108.197 157.979 108.197C157.584 108.197 157.205 108.264 156.841 108.398C156.478 108.525 156.166 108.702 155.905 108.932L155.525 108.303C155.842 108.035 156.221 107.829 156.663 107.687C157.106 107.537 157.572 107.462 158.062 107.462ZM157.766 113.14C158.24 113.14 158.647 113.033 158.987 112.82C159.327 112.598 159.579 112.282 159.745 111.871V110.852H157.79C156.723 110.852 156.189 111.223 156.189 111.966C156.189 112.33 156.328 112.618 156.604 112.831C156.881 113.037 157.268 113.14 157.766 113.14Z" fill="#54504D"/>
<path d="M166.382 160.764V169.062H165.517V165.233H160.325V169.062H159.448V160.764H160.325V164.462H165.517V160.764H166.382ZM171.554 169.121C170.954 169.121 170.412 168.986 169.93 168.718C169.448 168.441 169.069 168.062 168.792 167.58C168.516 167.098 168.377 166.552 168.377 165.944C168.377 165.336 168.516 164.79 168.792 164.308C169.069 163.826 169.448 163.451 169.93 163.182C170.412 162.913 170.954 162.779 171.554 162.779C172.155 162.779 172.696 162.913 173.178 163.182C173.66 163.451 174.035 163.826 174.304 164.308C174.581 164.79 174.719 165.336 174.719 165.944C174.719 166.552 174.581 167.098 174.304 167.58C174.035 168.062 173.66 168.441 173.178 168.718C172.696 168.986 172.155 169.121 171.554 169.121ZM171.554 168.374C171.997 168.374 172.392 168.275 172.739 168.078C173.095 167.872 173.372 167.584 173.569 167.212C173.767 166.841 173.866 166.418 173.866 165.944C173.866 165.47 173.767 165.047 173.569 164.676C173.372 164.304 173.095 164.02 172.739 163.822C172.392 163.617 171.997 163.514 171.554 163.514C171.112 163.514 170.712 163.617 170.357 163.822C170.009 164.02 169.733 164.304 169.527 164.676C169.33 165.047 169.231 165.47 169.231 165.944C169.231 166.418 169.33 166.841 169.527 167.212C169.733 167.584 170.009 167.872 170.357 168.078C170.712 168.275 171.112 168.374 171.554 168.374ZM180.489 165.837C181.334 166.035 181.757 166.545 181.757 167.366C181.757 167.912 181.556 168.331 181.153 168.623C180.75 168.915 180.149 169.062 179.351 169.062H176.518V162.826H179.268C179.979 162.826 180.536 162.965 180.939 163.241C181.342 163.518 181.544 163.913 181.544 164.427C181.544 164.767 181.449 165.059 181.259 165.304C181.077 165.541 180.821 165.719 180.489 165.837ZM177.336 165.6H179.209C179.691 165.6 180.058 165.509 180.311 165.328C180.572 165.146 180.702 164.881 180.702 164.533C180.702 164.186 180.572 163.925 180.311 163.751C180.058 163.577 179.691 163.49 179.209 163.49H177.336V165.6ZM179.315 168.398C179.853 168.398 180.256 168.311 180.524 168.137C180.793 167.963 180.927 167.69 180.927 167.319C180.927 166.948 180.805 166.675 180.56 166.501C180.315 166.319 179.928 166.228 179.398 166.228H177.336V168.398H179.315ZM183.73 162.826H184.571V167.781L188.732 162.826H189.479V169.062H188.637V164.107L184.488 169.062H183.73V162.826ZM191.405 165.482H194.51V166.217H191.405V165.482ZM199.14 169.121C198.524 169.121 197.971 168.986 197.481 168.718C196.999 168.449 196.619 168.074 196.343 167.592C196.066 167.102 195.928 166.552 195.928 165.944C195.928 165.336 196.066 164.79 196.343 164.308C196.619 163.826 196.999 163.451 197.481 163.182C197.971 162.913 198.524 162.779 199.14 162.779C199.678 162.779 200.156 162.886 200.575 163.099C201.001 163.305 201.337 163.609 201.582 164.012L200.954 164.439C200.748 164.13 200.488 163.901 200.172 163.751C199.855 163.593 199.512 163.514 199.14 163.514C198.69 163.514 198.283 163.617 197.919 163.822C197.564 164.02 197.283 164.304 197.078 164.676C196.88 165.047 196.781 165.47 196.781 165.944C196.781 166.426 196.88 166.853 197.078 167.224C197.283 167.588 197.564 167.872 197.919 168.078C198.283 168.275 198.69 168.374 199.14 168.374C199.512 168.374 199.855 168.299 200.172 168.149C200.488 167.999 200.748 167.769 200.954 167.461L201.582 167.888C201.337 168.291 201.001 168.599 200.575 168.813C200.148 169.018 199.67 169.121 199.14 169.121ZM205.357 162.779C206.171 162.779 206.795 162.985 207.23 163.395C207.665 163.798 207.882 164.399 207.882 165.197V169.062H207.076V168.09C206.886 168.414 206.606 168.666 206.234 168.848C205.871 169.03 205.436 169.121 204.931 169.121C204.235 169.121 203.682 168.955 203.271 168.623C202.86 168.291 202.655 167.852 202.655 167.307C202.655 166.778 202.844 166.351 203.224 166.027C203.611 165.703 204.223 165.541 205.061 165.541H207.04V165.162C207.04 164.624 206.89 164.217 206.59 163.941C206.29 163.656 205.851 163.514 205.274 163.514C204.879 163.514 204.5 163.581 204.136 163.716C203.773 163.842 203.461 164.02 203.2 164.249L202.821 163.621C203.137 163.352 203.516 163.147 203.959 163.004C204.401 162.854 204.867 162.779 205.357 162.779ZM205.061 168.457C205.535 168.457 205.942 168.35 206.282 168.137C206.622 167.916 206.875 167.6 207.04 167.189V166.169H205.085C204.018 166.169 203.484 166.541 203.484 167.283C203.484 167.647 203.623 167.935 203.899 168.149C204.176 168.354 204.563 168.457 205.061 168.457ZM216.203 168.327V170.567H215.409V169.062H209.826V170.567H209.032V168.327H209.388C209.806 168.303 210.091 167.995 210.241 167.402C210.391 166.809 210.494 165.98 210.549 164.913L210.632 162.826H215.231V168.327H216.203ZM211.32 164.96C211.28 165.845 211.205 166.576 211.095 167.153C210.984 167.722 210.786 168.113 210.502 168.327H214.39V163.573H211.391L211.32 164.96Z" fill="#54504D"/>
<path d="M182.168 260.532H188.237V261.279H183.033V263.994H185.748C186.728 263.994 187.47 264.195 187.976 264.598C188.49 265.001 188.747 265.586 188.747 266.353C188.747 267.151 188.47 267.763 187.917 268.19C187.372 268.617 186.585 268.83 185.558 268.83H182.168V260.532ZM185.546 268.131C186.313 268.131 186.89 267.985 187.277 267.692C187.672 267.4 187.869 266.965 187.869 266.388C187.869 265.819 187.676 265.396 187.289 265.12C186.909 264.835 186.328 264.693 185.546 264.693H183.033V268.131H185.546ZM196.031 265.973H190.816C190.863 266.621 191.112 267.147 191.563 267.55C192.013 267.945 192.582 268.143 193.27 268.143C193.657 268.143 194.012 268.075 194.336 267.941C194.66 267.799 194.941 267.593 195.178 267.325L195.652 267.87C195.376 268.202 195.028 268.455 194.609 268.629C194.198 268.802 193.744 268.889 193.246 268.889C192.606 268.889 192.037 268.755 191.539 268.486C191.049 268.21 190.666 267.83 190.389 267.348C190.112 266.866 189.974 266.321 189.974 265.713C189.974 265.104 190.105 264.559 190.365 264.077C190.634 263.595 190.998 263.219 191.456 262.951C191.922 262.682 192.444 262.548 193.021 262.548C193.597 262.548 194.115 262.682 194.573 262.951C195.032 263.219 195.391 263.595 195.652 264.077C195.913 264.551 196.043 265.096 196.043 265.713L196.031 265.973ZM193.021 263.271C192.42 263.271 191.914 263.464 191.503 263.852C191.1 264.231 190.871 264.729 190.816 265.345H195.237C195.182 264.729 194.949 264.231 194.538 263.852C194.135 263.464 193.629 263.271 193.021 263.271ZM202.876 262.595V268.83H202.034V263.342H199.047L198.964 264.883C198.901 266.179 198.751 267.175 198.514 267.87C198.277 268.565 197.854 268.913 197.245 268.913C197.08 268.913 196.878 268.881 196.641 268.818L196.7 268.095C196.842 268.127 196.941 268.143 196.997 268.143C197.321 268.143 197.566 267.992 197.731 267.692C197.897 267.392 198.008 267.02 198.063 266.578C198.119 266.135 198.166 265.551 198.206 264.824L198.312 262.595H202.876ZM209.678 263.342H206.11V268.83H205.269V262.595H209.678V263.342ZM214.107 262.548C214.692 262.548 215.221 262.682 215.695 262.951C216.169 263.211 216.541 263.583 216.809 264.065C217.078 264.547 217.212 265.096 217.212 265.713C217.212 266.337 217.078 266.89 216.809 267.372C216.541 267.854 216.169 268.229 215.695 268.498C215.229 268.759 214.699 268.889 214.107 268.889C213.601 268.889 213.143 268.787 212.732 268.581C212.329 268.368 211.997 268.06 211.736 267.657V271.13H210.894V262.595H211.7V263.828C211.953 263.417 212.285 263.101 212.696 262.88C213.115 262.658 213.585 262.548 214.107 262.548ZM214.047 268.143C214.482 268.143 214.877 268.044 215.233 267.846C215.588 267.641 215.865 267.352 216.063 266.981C216.268 266.609 216.371 266.187 216.371 265.713C216.371 265.238 216.268 264.82 216.063 264.456C215.865 264.085 215.588 263.796 215.233 263.591C214.877 263.385 214.482 263.283 214.047 263.283C213.605 263.283 213.206 263.385 212.85 263.591C212.503 263.796 212.226 264.085 212.02 264.456C211.823 264.82 211.724 265.238 211.724 265.713C211.724 266.187 211.823 266.609 212.02 266.981C212.226 267.352 212.503 267.641 212.85 267.846C213.206 268.044 213.605 268.143 214.047 268.143ZM221.131 262.548C221.945 262.548 222.57 262.753 223.004 263.164C223.439 263.567 223.656 264.168 223.656 264.966V268.83H222.85V267.858C222.661 268.182 222.38 268.435 222.009 268.617C221.645 268.798 221.21 268.889 220.705 268.889C220.009 268.889 219.456 268.723 219.045 268.391C218.634 268.06 218.429 267.621 218.429 267.076C218.429 266.546 218.618 266.12 218.998 265.796C219.385 265.472 219.997 265.31 220.835 265.31H222.815V264.93C222.815 264.393 222.665 263.986 222.364 263.709C222.064 263.425 221.625 263.283 221.048 263.283C220.653 263.283 220.274 263.35 219.911 263.484C219.547 263.61 219.235 263.788 218.974 264.017L218.595 263.389C218.911 263.121 219.29 262.915 219.733 262.773C220.175 262.623 220.641 262.548 221.131 262.548ZM220.835 268.226C221.309 268.226 221.716 268.119 222.056 267.905C222.396 267.684 222.649 267.368 222.815 266.957V265.938H220.859C219.792 265.938 219.259 266.309 219.259 267.052C219.259 267.416 219.397 267.704 219.673 267.917C219.95 268.123 220.337 268.226 220.835 268.226ZM231.978 268.095V270.335H231.183V268.83H225.6V270.335H224.806V268.095H225.162C225.581 268.071 225.865 267.763 226.015 267.171C226.165 266.578 226.268 265.748 226.323 264.681L226.406 262.595H231.006V268.095H231.978ZM227.094 264.729C227.054 265.614 226.979 266.345 226.869 266.922C226.758 267.491 226.561 267.882 226.276 268.095H230.164V263.342H227.165L227.094 264.729Z" fill="#54504D"/>
<path d="M296.773 349.435V357.732H295.908V353.904H290.716V357.732H289.839V349.435H290.716V353.133H295.908V349.435H296.773ZM299.372 351.497H300.214V356.452L304.375 351.497H305.122V357.732H304.28V352.778L300.131 357.732H299.372V351.497ZM316.139 351.497V357.732H307.533V351.497H308.375V356.997H311.433V351.497H312.275V356.997H315.298V351.497H316.139Z" fill="#54504D"/>
</g>
<defs>
<clipPath id="clip0_2024_195">
<rect width="376" height="497" fill="white"/>
</clipPath>
</defs>
</svg>
