<svg width="130" height="159" viewBox="0 0 130 159" fill="none" xmlns="http://www.w3.org/2000/svg">
<path d="M63.5232 156.566C54.8599 141.941 46.395 102.702 60.8264 60.3232L62.6731 55.0386M62.6731 55.0386C60.1883 46.6758 61.2461 27.3102 85.3561 16.7505C86.6411 40.1245 70.7695 52.0151 62.6731 55.0386Z" stroke="#235347"/>
<path d="M62.2194 54.8286C62.5219 54.9684 62.8245 55.1083 63.1271 55.2481C63.2795 54.8984 63.4392 54.5368 63.6001 54.1757C66.5146 47.7681 69.4799 41.3217 73.3092 35.3949C73.5321 35.0662 73.76 34.7436 73.9902 34.4367C73.7469 34.7333 73.5053 35.0464 73.2684 35.366C69.1808 41.1391 65.9379 47.467 62.7406 53.7709C62.5638 54.1268 62.3881 54.4834 62.2194 54.8286Z" fill="#235347"/>
<path d="M57.3151 83.4324C57.4944 83.7135 57.6736 83.9945 57.8528 84.2756C58.1151 84.0985 58.3861 83.9164 58.6596 83.7332C63.5196 80.5027 68.3935 77.2612 73.4582 74.3467C73.742 74.1877 74.0319 74.029 74.3112 73.8816C74.0245 74.0141 73.7267 74.158 73.4348 74.3025C68.2199 76.9571 63.1811 79.9476 58.1512 82.9307C57.868 83.1002 57.5873 83.2688 57.3151 83.4324Z" fill="#235347"/>
<path d="M51.8248 75.2076C52.1348 75.0851 52.4448 74.9627 52.7549 74.8403C52.6143 74.5068 52.4736 74.1734 52.333 73.8399C49.8018 67.8376 47.2705 61.8353 44.7393 55.833C44.5986 55.4995 44.458 55.166 44.3174 54.8326C44.4425 55.1722 44.5676 55.5117 44.6928 55.8513C46.945 61.9638 49.1972 68.0763 51.4494 74.1888C51.5745 74.5284 51.6996 74.868 51.8248 75.2076Z" fill="#235347"/>
<path d="M48.2393 113.625C48.5105 113.431 48.7817 113.238 49.0529 113.044C48.8363 112.755 48.6106 112.454 48.3863 112.157C44.3457 106.852 40.3517 101.505 35.9214 96.512C35.6667 96.2387 35.4089 95.9701 35.1426 95.7233C35.3972 95.982 35.6422 96.2614 35.884 96.5452C40.0771 101.723 43.824 107.24 47.6149 112.711C47.8252 113.018 48.0369 113.328 48.2393 113.625Z" fill="#235347"/>
<path d="M56.7712 143.422C56.8897 143.11 57.0083 142.799 57.1269 142.487C56.8208 142.379 56.5037 142.268 56.1861 142.158C50.5224 140.225 44.8651 138.24 39.0378 136.846C38.7236 136.78 38.3783 136.713 38.0615 136.668C38.3755 136.729 38.7165 136.812 39.0262 136.895C44.7619 138.574 50.3063 140.839 55.8514 143.047C56.1622 143.173 56.4723 143.299 56.7712 143.422Z" fill="#235347"/>
<path d="M56.8906 120.017C56.6589 119.777 56.4271 119.538 56.1953 119.298C56.4342 119.079 56.6819 118.852 56.9301 118.625C61.3737 114.616 65.7904 110.562 70.5967 106.984C70.8593 106.799 71.1502 106.602 71.4238 106.436C71.1592 106.616 70.8786 106.827 70.6265 107.024C66.0171 110.829 61.814 115.095 57.5882 119.31C57.3522 119.548 57.117 119.786 56.8906 120.017Z" fill="#235347"/>
<path d="M58.6135 145.07C58.2454 144.513 57.8153 143.919 57.3253 143.302M57.3253 143.302C51.8003 136.339 38.6555 126.357 20.9055 131.382C32.294 147.657 49.9305 146.11 57.3253 143.302Z" stroke="#235347"/>
<path d="M53.7573 121.482L49.0791 113.585M49.0791 113.585C48.993 105.067 43.1478 86.2581 20.4561 79.1614C24.3125 104.482 41.1449 112.661 49.0791 113.585Z" stroke="#235347"/>
<path d="M54.9188 83.4697L52.4726 75.7066M52.4726 75.7066C44.906 71.1456 31.3373 56.114 37.5947 32.4758C54.8722 52.1504 54.7122 69.4941 52.4726 75.7066Z" stroke="#235347"/>
<path d="M54.2852 86.5679L57.3342 84.2868M57.3342 84.2868C58.8135 77.0579 67.2887 63.245 89.3557 65.824C83.7269 81.9732 65.6627 84.8614 57.3342 84.2868Z" stroke="#235347"/>
<path d="M53.8738 123.281L55.8738 119.817M55.8738 119.817L56.6238 118.518C57.3204 110.644 64.2339 94.7366 86.3152 94.0907C83.2577 112.186 64.747 118.781 55.8738 119.817Z" stroke="#235347"/>
</svg>
