<svg width="191" height="157" viewBox="0 0 191 157" fill="none" xmlns="http://www.w3.org/2000/svg">
<circle cx="104.5" cy="105.5" r="104.5" fill="#F5E7D6"/>
<path d="M189.307 148.096C167.288 148.343 117.781 132.423 79.5826 88.7805L74.8498 83.2854M74.8498 83.2854C63.8577 80.6562 42.816 66.9253 46.5859 33.0354C73.6424 46.7342 76.7021 72.2433 74.8498 83.2854Z" stroke="#235347" stroke-width="1.2955"/>
<path d="M74.3196 83.6592C74.6725 83.4103 75.0254 83.1614 75.3783 82.9125C75.0847 82.515 74.7825 82.1017 74.4815 81.6872C69.1805 74.2667 63.8688 66.7643 59.6997 58.629C59.4753 58.166 59.261 57.7013 59.0659 57.2443C59.2409 57.7093 59.4357 58.1832 59.6408 58.656C63.4702 66.9815 68.469 74.7188 73.4706 82.3893C73.7554 82.8182 74.0416 83.2463 74.3196 83.6592Z" fill="#235347"/>
<path d="M103.235 107.689C103.666 107.67 104.098 107.651 104.529 107.632C104.5 107.223 104.471 106.801 104.443 106.376C103.967 98.8305 103.487 91.2626 103.498 83.6925C103.503 83.271 103.513 82.843 103.528 82.4341C103.491 82.8417 103.46 83.269 103.433 83.69C103.033 91.2603 103.125 98.8507 103.213 106.426C103.22 106.854 103.227 107.278 103.235 107.689Z" fill="#235347"/>
<path d="M90.4503 108.522C90.5138 108.095 90.5773 107.668 90.6408 107.241C90.1756 107.182 89.7104 107.124 89.2452 107.066C80.8713 106.018 72.4975 104.97 64.1237 103.922C63.6585 103.863 63.1932 103.805 62.728 103.747C63.1901 103.827 63.6521 103.906 64.1141 103.986C72.4308 105.418 80.7475 106.851 89.0642 108.283C89.5263 108.363 89.9883 108.442 90.4503 108.522Z" fill="#235347"/>
<path d="M131.23 137.429C131.189 136.999 131.147 136.569 131.105 136.139C130.641 136.195 130.157 136.254 129.678 136.313C121.109 137.41 112.523 138.428 104.051 140.164C103.58 140.272 103.112 140.388 102.662 140.527C103.117 140.408 103.589 140.315 104.065 140.227C112.589 138.876 121.206 138.246 129.801 137.537C130.281 137.5 130.765 137.463 131.23 137.429Z" fill="#235347"/>
<path d="M170.187 147.158C169.914 146.823 169.642 146.489 169.369 146.154C169.05 146.427 168.72 146.711 168.39 146.996C162.553 152.099 156.661 157.16 151.323 162.795C151.045 163.104 150.746 163.448 150.491 163.775C150.763 163.462 151.077 163.133 151.37 162.839C156.97 157.492 163.101 152.738 169.171 147.947C169.513 147.68 169.856 147.414 170.187 147.158Z" fill="#235347"/>
<path d="M144.006 131.864C143.587 131.968 143.168 132.073 142.749 132.178C142.657 131.768 142.563 131.343 142.469 130.917C140.851 123.336 139.162 115.754 138.262 108.044C138.225 107.63 138.191 107.175 138.183 106.761C138.213 107.174 138.268 107.626 138.326 108.037C139.609 115.672 141.672 123.152 143.664 130.623C143.779 131.042 143.894 131.46 144.006 131.864Z" fill="#235347"/>
<path d="M173.23 146.159C172.366 146.211 171.421 146.308 170.411 146.458M170.411 146.458C159.021 148.147 139.307 156.429 133.447 179.598C159.083 177.363 168.771 156.574 170.411 146.458Z" stroke="#235347" stroke-width="1.2955"/>
<path d="M143.619 136.328L131.729 136.461M131.729 136.461C122.117 131.04 97.2281 125.415 74.5675 146.277C105.473 158.351 125.553 144.764 131.729 136.461Z" stroke="#235347" stroke-width="1.2955"/>
<path d="M101.725 110.402L91.4303 108.118M91.4303 108.118C81.4119 113.653 55.7583 119.14 33.291 96.8075C66.5561 90.1676 85.911 101.581 91.4303 108.118Z" stroke="#235347" stroke-width="1.2955"/>
<path d="M104.79 113.12L104.206 108.221M104.206 108.221C97.0537 101.879 87.0463 83.423 104.234 60.3359C118.706 77.1116 110.245 99.2493 104.206 108.221Z" stroke="#235347" stroke-width="1.2955"/>
<path d="M145.712 137.362L143.121 132.874M143.121 132.874L142.15 131.191C133.768 125.31 120.398 107.249 133.977 82.0571C152.298 97.2089 147.707 122.249 143.121 132.874Z" stroke="#235347" stroke-width="1.2955"/>
</svg>
