<svg width="142" height="197" viewBox="0 0 142 197" fill="none" xmlns="http://www.w3.org/2000/svg">
<path d="M79.0448 129.058C69.9271 135.557 54.053 155.758 63.4983 184.576C90.1278 163.278 84.9583 138.69 79.0448 129.058ZM79.0448 129.058L79.5838 121.826C81.444 93.8593 83.2289 79.542 82.8726 70.2035" stroke="#235347" stroke-width="1.2955" stroke-linecap="round"/>
<path d="M79.6836 129.169C79.2581 129.096 78.8326 129.022 78.407 128.949C78.3335 129.437 78.255 129.943 78.1748 130.449C76.6761 139.445 75.1269 148.506 72.3224 157.206C72.1537 157.692 71.9767 158.172 71.7915 158.633C71.9965 158.181 72.1939 157.708 72.3832 157.229C75.5624 148.634 77.4988 139.628 79.386 130.667C79.4879 130.163 79.5882 129.658 79.6836 129.169Z" fill="#235347"/>
<path d="M79.4231 90.4916C79.1046 90.2 78.7861 89.9084 78.4675 89.6168C78.1988 89.9264 77.9207 90.2451 77.6398 90.566C72.6415 96.2381 67.6294 101.929 62.2689 107.274C61.967 107.568 61.6575 107.864 61.3573 108.142C61.6717 107.88 61.996 107.6 62.3129 107.321C67.9485 102.251 73.2511 96.8192 78.5451 91.3997C78.8426 91.0927 79.1374 90.7877 79.4231 90.4916Z" fill="#235347"/>
<path d="M88.2141 102.979C87.8672 103.236 87.5203 103.493 87.1733 103.75C87.4611 104.12 87.7489 104.49 88.0367 104.86C93.2168 111.523 98.3968 118.185 103.577 124.847C103.865 125.218 104.152 125.588 104.44 125.958C104.17 125.575 103.899 125.192 103.629 124.809C98.7611 117.915 93.8933 111.021 89.0254 104.128C88.755 103.745 88.4845 103.362 88.2141 102.979Z" fill="#235347"/>
<path d="M77.4618 50.9064C77.1875 51.2399 76.9131 51.5734 76.6388 51.9068C77.0065 52.1954 77.3898 52.4959 77.7702 52.7932C84.6053 58.0769 91.3959 63.4279 98.614 68.191C99.0244 68.4475 99.4371 68.6972 99.8531 68.9168C99.4477 68.6784 99.0474 68.411 98.6496 68.1369C91.6666 63.0639 85.1281 57.4166 78.5496 51.8407C78.1836 51.5273 77.8149 51.2108 77.4618 50.9064Z" fill="#235347"/>
<path d="M56.7959 16.4799C56.752 16.9095 56.708 17.3391 56.6641 17.7687C57.0831 17.8007 57.5172 17.8334 57.9518 17.8654C65.6871 18.3844 73.4322 18.9723 81.1914 18.7621C81.6068 18.7398 82.0615 18.708 82.4727 18.6572C82.0594 18.6865 81.6047 18.6966 81.1896 18.6973C73.4491 18.5189 65.7518 17.5446 58.0725 16.6406C57.6414 16.5872 57.211 16.5332 56.7959 16.4799Z" fill="#235347"/>
<path d="M77.6668 71.9874C77.7717 72.4064 77.8765 72.8253 77.9814 73.2442C77.5712 73.3357 77.1463 73.4301 76.7207 73.5238C69.1389 75.1426 61.5572 76.8309 53.8476 77.7313C53.4333 77.7685 52.9787 77.8021 52.5645 77.8105C52.9776 77.7805 53.4291 77.7255 53.8401 77.6669C61.4757 76.3845 68.9549 74.3207 76.4262 72.3288C76.8453 72.2144 77.2636 72.0995 77.6668 71.9874Z" fill="#235347"/>
<path d="M53.9379 15.0352C54.5854 15.6093 55.3227 16.2081 56.143 16.8166M56.143 16.8166C65.3911 23.6762 85.187 31.7597 105.714 19.52C86.0057 2.97322 64.4549 10.8232 56.143 16.8166Z" stroke="#235347" stroke-width="1.2955"/>
<path d="M81.572 93.6762L87.236 102.57M87.236 102.57C98.2338 105.741 120.253 120.001 120.349 151.679C92.1317 132.852 86.5164 111.095 87.236 102.57Z" stroke="#235347" stroke-width="1.2955"/>
<path d="M82.1621 85.5522L79.1115 89.429M79.1115 89.429C79.6843 98.9709 73.7101 119.098 45.2318 123.269C46.8605 101.174 68.4969 91.5026 79.1115 89.429Z" stroke="#235347" stroke-width="1.2955"/>
<path d="M83.1653 70.2813L78.6776 72.8723M78.6776 72.8723L76.9947 73.844C71.1133 82.226 53.0525 95.5953 27.8604 82.0168C43.0121 63.6952 68.0517 68.2865 78.6776 72.8723Z" stroke="#235347" stroke-width="1.2955"/>
</svg>
