<svg width="113" height="153" viewBox="0 0 113 153" fill="none" xmlns="http://www.w3.org/2000/svg">
<path d="M46.6948 58.7858C53.82 50.1492 63.9248 26.5279 47.3426 1.13606C27.1328 28.6007 38.49 51.0128 46.6948 58.7858ZM46.6948 58.7858L48.046 65.911C53.4876 93.4065 55.4691 107.698 58.2302 116.626" stroke="#235347" stroke-width="1.2955" stroke-linecap="round"/>
<path d="M46.0478 58.8443C46.4779 58.8052 46.9079 58.7661 47.338 58.727C47.2825 58.2359 47.2274 57.7268 47.174 57.2174C46.2934 48.1406 45.4446 38.9874 45.9017 29.8575C45.9389 29.3443 45.9856 28.8347 46.0451 28.3414C45.9642 28.8317 45.896 29.3395 45.8372 29.8515C44.9908 38.9762 45.4512 48.1764 45.9475 57.32C45.9797 57.8339 46.0135 58.3477 46.0478 58.8443Z" fill="#235347"/>
<path d="M56.312 96.1362C56.6952 96.3354 57.0783 96.5347 57.4614 96.7339C57.6409 96.3653 57.827 95.9855 58.0153 95.6028C61.3752 88.8303 64.7438 82.0365 68.5382 75.486C68.7536 75.1237 68.976 74.7579 69.194 74.4116C68.9581 74.746 68.7173 75.1003 68.4833 75.4514C64.3521 81.8077 60.636 88.4268 56.925 95.0318C56.7172 95.4054 56.5113 95.7763 56.312 96.1362Z" fill="#235347"/>
<path d="M44.5875 86.3505C44.856 86.0123 45.1246 85.6742 45.3931 85.336C45.0194 85.053 44.6456 84.7699 44.2718 84.4869C37.5439 79.3923 30.816 74.2977 24.0881 69.2031C23.7143 68.9201 23.3406 68.637 22.9668 68.354C23.3271 68.654 23.6875 68.9539 24.0478 69.2538C30.534 74.6528 37.0202 80.0517 43.5064 85.4507C43.8668 85.7506 44.2271 86.0506 44.5875 86.3505Z" fill="#235347"/>
<path d="M68.4499 133.866C68.6286 133.472 68.8073 133.079 68.986 132.686C68.5561 132.503 68.108 132.312 67.6636 132.123C59.6939 128.788 51.7498 125.377 43.5448 122.645C43.0821 122.503 42.6188 122.369 42.1602 122.264C42.6135 122.389 43.0693 122.544 43.5245 122.706C51.5826 125.799 59.3599 129.561 67.1574 133.245C67.592 133.453 68.0301 133.663 68.4499 133.866Z" fill="#235347"/>
<path d="M62.7972 113.556C62.5875 113.178 62.3778 112.801 62.1681 112.423C62.5406 112.229 62.9267 112.028 63.3134 111.827C70.2179 108.301 77.1043 104.708 84.3182 101.843C84.7088 101.7 85.1392 101.549 85.5371 101.434C85.1458 101.57 84.7239 101.74 84.3421 101.903C77.2986 105.118 70.6084 109.047 63.9072 112.905C63.532 113.124 63.1577 113.343 62.7972 113.556Z" fill="#235347"/>
<path d="M53.4111 93.6167L45.6381 86.4914M45.6381 86.4914C34.1945 86.2755 9.23456 78.2002 0.943357 47.6264C33.0718 58.5086 44.1267 78.0707 45.6381 86.4914Z" stroke="#235347" stroke-width="1.2955"/>
<path d="M54.9434 101.617L56.8866 97.0824M56.8866 97.0824C53.8638 88.0139 54.4252 67.0268 80.8534 55.6264C84.999 77.3908 66.6029 92.3323 56.8866 97.0824Z" stroke="#235347" stroke-width="1.2955"/>
<path d="M57.9275 116.627L61.5917 112.963M61.5917 112.963L62.9658 111.589C66.4774 101.97 80.4625 84.382 108.311 90.9776C98.4172 112.597 73.0424 114.642 61.5917 112.963Z" stroke="#235347" stroke-width="1.2955"/>
</svg>
